<mxfile host="app.diagrams.net" modified="2021-06-16T16:30:10.415Z" agent="5.0 (Windows NT 10.0; Win64; x64) AppleWebKit/537.36 (KHTML, like Gecko) Chrome/91.0.4472.101 Safari/537.36" etag="y4Ip0UErvvE12DyB4dzr" version="14.7.7" type="github">
  <diagram id="W-BSlczBH-Dr9sh_IV_M" name="Page-1">
    <mxGraphModel dx="2249" dy="1931" grid="1" gridSize="10" guides="1" tooltips="1" connect="1" arrows="1" fold="1" page="1" pageScale="1" pageWidth="827" pageHeight="1169" math="0" shadow="0">
      <root>
        <mxCell id="0" />
        <mxCell id="1" parent="0" />
        <mxCell id="ZrJRJ42UMuMNObL904E1-1" value="Managed Gateway" style="rounded=1;whiteSpace=wrap;html=1;verticalAlign=top;" vertex="1" parent="1">
          <mxGeometry x="70" y="50" width="140" height="210" as="geometry" />
        </mxCell>
        <mxCell id="ZrJRJ42UMuMNObL904E1-16" style="edgeStyle=orthogonalEdgeStyle;rounded=0;orthogonalLoop=1;jettySize=auto;html=1;entryX=0;entryY=0.5;entryDx=0;entryDy=0;" edge="1" parent="1" source="ZrJRJ42UMuMNObL904E1-5" target="ZrJRJ42UMuMNObL904E1-12">
          <mxGeometry relative="1" as="geometry" />
        </mxCell>
        <mxCell id="ZrJRJ42UMuMNObL904E1-17" style="edgeStyle=orthogonalEdgeStyle;rounded=0;orthogonalLoop=1;jettySize=auto;html=1;" edge="1" parent="1" source="ZrJRJ42UMuMNObL904E1-5" target="ZrJRJ42UMuMNObL904E1-13">
          <mxGeometry relative="1" as="geometry" />
        </mxCell>
        <mxCell id="ZrJRJ42UMuMNObL904E1-5" value="Siti agri" style="rounded=1;whiteSpace=wrap;html=1;verticalAlign=top;" vertex="1" parent="1">
          <mxGeometry x="-190" y="150" width="120" height="60" as="geometry" />
        </mxCell>
        <mxCell id="ZrJRJ42UMuMNObL904E1-6" value="" style="shape=image;verticalLabelPosition=bottom;labelBackgroundColor=#ffffff;verticalAlign=top;aspect=fixed;imageAspect=0;image=https://www.abacogroup.eu/includes/img/abaco-group.png;" vertex="1" parent="1">
          <mxGeometry x="-145" y="173" width="30" height="32.55" as="geometry" />
        </mxCell>
        <mxCell id="ZrJRJ42UMuMNObL904E1-7" value="CS interface" style="rounded=1;whiteSpace=wrap;html=1;verticalAlign=top;" vertex="1" parent="1">
          <mxGeometry x="80" y="110" width="120" height="60" as="geometry" />
        </mxCell>
        <mxCell id="ZrJRJ42UMuMNObL904E1-8" value="" style="aspect=fixed;html=1;points=[];align=center;image;fontSize=12;image=img/lib/azure2/general/Folder_Blank.svg;" vertex="1" parent="1">
          <mxGeometry x="125" y="140" width="30" height="24.35" as="geometry" />
        </mxCell>
        <mxCell id="ZrJRJ42UMuMNObL904E1-18" style="edgeStyle=orthogonalEdgeStyle;rounded=0;orthogonalLoop=1;jettySize=auto;html=1;entryX=0;entryY=0.5;entryDx=0;entryDy=0;" edge="1" parent="1" source="ZrJRJ42UMuMNObL904E1-12" target="ZrJRJ42UMuMNObL904E1-7">
          <mxGeometry relative="1" as="geometry" />
        </mxCell>
        <mxCell id="ZrJRJ42UMuMNObL904E1-12" value="CS&lt;br&gt;payment file" style="shape=image;html=1;verticalAlign=top;verticalLabelPosition=bottom;labelBackgroundColor=#ffffff;imageAspect=0;aspect=fixed;image=https://cdn0.iconfinder.com/data/icons/feather/96/591262-file-128.png" vertex="1" parent="1">
          <mxGeometry x="10" y="125" width="30" height="30" as="geometry" />
        </mxCell>
        <mxCell id="ZrJRJ42UMuMNObL904E1-19" style="edgeStyle=orthogonalEdgeStyle;rounded=0;orthogonalLoop=1;jettySize=auto;html=1;entryX=0;entryY=0.5;entryDx=0;entryDy=0;" edge="1" parent="1" source="ZrJRJ42UMuMNObL904E1-13" target="ZrJRJ42UMuMNObL904E1-14">
          <mxGeometry relative="1" as="geometry" />
        </mxCell>
        <mxCell id="ZrJRJ42UMuMNObL904E1-13" value="BPS&lt;br&gt;payment file" style="shape=image;html=1;verticalAlign=top;verticalLabelPosition=bottom;labelBackgroundColor=#ffffff;imageAspect=0;aspect=fixed;image=https://cdn0.iconfinder.com/data/icons/feather/96/591262-file-128.png" vertex="1" parent="1">
          <mxGeometry x="10" y="200" width="30" height="30" as="geometry" />
        </mxCell>
        <mxCell id="ZrJRJ42UMuMNObL904E1-14" value="BPS interface" style="rounded=1;whiteSpace=wrap;html=1;verticalAlign=top;" vertex="1" parent="1">
          <mxGeometry x="80" y="185" width="120" height="60" as="geometry" />
        </mxCell>
        <mxCell id="ZrJRJ42UMuMNObL904E1-15" value="" style="aspect=fixed;html=1;points=[];align=center;image;fontSize=12;image=img/lib/azure2/general/Folder_Blank.svg;" vertex="1" parent="1">
          <mxGeometry x="125" y="215" width="30" height="24.35" as="geometry" />
        </mxCell>
        <mxCell id="ZrJRJ42UMuMNObL904E1-21" value="File Transfer Tool" style="rounded=1;whiteSpace=wrap;html=1;verticalAlign=top;" vertex="1" parent="1">
          <mxGeometry x="230" y="50" width="140" height="210" as="geometry" />
        </mxCell>
        <mxCell id="ZrJRJ42UMuMNObL904E1-22" value="CS transfer" style="rounded=1;whiteSpace=wrap;html=1;verticalAlign=top;" vertex="1" parent="1">
          <mxGeometry x="240" y="110" width="120" height="60" as="geometry" />
        </mxCell>
        <mxCell id="ZrJRJ42UMuMNObL904E1-24" value="BPS transfer" style="rounded=1;whiteSpace=wrap;html=1;verticalAlign=top;" vertex="1" parent="1">
          <mxGeometry x="240" y="185" width="120" height="60" as="geometry" />
        </mxCell>
        <mxCell id="ZrJRJ42UMuMNObL904E1-27" value="" style="shape=image;verticalLabelPosition=bottom;labelBackgroundColor=#ffffff;verticalAlign=top;aspect=fixed;imageAspect=0;image=https://upload.wikimedia.org/wikipedia/commons/thumb/a/a3/.NET_Logo.svg/456px-.NET_Logo.svg.png;" vertex="1" parent="1">
          <mxGeometry x="285" y="74" width="30" height="30" as="geometry" />
        </mxCell>
        <mxCell id="ZrJRJ42UMuMNObL904E1-28" value="" style="aspect=fixed;perimeter=ellipsePerimeter;html=1;align=center;shadow=0;dashed=0;spacingTop=3;image;image=img/lib/active_directory/generic_server.svg;" vertex="1" parent="1">
          <mxGeometry x="131.60000000000002" y="74" width="16.8" height="30" as="geometry" />
        </mxCell>
        <mxCell id="ZrJRJ42UMuMNObL904E1-29" style="edgeStyle=orthogonalEdgeStyle;rounded=0;orthogonalLoop=1;jettySize=auto;html=1;entryX=0;entryY=0.5;entryDx=0;entryDy=0;" edge="1" parent="1" source="ZrJRJ42UMuMNObL904E1-7" target="ZrJRJ42UMuMNObL904E1-22">
          <mxGeometry relative="1" as="geometry" />
        </mxCell>
        <mxCell id="ZrJRJ42UMuMNObL904E1-30" style="edgeStyle=orthogonalEdgeStyle;rounded=0;orthogonalLoop=1;jettySize=auto;html=1;" edge="1" parent="1" source="ZrJRJ42UMuMNObL904E1-14" target="ZrJRJ42UMuMNObL904E1-24">
          <mxGeometry relative="1" as="geometry" />
        </mxCell>
        <mxCell id="ZrJRJ42UMuMNObL904E1-34" value="" style="edgeStyle=orthogonalEdgeStyle;rounded=0;orthogonalLoop=1;jettySize=auto;html=1;" edge="1" parent="1" source="ZrJRJ42UMuMNObL904E1-31" target="ZrJRJ42UMuMNObL904E1-33">
          <mxGeometry relative="1" as="geometry" />
        </mxCell>
        <mxCell id="ZrJRJ42UMuMNObL904E1-31" value="FDMR" style="rounded=1;whiteSpace=wrap;html=1;verticalAlign=top;" vertex="1" parent="1">
          <mxGeometry x="80" y="314.35" width="120" height="60" as="geometry" />
        </mxCell>
        <mxCell id="ZrJRJ42UMuMNObL904E1-32" value="" style="shape=image;verticalLabelPosition=bottom;labelBackgroundColor=#ffffff;verticalAlign=top;aspect=fixed;imageAspect=0;image=https://upload.wikimedia.org/wikipedia/commons/thumb/a/a3/.NET_Logo.svg/456px-.NET_Logo.svg.png;" vertex="1" parent="1">
          <mxGeometry x="125" y="337.35" width="30" height="30" as="geometry" />
        </mxCell>
        <mxCell id="ZrJRJ42UMuMNObL904E1-33" value="FDMR &lt;br&gt;payment file" style="shape=image;html=1;verticalAlign=top;verticalLabelPosition=bottom;labelBackgroundColor=#ffffff;imageAspect=0;aspect=fixed;image=https://cdn0.iconfinder.com/data/icons/feather/96/591262-file-128.png" vertex="1" parent="1">
          <mxGeometry x="310" y="329.35" width="30" height="30" as="geometry" />
        </mxCell>
        <mxCell id="ZrJRJ42UMuMNObL904E1-35" value="" style="outlineConnect=0;fontColor=#232F3E;gradientColor=none;fillColor=#116D5B;strokeColor=none;dashed=0;verticalLabelPosition=bottom;verticalAlign=top;align=center;html=1;fontSize=12;fontStyle=0;aspect=fixed;shape=mxgraph.aws4.transfer_for_ftp_resource;" vertex="1" parent="1">
          <mxGeometry x="285" y="133.56" width="30" height="30.79" as="geometry" />
        </mxCell>
        <mxCell id="ZrJRJ42UMuMNObL904E1-38" value="" style="outlineConnect=0;fontColor=#232F3E;gradientColor=none;fillColor=#116D5B;strokeColor=none;dashed=0;verticalLabelPosition=bottom;verticalAlign=top;align=center;html=1;fontSize=12;fontStyle=0;aspect=fixed;shape=mxgraph.aws4.transfer_for_ftp_resource;" vertex="1" parent="1">
          <mxGeometry x="285" y="208.56" width="30" height="30.79" as="geometry" />
        </mxCell>
        <mxCell id="ZrJRJ42UMuMNObL904E1-39" value="Payment Filter Inbound" style="rounded=1;whiteSpace=wrap;html=1;verticalAlign=top;" vertex="1" parent="1">
          <mxGeometry x="390" y="50" width="140" height="280" as="geometry" />
        </mxCell>
        <mxCell id="ZrJRJ42UMuMNObL904E1-40" value="CS interface" style="rounded=1;whiteSpace=wrap;html=1;verticalAlign=top;" vertex="1" parent="1">
          <mxGeometry x="400" y="110" width="120" height="60" as="geometry" />
        </mxCell>
        <mxCell id="ZrJRJ42UMuMNObL904E1-41" value="" style="aspect=fixed;html=1;points=[];align=center;image;fontSize=12;image=img/lib/azure2/general/Folder_Blank.svg;" vertex="1" parent="1">
          <mxGeometry x="445" y="140" width="30" height="24.35" as="geometry" />
        </mxCell>
        <mxCell id="ZrJRJ42UMuMNObL904E1-42" value="BPS interface" style="rounded=1;whiteSpace=wrap;html=1;verticalAlign=top;" vertex="1" parent="1">
          <mxGeometry x="400" y="185" width="120" height="60" as="geometry" />
        </mxCell>
        <mxCell id="ZrJRJ42UMuMNObL904E1-43" value="" style="aspect=fixed;html=1;points=[];align=center;image;fontSize=12;image=img/lib/azure2/general/Folder_Blank.svg;" vertex="1" parent="1">
          <mxGeometry x="445" y="215" width="30" height="24.35" as="geometry" />
        </mxCell>
        <mxCell id="ZrJRJ42UMuMNObL904E1-44" value="" style="aspect=fixed;perimeter=ellipsePerimeter;html=1;align=center;shadow=0;dashed=0;spacingTop=3;image;image=img/lib/active_directory/generic_server.svg;" vertex="1" parent="1">
          <mxGeometry x="451.6" y="74" width="16.8" height="30" as="geometry" />
        </mxCell>
        <mxCell id="ZrJRJ42UMuMNObL904E1-46" style="edgeStyle=orthogonalEdgeStyle;rounded=0;orthogonalLoop=1;jettySize=auto;html=1;" edge="1" parent="1" source="ZrJRJ42UMuMNObL904E1-24" target="ZrJRJ42UMuMNObL904E1-42">
          <mxGeometry relative="1" as="geometry" />
        </mxCell>
        <mxCell id="ZrJRJ42UMuMNObL904E1-45" style="edgeStyle=orthogonalEdgeStyle;rounded=0;orthogonalLoop=1;jettySize=auto;html=1;" edge="1" parent="1" source="ZrJRJ42UMuMNObL904E1-22" target="ZrJRJ42UMuMNObL904E1-40">
          <mxGeometry relative="1" as="geometry" />
        </mxCell>
        <mxCell id="ZrJRJ42UMuMNObL904E1-67" style="edgeStyle=orthogonalEdgeStyle;rounded=0;orthogonalLoop=1;jettySize=auto;html=1;entryX=0;entryY=0.5;entryDx=0;entryDy=0;" edge="1" parent="1" source="ZrJRJ42UMuMNObL904E1-47" target="ZrJRJ42UMuMNObL904E1-61">
          <mxGeometry relative="1" as="geometry" />
        </mxCell>
        <mxCell id="ZrJRJ42UMuMNObL904E1-47" value="FDMR interface" style="rounded=1;whiteSpace=wrap;html=1;verticalAlign=top;" vertex="1" parent="1">
          <mxGeometry x="400" y="260" width="120" height="60" as="geometry" />
        </mxCell>
        <mxCell id="ZrJRJ42UMuMNObL904E1-48" value="" style="aspect=fixed;html=1;points=[];align=center;image;fontSize=12;image=img/lib/azure2/general/Folder_Blank.svg;" vertex="1" parent="1">
          <mxGeometry x="445" y="290" width="30" height="24.35" as="geometry" />
        </mxCell>
        <mxCell id="ZrJRJ42UMuMNObL904E1-49" style="edgeStyle=orthogonalEdgeStyle;rounded=0;orthogonalLoop=1;jettySize=auto;html=1;entryX=0;entryY=0.5;entryDx=0;entryDy=0;" edge="1" parent="1" source="ZrJRJ42UMuMNObL904E1-33" target="ZrJRJ42UMuMNObL904E1-47">
          <mxGeometry relative="1" as="geometry" />
        </mxCell>
        <mxCell id="ZrJRJ42UMuMNObL904E1-51" value="&lt;font style=&quot;font-size: 11px&quot;&gt;Payment Batch Processor&lt;/font&gt;" style="rounded=1;whiteSpace=wrap;html=1;verticalAlign=top;" vertex="1" parent="1">
          <mxGeometry x="560" y="50" width="750" height="200" as="geometry" />
        </mxCell>
        <mxCell id="ZrJRJ42UMuMNObL904E1-69" value="" style="edgeStyle=orthogonalEdgeStyle;rounded=0;orthogonalLoop=1;jettySize=auto;html=1;entryX=0;entryY=0.5;entryDx=0;entryDy=0;" edge="1" parent="1" source="ZrJRJ42UMuMNObL904E1-52" target="ZrJRJ42UMuMNObL904E1-76">
          <mxGeometry relative="1" as="geometry">
            <mxPoint x="720" y="140" as="targetPoint" />
          </mxGeometry>
        </mxCell>
        <mxCell id="ZrJRJ42UMuMNObL904E1-52" value="CS import file to staging" style="rounded=1;whiteSpace=wrap;html=1;verticalAlign=top;" vertex="1" parent="1">
          <mxGeometry x="570" y="120" width="120" height="40" as="geometry" />
        </mxCell>
        <mxCell id="ZrJRJ42UMuMNObL904E1-60" value="" style="shape=image;verticalLabelPosition=bottom;labelBackgroundColor=#ffffff;verticalAlign=top;aspect=fixed;imageAspect=0;image=https://cdn.freelogovectors.net/wp-content/uploads/2019/02/sql-server-logo.png;" vertex="1" parent="1">
          <mxGeometry x="910" y="76.74000000000001" width="30" height="24.52" as="geometry" />
        </mxCell>
        <mxCell id="ZrJRJ42UMuMNObL904E1-71" value="" style="edgeStyle=orthogonalEdgeStyle;rounded=0;orthogonalLoop=1;jettySize=auto;html=1;" edge="1" parent="1" source="ZrJRJ42UMuMNObL904E1-61" target="ZrJRJ42UMuMNObL904E1-70">
          <mxGeometry relative="1" as="geometry" />
        </mxCell>
        <mxCell id="ZrJRJ42UMuMNObL904E1-61" value="BPS import file to staging" style="rounded=1;whiteSpace=wrap;html=1;verticalAlign=top;" vertex="1" parent="1">
          <mxGeometry x="570" y="195" width="120" height="40" as="geometry" />
        </mxCell>
        <mxCell id="ZrJRJ42UMuMNObL904E1-63" value="" style="shape=image;html=1;verticalAlign=top;verticalLabelPosition=bottom;labelBackgroundColor=#ffffff;imageAspect=0;aspect=fixed;image=https://cdn2.iconfinder.com/data/icons/new-year-resolutions/64/resolutions-03-128.png" vertex="1" parent="1">
          <mxGeometry x="670" y="104" width="30" height="30" as="geometry" />
        </mxCell>
        <mxCell id="ZrJRJ42UMuMNObL904E1-64" value="" style="shape=image;html=1;verticalAlign=top;verticalLabelPosition=bottom;labelBackgroundColor=#ffffff;imageAspect=0;aspect=fixed;image=https://cdn2.iconfinder.com/data/icons/new-year-resolutions/64/resolutions-03-128.png" vertex="1" parent="1">
          <mxGeometry x="670" y="178.56" width="30" height="30" as="geometry" />
        </mxCell>
        <mxCell id="ZrJRJ42UMuMNObL904E1-66" style="edgeStyle=orthogonalEdgeStyle;rounded=0;orthogonalLoop=1;jettySize=auto;html=1;entryX=0;entryY=0.5;entryDx=0;entryDy=0;" edge="1" parent="1" source="ZrJRJ42UMuMNObL904E1-42" target="ZrJRJ42UMuMNObL904E1-61">
          <mxGeometry relative="1" as="geometry" />
        </mxCell>
        <mxCell id="ZrJRJ42UMuMNObL904E1-65" style="edgeStyle=orthogonalEdgeStyle;rounded=0;orthogonalLoop=1;jettySize=auto;html=1;" edge="1" parent="1" source="ZrJRJ42UMuMNObL904E1-40" target="ZrJRJ42UMuMNObL904E1-52">
          <mxGeometry relative="1" as="geometry" />
        </mxCell>
        <mxCell id="ZrJRJ42UMuMNObL904E1-75" value="" style="edgeStyle=orthogonalEdgeStyle;rounded=0;orthogonalLoop=1;jettySize=auto;html=1;fontSize=11;" edge="1" parent="1" source="ZrJRJ42UMuMNObL904E1-70" target="ZrJRJ42UMuMNObL904E1-74">
          <mxGeometry relative="1" as="geometry" />
        </mxCell>
        <mxCell id="ZrJRJ42UMuMNObL904E1-70" value="Reset payment request to 1 if withdrawn claim" style="rounded=1;whiteSpace=wrap;html=1;verticalAlign=middle;fontSize=11;" vertex="1" parent="1">
          <mxGeometry x="720" y="195" width="120" height="40" as="geometry" />
        </mxCell>
        <mxCell id="ZrJRJ42UMuMNObL904E1-81" value="" style="edgeStyle=orthogonalEdgeStyle;rounded=0;orthogonalLoop=1;jettySize=auto;html=1;fontSize=11;" edge="1" parent="1" source="ZrJRJ42UMuMNObL904E1-74" target="ZrJRJ42UMuMNObL904E1-80">
          <mxGeometry relative="1" as="geometry" />
        </mxCell>
        <mxCell id="ZrJRJ42UMuMNObL904E1-74" value="BPS Validate invoices" style="rounded=1;whiteSpace=wrap;html=1;verticalAlign=middle;fontSize=12;" vertex="1" parent="1">
          <mxGeometry x="870" y="195" width="120" height="40" as="geometry" />
        </mxCell>
        <mxCell id="ZrJRJ42UMuMNObL904E1-79" value="" style="edgeStyle=orthogonalEdgeStyle;rounded=0;orthogonalLoop=1;jettySize=auto;html=1;fontSize=11;" edge="1" parent="1" source="ZrJRJ42UMuMNObL904E1-76" target="ZrJRJ42UMuMNObL904E1-78">
          <mxGeometry relative="1" as="geometry" />
        </mxCell>
        <mxCell id="ZrJRJ42UMuMNObL904E1-76" value="CS validate invoices" style="rounded=1;whiteSpace=wrap;html=1;verticalAlign=middle;" vertex="1" parent="1">
          <mxGeometry x="870" y="120" width="120" height="40" as="geometry" />
        </mxCell>
        <mxCell id="ZrJRJ42UMuMNObL904E1-84" value="" style="edgeStyle=orthogonalEdgeStyle;rounded=0;orthogonalLoop=1;jettySize=auto;html=1;fontSize=12;" edge="1" parent="1" source="ZrJRJ42UMuMNObL904E1-78" target="ZrJRJ42UMuMNObL904E1-83">
          <mxGeometry relative="1" as="geometry" />
        </mxCell>
        <mxCell id="ZrJRJ42UMuMNObL904E1-78" value="CS Load to working" style="rounded=1;whiteSpace=wrap;html=1;verticalAlign=middle;" vertex="1" parent="1">
          <mxGeometry x="1020" y="120" width="120" height="40" as="geometry" />
        </mxCell>
        <mxCell id="ZrJRJ42UMuMNObL904E1-86" value="" style="edgeStyle=orthogonalEdgeStyle;rounded=0;orthogonalLoop=1;jettySize=auto;html=1;fontSize=12;" edge="1" parent="1" source="ZrJRJ42UMuMNObL904E1-80" target="ZrJRJ42UMuMNObL904E1-85">
          <mxGeometry relative="1" as="geometry" />
        </mxCell>
        <mxCell id="ZrJRJ42UMuMNObL904E1-80" value="&lt;font style=&quot;font-size: 12px&quot;&gt;BPS Load to working&lt;/font&gt;" style="rounded=1;whiteSpace=wrap;html=1;verticalAlign=middle;fontSize=12;" vertex="1" parent="1">
          <mxGeometry x="1020" y="195" width="120" height="40" as="geometry" />
        </mxCell>
        <mxCell id="ZrJRJ42UMuMNObL904E1-83" value="CS build XML invoice" style="rounded=1;whiteSpace=wrap;html=1;verticalAlign=middle;" vertex="1" parent="1">
          <mxGeometry x="1170" y="120" width="120" height="40" as="geometry" />
        </mxCell>
        <mxCell id="ZrJRJ42UMuMNObL904E1-85" value="&lt;font style=&quot;font-size: 12px&quot;&gt;BPS build XML invoice&lt;/font&gt;" style="rounded=1;whiteSpace=wrap;html=1;verticalAlign=middle;fontSize=12;" vertex="1" parent="1">
          <mxGeometry x="1170" y="195" width="120" height="40" as="geometry" />
        </mxCell>
        <mxCell id="ZrJRJ42UMuMNObL904E1-88" value="Payment Processor" style="rounded=1;whiteSpace=wrap;html=1;verticalAlign=top;" vertex="1" parent="1">
          <mxGeometry x="1350" y="49.27" width="140" height="210.73" as="geometry" />
        </mxCell>
        <mxCell id="ZrJRJ42UMuMNObL904E1-89" value="" style="shape=image;verticalLabelPosition=bottom;labelBackgroundColor=#ffffff;verticalAlign=top;aspect=fixed;imageAspect=0;image=https://www.alliedc.com/wp-content/uploads/2017/07/biztalk-logo.png;" vertex="1" parent="1">
          <mxGeometry x="1390" y="73.24000000000001" width="60" height="31.52" as="geometry" />
        </mxCell>
        <mxCell id="ZrJRJ42UMuMNObL904E1-90" value="CS orchestration" style="rounded=1;whiteSpace=wrap;html=1;verticalAlign=top;" vertex="1" parent="1">
          <mxGeometry x="1360" y="110" width="120" height="60" as="geometry" />
        </mxCell>
        <mxCell id="ZrJRJ42UMuMNObL904E1-91" value="BPS orchestration" style="rounded=1;whiteSpace=wrap;html=1;verticalAlign=top;" vertex="1" parent="1">
          <mxGeometry x="1360" y="185" width="120" height="60" as="geometry" />
        </mxCell>
        <mxCell id="ZrJRJ42UMuMNObL904E1-92" value="" style="shape=message;html=1;whiteSpace=wrap;html=1;outlineConnect=0;fontSize=12;verticalAlign=middle;aspect=fixed;" vertex="1" parent="1">
          <mxGeometry x="1405" y="138.95" width="30" height="20" as="geometry" />
        </mxCell>
        <mxCell id="ZrJRJ42UMuMNObL904E1-93" value="" style="shape=message;html=1;whiteSpace=wrap;html=1;outlineConnect=0;fontSize=12;verticalAlign=middle;aspect=fixed;" vertex="1" parent="1">
          <mxGeometry x="1405" y="213.95" width="30" height="20" as="geometry" />
        </mxCell>
        <mxCell id="ZrJRJ42UMuMNObL904E1-94" style="edgeStyle=orthogonalEdgeStyle;rounded=0;orthogonalLoop=1;jettySize=auto;html=1;entryX=0;entryY=0.5;entryDx=0;entryDy=0;fontSize=12;" edge="1" parent="1" source="ZrJRJ42UMuMNObL904E1-83" target="ZrJRJ42UMuMNObL904E1-90">
          <mxGeometry relative="1" as="geometry" />
        </mxCell>
        <mxCell id="ZrJRJ42UMuMNObL904E1-95" style="edgeStyle=orthogonalEdgeStyle;rounded=0;orthogonalLoop=1;jettySize=auto;html=1;fontSize=12;" edge="1" parent="1" source="ZrJRJ42UMuMNObL904E1-85" target="ZrJRJ42UMuMNObL904E1-91">
          <mxGeometry relative="1" as="geometry" />
        </mxCell>
        <mxCell id="ZrJRJ42UMuMNObL904E1-174" value="&lt;font style=&quot;font-size: 11px&quot;&gt;Payment Batch Processor&lt;/font&gt;" style="rounded=1;whiteSpace=wrap;html=1;verticalAlign=top;" vertex="1" parent="1">
          <mxGeometry x="1520" y="46.08" width="160" height="267.83" as="geometry" />
        </mxCell>
        <mxCell id="ZrJRJ42UMuMNObL904E1-176" value="CS build AP file" style="rounded=1;whiteSpace=wrap;html=1;verticalAlign=middle;" vertex="1" parent="1">
          <mxGeometry x="1540" y="103.91" width="120" height="40" as="geometry" />
        </mxCell>
        <mxCell id="ZrJRJ42UMuMNObL904E1-199" style="edgeStyle=orthogonalEdgeStyle;rounded=0;orthogonalLoop=1;jettySize=auto;html=1;entryX=0;entryY=0.5;entryDx=0;entryDy=0;fontSize=10;" edge="1" parent="1" source="ZrJRJ42UMuMNObL904E1-177" target="ZrJRJ42UMuMNObL904E1-191">
          <mxGeometry relative="1" as="geometry" />
        </mxCell>
        <mxCell id="ZrJRJ42UMuMNObL904E1-177" value="CS build AR file" style="rounded=1;whiteSpace=wrap;html=1;verticalAlign=middle;" vertex="1" parent="1">
          <mxGeometry x="1540" y="157.47" width="120" height="40" as="geometry" />
        </mxCell>
        <mxCell id="ZrJRJ42UMuMNObL904E1-200" style="edgeStyle=orthogonalEdgeStyle;rounded=0;orthogonalLoop=1;jettySize=auto;html=1;entryX=0;entryY=0.5;entryDx=0;entryDy=0;fontSize=10;" edge="1" parent="1" source="ZrJRJ42UMuMNObL904E1-178" target="ZrJRJ42UMuMNObL904E1-193">
          <mxGeometry relative="1" as="geometry" />
        </mxCell>
        <mxCell id="ZrJRJ42UMuMNObL904E1-178" value="BPS build AP file&lt;span style=&quot;color: rgba(0 , 0 , 0 , 0) ; font-family: monospace ; font-size: 0px&quot;&gt;%3CmxGraphModel%3E%3Croot%3E%3CmxCell%20id%3D%220%22%2F%3E%3CmxCell%20id%3D%221%22%20parent%3D%220%22%2F%3E%3CmxCell%20id%3D%222%22%20value%3D%22CS%20build%20AP%20file%22%20style%3D%22rounded%3D1%3BwhiteSpace%3Dwrap%3Bhtml%3D1%3BverticalAlign%3Dmiddle%3B%22%20vertex%3D%221%22%20parent%3D%221%22%3E%3CmxGeometry%20x%3D%221534%22%20y%3D%2285%22%20width%3D%22120%22%20height%3D%2240%22%20as%3D%22geometry%22%2F%3E%3C%2FmxCell%3E%3C%2Froot%3E%3C%2FmxGraphModel%3E&lt;/span&gt;" style="rounded=1;whiteSpace=wrap;html=1;verticalAlign=middle;" vertex="1" parent="1">
          <mxGeometry x="1540" y="208.91" width="120" height="40" as="geometry" />
        </mxCell>
        <mxCell id="ZrJRJ42UMuMNObL904E1-179" value="BPS build AR file" style="rounded=1;whiteSpace=wrap;html=1;verticalAlign=middle;" vertex="1" parent="1">
          <mxGeometry x="1540" y="263.91" width="120" height="40" as="geometry" />
        </mxCell>
        <mxCell id="ZrJRJ42UMuMNObL904E1-183" style="edgeStyle=orthogonalEdgeStyle;rounded=0;orthogonalLoop=1;jettySize=auto;html=1;entryX=0;entryY=0.5;entryDx=0;entryDy=0;fontSize=10;" edge="1" parent="1" source="ZrJRJ42UMuMNObL904E1-90" target="ZrJRJ42UMuMNObL904E1-177">
          <mxGeometry relative="1" as="geometry" />
        </mxCell>
        <mxCell id="ZrJRJ42UMuMNObL904E1-182" style="edgeStyle=orthogonalEdgeStyle;rounded=0;orthogonalLoop=1;jettySize=auto;html=1;entryX=0;entryY=0.5;entryDx=0;entryDy=0;fontSize=10;" edge="1" parent="1" source="ZrJRJ42UMuMNObL904E1-90" target="ZrJRJ42UMuMNObL904E1-176">
          <mxGeometry relative="1" as="geometry" />
        </mxCell>
        <mxCell id="ZrJRJ42UMuMNObL904E1-185" style="edgeStyle=orthogonalEdgeStyle;rounded=0;orthogonalLoop=1;jettySize=auto;html=1;entryX=0;entryY=0.5;entryDx=0;entryDy=0;fontSize=10;" edge="1" parent="1" source="ZrJRJ42UMuMNObL904E1-91" target="ZrJRJ42UMuMNObL904E1-179">
          <mxGeometry relative="1" as="geometry" />
        </mxCell>
        <mxCell id="ZrJRJ42UMuMNObL904E1-184" style="edgeStyle=orthogonalEdgeStyle;rounded=0;orthogonalLoop=1;jettySize=auto;html=1;fontSize=10;" edge="1" parent="1" source="ZrJRJ42UMuMNObL904E1-91" target="ZrJRJ42UMuMNObL904E1-178">
          <mxGeometry relative="1" as="geometry" />
        </mxCell>
        <mxCell id="ZrJRJ42UMuMNObL904E1-186" value="" style="shape=image;html=1;verticalAlign=top;verticalLabelPosition=bottom;labelBackgroundColor=#ffffff;imageAspect=0;aspect=fixed;image=https://cdn2.iconfinder.com/data/icons/new-year-resolutions/64/resolutions-03-128.png" vertex="1" parent="1">
          <mxGeometry x="1640" y="90" width="30" height="30" as="geometry" />
        </mxCell>
        <mxCell id="ZrJRJ42UMuMNObL904E1-187" value="" style="shape=image;html=1;verticalAlign=top;verticalLabelPosition=bottom;labelBackgroundColor=#ffffff;imageAspect=0;aspect=fixed;image=https://cdn2.iconfinder.com/data/icons/new-year-resolutions/64/resolutions-03-128.png" vertex="1" parent="1">
          <mxGeometry x="1640" y="143.91" width="30" height="30" as="geometry" />
        </mxCell>
        <mxCell id="ZrJRJ42UMuMNObL904E1-188" value="" style="shape=image;html=1;verticalAlign=top;verticalLabelPosition=bottom;labelBackgroundColor=#ffffff;imageAspect=0;aspect=fixed;image=https://cdn2.iconfinder.com/data/icons/new-year-resolutions/64/resolutions-03-128.png" vertex="1" parent="1">
          <mxGeometry x="1640" y="195" width="30" height="30" as="geometry" />
        </mxCell>
        <mxCell id="ZrJRJ42UMuMNObL904E1-189" value="" style="shape=image;html=1;verticalAlign=top;verticalLabelPosition=bottom;labelBackgroundColor=#ffffff;imageAspect=0;aspect=fixed;image=https://cdn2.iconfinder.com/data/icons/new-year-resolutions/64/resolutions-03-128.png" vertex="1" parent="1">
          <mxGeometry x="1640" y="250" width="30" height="30" as="geometry" />
        </mxCell>
        <mxCell id="ZrJRJ42UMuMNObL904E1-190" value="&lt;font style=&quot;font-size: 10px&quot;&gt;Transformation Layer Inbound&lt;/font&gt;" style="rounded=1;whiteSpace=wrap;html=1;verticalAlign=top;" vertex="1" parent="1">
          <mxGeometry x="1720" y="46.08" width="140" height="203.92" as="geometry" />
        </mxCell>
        <mxCell id="ZrJRJ42UMuMNObL904E1-224" style="edgeStyle=orthogonalEdgeStyle;rounded=0;orthogonalLoop=1;jettySize=auto;html=1;entryX=0;entryY=0.5;entryDx=0;entryDy=0;fontSize=12;" edge="1" parent="1" source="ZrJRJ42UMuMNObL904E1-191" target="ZrJRJ42UMuMNObL904E1-222">
          <mxGeometry relative="1" as="geometry" />
        </mxCell>
        <mxCell id="ZrJRJ42UMuMNObL904E1-191" value="CS interface" style="rounded=1;whiteSpace=wrap;html=1;verticalAlign=top;" vertex="1" parent="1">
          <mxGeometry x="1730" y="106.08" width="120" height="60" as="geometry" />
        </mxCell>
        <mxCell id="ZrJRJ42UMuMNObL904E1-192" value="" style="aspect=fixed;html=1;points=[];align=center;image;fontSize=12;image=img/lib/azure2/general/Folder_Blank.svg;" vertex="1" parent="1">
          <mxGeometry x="1775" y="136.07999999999998" width="30" height="24.35" as="geometry" />
        </mxCell>
        <mxCell id="ZrJRJ42UMuMNObL904E1-225" style="edgeStyle=orthogonalEdgeStyle;rounded=0;orthogonalLoop=1;jettySize=auto;html=1;entryX=0;entryY=0.5;entryDx=0;entryDy=0;fontSize=12;" edge="1" parent="1" source="ZrJRJ42UMuMNObL904E1-193" target="ZrJRJ42UMuMNObL904E1-222">
          <mxGeometry relative="1" as="geometry" />
        </mxCell>
        <mxCell id="ZrJRJ42UMuMNObL904E1-193" value="BPS interface" style="rounded=1;whiteSpace=wrap;html=1;verticalAlign=top;" vertex="1" parent="1">
          <mxGeometry x="1730" y="181.07999999999998" width="120" height="60" as="geometry" />
        </mxCell>
        <mxCell id="ZrJRJ42UMuMNObL904E1-194" value="" style="aspect=fixed;html=1;points=[];align=center;image;fontSize=12;image=img/lib/azure2/general/Folder_Blank.svg;" vertex="1" parent="1">
          <mxGeometry x="1775" y="211.07999999999998" width="30" height="24.35" as="geometry" />
        </mxCell>
        <mxCell id="ZrJRJ42UMuMNObL904E1-195" value="" style="aspect=fixed;perimeter=ellipsePerimeter;html=1;align=center;shadow=0;dashed=0;spacingTop=3;image;image=img/lib/active_directory/generic_server.svg;" vertex="1" parent="1">
          <mxGeometry x="1781.6" y="70.08" width="16.8" height="30" as="geometry" />
        </mxCell>
        <mxCell id="ZrJRJ42UMuMNObL904E1-198" style="edgeStyle=orthogonalEdgeStyle;rounded=0;orthogonalLoop=1;jettySize=auto;html=1;fontSize=10;" edge="1" parent="1" source="ZrJRJ42UMuMNObL904E1-176" target="ZrJRJ42UMuMNObL904E1-191">
          <mxGeometry relative="1" as="geometry" />
        </mxCell>
        <mxCell id="ZrJRJ42UMuMNObL904E1-201" style="edgeStyle=orthogonalEdgeStyle;rounded=0;orthogonalLoop=1;jettySize=auto;html=1;entryX=0;entryY=0.5;entryDx=0;entryDy=0;fontSize=10;" edge="1" parent="1" source="ZrJRJ42UMuMNObL904E1-179" target="ZrJRJ42UMuMNObL904E1-193">
          <mxGeometry relative="1" as="geometry" />
        </mxCell>
        <mxCell id="ZrJRJ42UMuMNObL904E1-228" value="" style="edgeStyle=orthogonalEdgeStyle;rounded=0;orthogonalLoop=1;jettySize=auto;html=1;fontSize=12;" edge="1" parent="1" source="ZrJRJ42UMuMNObL904E1-222" target="ZrJRJ42UMuMNObL904E1-227">
          <mxGeometry relative="1" as="geometry" />
        </mxCell>
        <mxCell id="ZrJRJ42UMuMNObL904E1-222" value="Transformation Layer" style="rounded=1;whiteSpace=wrap;html=1;verticalAlign=top;" vertex="1" parent="1">
          <mxGeometry x="1920" y="143.91" width="120" height="60" as="geometry" />
        </mxCell>
        <mxCell id="ZrJRJ42UMuMNObL904E1-205" value="" style="shape=image;verticalLabelPosition=bottom;labelBackgroundColor=#ffffff;verticalAlign=top;aspect=fixed;imageAspect=0;image=https://cdn.freelogovectors.net/wp-content/uploads/2019/02/sql-server-logo.png;" vertex="1" parent="1">
          <mxGeometry x="1965" y="170" width="30" height="24.52" as="geometry" />
        </mxCell>
        <mxCell id="ZrJRJ42UMuMNObL904E1-227" value="Dynamics AX" style="rounded=1;whiteSpace=wrap;html=1;verticalAlign=top;" vertex="1" parent="1">
          <mxGeometry x="2080" y="143.91" width="120" height="60" as="geometry" />
        </mxCell>
        <mxCell id="ZrJRJ42UMuMNObL904E1-226" value="" style="shape=image;verticalLabelPosition=bottom;labelBackgroundColor=#ffffff;verticalAlign=top;aspect=fixed;imageAspect=0;image=data:image/png,iVBORw0KGgoAAAANSUhEUgAAAfkAAAH3CAYAAAC4vCaUAAAgAElEQVR4Aey9+28cV5bnOUABBggQCAQCgUQEIhEZiYwkKbnsql4X5CLoJNKZdL6ZmXyI7YfGsqThSJRkLWXL7XG77HVXQSuVoKnB7GD3h8UOsD/sD2PJogtYtK2Xf5iuh8suDLa7LMndXY/t3d7XX/FdnBNxM4MUKVFSksyMPAQCkS9mRnzvjfuJc+95/AvInyggCogCooAoIArEUoF/EcuzkpMSBUQBUUAUEAVEAQjkpROIAqKAKCAKiAIxVUAgH9OGldMSBUQBUUAUEAUE8tIHRAFRQBQQBUSBmCogkI9pw8ppiQKigCggCogCAnnpA6KAKCAKiAKiQEwVEMjHtGHltEQBUUAUEAVEAYG89AFRQBQQBUQBUSCmCgjkY9qwclqigCggCogCooBAXvqAKCAKiAKigCgQUwUE8jFtWDktUUAUEAVEAVFAIC99QBQQBUQBUUAUiKkCAvmYNqycliggCogCooAoIJCXPiAKiAKigCggCsRUAYF8TBtWTksUEAVEAVFAFBDISx8QBUQBUUAUEAViqoBAPqYNK6clCogCooAoIAoI5KUPiAKigCggCogCMVVAIB/ThpXTEgVEAVFAFBAFBPLSB0QBUUAUEAVEgZgqIJCPacPKaYkCooAoIAqIAgJ56QOigCggCogCokBMFRDIx7Rh5bREAVFAFBAFRAGBvPQBUUAUEAVEAVEgpgoI5GPasHJaooAoIAqIAqKAQF76gCggCogCooAoEFMFBPIxbVg5LVFAFBAFRAFRQCAvfUAUEAVEAVFAFIipAgL5mDasnJYoIAqIAqKAKCCQlz4gCogCooAoIArEVAGBfEwbVk5LFBAFRAFRQBQQyEsfEAVEAVFAFBAFYqqAQD6mDfug0/q//u//70Fvy3uigCggCogCMVFAIB+Thtzuadz79vf4j//zNVz79DrosfyJAqKAKCAKxFcBgXx823bTM/vNV3+LhL0PpfoRnD7zV7hx6xebfk5eFAVEAVFAFBh8BQTyg9+Gj3QGX/327+B6z8H1cxh/pobDR97B1U9u4avffoO73/7xkb5LPiwKiAKigCjQ3woI5Pu7fXp+dGTJN+eOw0pOwrCmYCVn8FL9JBZffRcrb13CZzd/3fPflC8UBUQBUUAU2BsFBPJ7o/ue/SpB/tXD56AnDsDxq3D8FnSrDHesCWesjGMr53Fl7Tbu3PvDnh2j/LAoIAqIAqJAbxQQyPdGx4H5lt98/TtUZ/81XL+ERKoM02vC8BoYtYow0xUG/XTtJFbOXsKVtVu4K7AfmLaVAxUFRAFRYKMCAvmNisT8OUG+ubgKKzUDI1WB4dVgpGvhvgrTKyPhzcBKFVEoL+P06iVcvfYF7t6T9fqYdw05PVFAFIihAgL5GDbqg07py69/h9nFVQa54VVgpKvhpmDfgJlqIJGqwXKrMOwcXiwdwenVf4srn9zAnbsSdvcgfeU9UUAUEAX6SQGBfD+1xi4ci4K8mZ6BTpDPlIONYT8Lw2vCdNsw3Xkk3DasVBOZ8TYSyWnUWss4deYnAvtdaCf5CVFAFBAFeqGAQL4XKg7QdyjIG/dBniz5WRipNozUPEx3gUFvOA1YbgO6nYfp5pCeKDLsj69ewHXxxB+glpdDFQVEgWFUQCA/ZK1OkG8sraIDeTVdT2vzXoMteQJ9YM234YwdhGFXYWeacMdb0OxJjJh/Bnf/DI6cPI+ra7dlvX7I+pCcriggCgyOAgL5wWmrnhzpr7/+HWp/vgojE07XM9wV4AnywWammqBNsyswMy2YXo098DV3BvZEG85EE7pbwAulZZx+6yI+vnYT34gnfk/aSL5EFBAFRIFeKSCQ75WSA/I9XcgXeU1ewTzYNxjmBHTlkKc5RSSfXkDCb8LINJF69jXoqRa+oxeRyCzA8iqwUwX2xD9+5oLAfkD6gRymKCAKDIcCAvnhaOfOWa6HfI2tdZ6aZ8tdQV553Ad7zS1BT1Whu3VoyTqMzBKs7Gsw0gsw03UYySKsdAmaNYlcaRm0Xi+WfUdyeSAKiAKiwJ4pIJDfM+n35ofVmjx51xspNU0fJMRRU/UcO9+Zxg9j6MNpfPK+540c9LwmNLeMRLYRzApkKrCyVYwYB1BtnmTYX7/xy705UflVUUAUEAVEAQjkh6wTdCDvlSOQ767Fd0G/jdfSs9C8OsyJOYy6VYwkZ+BMLMDKNmC4BaT3NXH42Pu4eu2GZM4bsn4mpysKiAL9oYBAvj/aYdeOoueQp6Q5E4vQMy2M2CUYqTosvwUjWcKoOQVvrIoXCkfw1jsXA9h/Kznxd62x5YdEAVFg6BUQyA9ZF/jy62/QWHyb09d2p+u3YbV3puvXf1ZPzUJPN2H4czAzbWhOFZpd5rV6d6wN3Z6G5eaRniihUDoqsB+y/ianKwqIAnurgEB+b/Xf9V/vNeSNdAujdpU97q2xJZjpeehJmq5vwEzWoFlFuGTZO3mGvTc+g1zpKE6fu4Crn0oBnF3vAPKDooAoMFQKCOSHqrmBXkOePO51twkjPQfDa0OnlLjeAhLePDS7xsl0KDWu6dbYC99I5mFnS0hmZ5B76XAA+7WbsmY/ZP1QTlcUEAV2RwGB/O7o3De/0mvIa24NCX8epj8HLUkJc6qcGtfyD4K2EbMEw63DGVuAPTYHwy1Dd4OytpZfhDeRx/RLr+H02Qu4KrDvm34iByIKiALxUEAgH4923PZZ9BrylCCHNj1Vg+7VkQjX5nW3xha+PbYEy1/AqF3m9Xp7fIHL2o7aRVh+DYYzhewzVZjOARSqywz76zcl7G7bDSofFAVEAVHgAQoI5B8gThzf6jnkt4qnp2I3KqY+uqfX1ebVYHk1mO4MLK8EyyvAsCZx7ORFturvSA37OHZBOSdRQBTYRQUE8rsodj/8VG8h301/q9LgdhLpKJBvhH34uq725JxnV5FwG3DHF+D4BP08Ss2TePu9S+Kc1w+dRo5BFBAFBlYBgfzANt3jHfjOQL7cyXXfgX2abgDUFrHeN8Df8pfYUc9w52AkmzBcgnwZhp2Hbk/ihcKhAPZrN3BXYuwfr9Hlv0QBUWBoFRDID1nT9xzykWI2DHg1fd8B/ANAT9P47hwSmSXeqI49gd70mrCzTSTHarAzRWSeqWCycCT0xBfYD1mXldMVBUSBJ1BAIP8E4g3iv/YW8usT4wRT9Rtfe9Bzctib47A72pvskU+OeU1oToVL25rpCjQ7B8vLw/ELKFQjMfZi2Q9iF5RjFgVEgV1UQCC/i2L3w0/1HvJhwZqocx1nx9tY9GYz2Dc5/I7i7DUn8MY33BZ75VNSHWdiCYl0i9PkkmVPsHfHa6DQu0KdPPEv4/rNL/tBVjkGUUAUEAX6UgGBfF82y84dVG8hTyCnanTz4dbmGPlolbqNHvbR+vVUDIfi7PVMDQZlxfNb/HzUrkFzZ2H6C5xQh24CKATP3fcyr9mPmNNIP/syLLeAw8d+hKvXJJnOzvUY+WZRQBQYZAUE8oPceo9x7DsHeYL940C+EkA+HcTZU3gdJdYxM/NBJr1Um+PsE5kFjFoVmN4c7PGD0Kwyh9/542XkSkdw7h3yxL+NO/ekAM5jdAv5F1FAFIipAgL5mDbsVqfVW8jTFPyTTNeHU/gcZrdxOn+z71WvBZ81vRoSmSqsDGXVyzHsV1Yv4Mq1WwL7rTqAvC4KiAJDpYBAfqiau/e56x+p/vwWleye5Dtout+emIc90YY93oCRKiJXXgbB/uqaFMAZsu4tpysKiAIbFBDIbxAk7k97b8lvtMB39zml0iXQUx178u7X3RJMtwgrXUShegSn3xLYx71Py/mJAqLA1goI5LfWJpbvxA3yQanbMiyfvPEPQndp3b4KJ0tlbidheznUW6fx5tuXcP3Wr2PZpnJSooAoIApspYBAfitlYvp6vCDfRHLilaDaXaKMUavEpW2p6h3VsffG56FZOfj76tCtA3jj+EfsnHdXcuLHtHfLaYkCosBGBQTyGxWJ+fO4Qf4pg6rZHYS771X2vNeTNRhuA4ZTg2FX4fhtaIkc7EwF/jNzmCwcxbn3/h0++fkXuPvtn2Le2nJ6ooAoMOwKCOSHrAfEC/INJPctcc16zanDzi5BT5LzXRvJMYqpb0B3CPQtGM4MNCuPZLbB6XJfmj2JM+9cxpW1LyDV7obsIpDTFQWGSAGB/BA1Np1q3CBPdevtsSAVLiXMMdMtULY83WnAdNswvRbXuKfMeZx2161Cc2dgpCq8bj9dWsbK2Uu4eu0W/v4f/48h6w1yuqKAKBB3BQTycW/hDecXN8h3StuuC89T8fQb9ioen4rnUB17rwozWYTlFjE5fQh/+d/8DxxjL7Df0GnkqSggCgysAgL5gW26xzvweEE+Us9eVb/rwH4D4FXSnk6p2wD0drqNhFuDO9aEZk4y7FdWL0pCncfrXvJfooAo0GcKCOT7rEF2+nDiCflIPXsF+w7Mt6hlz9Z8g9fzk/4StMQMbK+GZw+8hlHjOY6xJ9hfv/mrnW4S+X5RQBQQBXZMAYH8jknbn18skFfQJ0u+AXf8FVhUYMdpsDe+blMynRlOpkMx9sdWLuLq2m3cvSee+P3Zo+WoRAFR4EEKCOQfpE4M34sn5KswyDLnLYS4mp6/b68y8gXT9bpDSXPK7Ilv+wuw/XlY6QYXv7G8Ckb0A2zVr75zGZ98Kp74Mbwk5JREgVgrIJCPdfPef3LxgnwjAneC/MMAT+v06yFvuFXY2TbDnWLsNbsCSqaTcJsw3TpSYwtwMjW42RpypaMg2EtO/Pv7lbwiCogC/amAQL4/22XHjip+kFfT77ORinhhydtUZN+x6COQT1dhZWswMxWM2gVo9gwS5IhH0/fuHMzUAnS7BjtDmfOKMJwiUhMB7E+tXsKVNSpt+8cdayv5YlFAFBAFnlQBgfyTKjhg/x87yHfgHfWmj8CdQL/uM+shr7tF6KmZoIrd2Bxo+p7i663MEjS7BdMNYu7t9FyYVKcII5mHlZ5hy55g//Ent/HNXYH9gF0KcriiwFAoIJAfimbunmT8IK+gHd1HgR+doo9+hh4H6/LdvXp/4/83YaYawcbx9UGMfSJVhuHkUaiv4PiZiwHs7/2+K7Y8EgVEAVFgjxUQyO9xA+z2zw8H5BWsd35Plj/lyDfsAnKlEzi++hN8fO0G7n77h91uWvk9UUAUEAXuU0Agf58k8X5BIN9b8LsTS+yoZyRLsP0yHJ9gfwRnzl3A9Zu/iHdnkrMTBUSBvldAIN/3TdTbAxTI9xbyVN7WyrQ55E538jDcaZjuJNyJaSyf/ABX167jrkzh97YTy7eJAqLAthUQyG9bqnh8UCDfW8i7+5dgZeehJynWvgx7rMaOebo9CW+8iEL5CFbOnMeVT27gzj2Zwo/HVSRnIQoMjgIC+cFpq54cqUC+t5D/jp7j2Hsr24aZrvNm+XWQU56ZzEO3p2Clcgz7U6sXJCd+T3qxfIkoIApsVwGB/HaVisnnBPK9hbw1PgfTb8KkmvWpOifToaQ6pkfJdKqwM3U4fg26nYPlTqNQOwGBfUwuJjkNUWAAFBDID0Aj9fIQBfK9hbzu1aAlSzAyTSR8mrZvcCIdK32wU9OevO+tdA1WuoSEW4RmPY8XS8s4dfYCPpcCOL3s3vJdooAosEEBgfwGQeL+VCDfW8ivy5nPSXfmYaQW122UUMdMNWF6NSRSVSQ8yqxXgEUFcE58hCtrt3BXMufF/dKT8xMF9kQBgfyeyL53PyqQ3yHIM+Apu14IefcgDLUx9LugN70qTK+MhFeE61cxOX0Uq+f+La5ckwI4e3dlyC+LAvFUQCAfz3bd8qwE8rsAeQX6qEVPr/GNAP0+FdMh0FehmXm4fh2OV8YPCyfw5tuXBPZb9l55QxQQBR5VAYH8oyo24J8XyO8E5KPV78iaDy16BjvBnTaVQ1/9fpBS187MwU632UnPzTZgZyr44fRRrFABnGtf4K6E3Q34FSeHLwrsrQIC+b3Vf9d/XSCvILtT+/vz3ncK5KhSuGrvNWCmW6CEOrpTRcJtdGDvTcyiQM55b17C1Ws3Bfa7fqXID4oC8VBAIB+Pdtz2WQjkdwru0e+NFL5J09S82iJlcUPQa8kK3O++Asufh2ZXudStbpUxaubhTbRhuQWU6ss4vXoB12/8ctvtLB8UBUQBUYAUEMgPWT8QyEdh/OSPN1anU+vttOZ+/0awD0Cvp5vQ07PQvDr0FL3egplpw/TmYPsHYacXoCfKSNgVpPwaRvU/w/KJH7NV/41M4Q/ZVSunKwo8vgIC+cfXbiD/UyD/5GA3vO53PC7kaQqfIE/x9abfhuZWMWqXGfJGqg3drsNKzcFymzDsMrxsHa5fxA9f+HOsvHUZV9bIE/9PA9kH5aBFAVFg9xQQyO+e1n3xSwL5LqCjsO7t48h0/bqa9Rt+myAfuWEIHnfX9Cm2norfcPY8TplLefGLMNwCXmr91zjzzr/D1bXbEmPfF1eWHIQo0J8KCOT7s1127KgE8htAex9k++z9VB26W+OUuWamxTcFWrLKe2e8jRdeOorTZ8kT/5YUwNmxq0a+WBQYXAUE8oPbdo915AL5PoP4Q24yTFq7DyGf8Nuw/DkGPL2muxVQeVt3vIpC9aTkxH+sK0L+SRSItwIC+Xi3731nJ5AfLMhHoU7AJ9CTRU+Pqeqd5dVgeRWMmpMw7Sm8VBfY39fp5QVRYIgVEMgPWeML5AcL8rxOH5myp0p3vHkNJNIt+M+8BiqA4/gtOJkaF8DREwdQap3EypkLuHHrV0PWw+V0RQFRIKqAQD6qxhA8FsgPFuR5qp6S5pD1TmvyIfDVFP53RnMw7Drs9BxMtw4n3YRN4Xv2NJKZIo6d/AhX125IMp0huLblFEWBzRQQyG+mSoxfE8gPFuQJ6jw1H0KeHivrnt5Ljr2M1L7XMJqowPRaMN0GtMQM0vuXYCaLvF4/XTqC02fP48onN3Dn7h9i3Lvl1EQBUWCjAgL5jYrE/LlAfsAgT455ofVOXvUdy57X5JvQ7AoMtw7bX4CerCHhzXMinVGzCMqLr9tFuNkaTDcHgv3KGYF9zC9xOT1RYJ0CAvl1csT/iUB+ACH/QA98FZOvzqsJ06WCN8GWSLd5vV63CzCTeVheHtOlo/jXZ37Clv03YtnH/6KXMxxqBQTyQ9b8AnkFwzjsKR1uJH0uJ95pgjLmBZCfh2ZVOS8+OelZfgPevjloyWmMWpOot5ZxfPUirn56C3e/lWn8IRsK5HSHRAGB/JA0tDpNgXwc4K7OgSBfjmxBkhyuepdqM+x1l2LrD3Ite06bm2og4VPsfQmaNQXD+X4A+zPncV088dVlIntRIDYKCORj05TbOxGBvAJkHPbKklegJ8jT9D2dW2DR6y4BvQnDbfFGa/pU3tYeP4jkBBXDKSKzr4hR82kcP/UBrq6JVb+9K0k+JQoMhgIC+cFop54dpUA+DnDvnoPp1WB61XBTgFfvN7myneZUYaQasLILMDljXhOaW8NIogjNKcBI5mH7FVh+EZOFo3jrnUsB7KXaXc+uO/kiUWCvFBDI75Xye/S7AnkFwHjsO1XwUg3Q48CK7+5Vdjx6nax4ql9PoCdLnqx92lOJW3rfTJMXfglWqoha62QIe4mx36NLVX5WFOiJAgL5nsg4OF8ikO8CcCMQB/G58qKninXBpmAfeN1r9gzMTAPWWBu6R5AvsRWvUx17t4mnzCrssUOwsq+C1u8pHE+z8hg1p5Aer6BQPorT5JwnCXUG5yKXIxUFIgoI5CNiDMNDgXycIL8+XO4+yJPnvVeDnipDc2ndvsawNzJ1Br2ZmYeZeRlachGjNjnqLSKRWQhK27oVWKkZ2Kk8TPt5FOpHQ0/8G/hGpvGHYaiQc4yJAgL5mDTkdk9DIB8nyNO5dOvP3z8Todbo1X7juZNz3jzDPdgHHvk8dU/T/7zWX8aoNQVnrAwrk+/A/vNbv95ul5PPiQKiwB4qIJDfQ/H34qcF8htBN8zPAw98iqvvbJ2bBtKF6tjX4HBsfQF6agbOvgZGrEkcO3MR/2ntFu79/f++F91YflMUEAW2qYBAfptCxeVjAvlhhvrGc98A+Q7gw/z4NNXvVpDcP49RO4+nzEk4+1pI+BWMWFN4sX4Sq3/573Hl2m3cuffHuFwich6iQKwUEMjHqjkffjIC+Y2gG/bn0el+9VhpUuPEOQT4hF+HM9GElizAytaQenYBo/YUDHsSucIhnFq9iI8/uQFJk/vwa1A+IQrspgIC+d1Uuw9+SyCvACb7+9fwN2pSY898suYpS5493oLmFDGSyLEzn52tI+GW4GXr0K0pvFA4jFOrl3BljSx7SZPbB5e7HIIoAIH8kHUCgfxGkMnzzWEfhODRmnyQBreKUbsIM12H+/QC7LE56MkyrHQDhlNGIlWF49eh29PIvXQ0AnuZxh+yIUZOt88UEMj3WYPs9OEI5AXq66EewpzT4d7/OOG3MWqXuNytM0EJdBoYtYqgsrf0mGrYW5m5IBGPW2foJ1JlGE5Q7e74mUu4Lp74O31Zy/eLAlsqIJDfUpp4viGQF8g/CuTpswT6IFtelR9TfXuCvJWd59cpF36QK58S8TS5rr2RrCDp12G6ebxx/CN8fO2mTOHHc0iRs+pzBQTyfd5AvT48gbxAfnuQ36iTcsqL7hsw0rPdLfTOV0l5EqkajGQRdqbMNexX37mMK9duCOx7fVHL94kCD1BAIP8AceL4lkB+I7yG/fn9U/TdSnZRbaJwV48J8jXoGaqGR9tsJzlPAPomLK8Ox6cqeAWMJg6sg/03EnYXxyFGzqnPFBDI91mD7PThCOSj4JLH6636B+mhwB7dE+Sr4RZCPgJ6msLX7Crnw6fseY5fgztORXDyKLVO4viZC7iy9gUE9jt91cv3D7MCAvkha32B/INAJu9tDf0o3NXjwJIPQB+x5iOg15M1uPuW4IwtQHNK0OwCNLsIwynCyhSRK53E8dVL+HjttuTEH7KxSE53dxQQyO+Ozn3zKwJ5Afl6kCtgb7Xfjl405b/558hpj5z0uHZ9kireLcAeD4vgUMGcTAmWl0OhfiIsgCOw75vBQg4kFgoI5GPRjNs/CYH85jDaClLxf30ruKvXH6aX+hzt7/+smW6CtoQ/B8uf5zX7UbsCzalyWJ7hVqE5Bdh+FYYzhULtCI6vng9L2/5++x1bPikKiAKbKiCQ31SW+L4okL8fRJvBaXhee1D++s3BHWgTWO9BPft58D5S0159RnMr7JRn+i1wDfvULBLji7CyB6E5NWjuLJL7lkCwN1IleE/XoTsHUJ0/zbC/flOq3cV3NJIz2w0FBPK7oXIf/YZAXiC//gYmtMSpEt26AjXKQt9Kr+1BnmrX66kqjEwTDHq3Ds2bhZmh32vD9A9CS9ZhpCgen7zwZ2C4edjpadjeFA4f+whX127jrnji99EoIocySAoI5AeptXpwrAL5raA17K8/yGp/kDbqZuAR/p8d8+g7I//bea0G06txmlwrVUYqW8N04QhOrV7G1bXruHNPpvB7MAzIVwyRAgL5IWpsOlWB/IOAJe+tt/J3QQ+Ce3SLJNRJuA0YdjnInGdPo1A9gtNnf4Ira5RQR2A/ZEOXnO5jKiCQf0zhBvXfBPK7AK5NHNB2HZ6DcgycROf+GPt1WfPsIhy/Cm+silHzz/ACl7YV2A/qGCTHvbsKCOR3V+89/zWBvEC+r244Hgj5JtyxgzBdKngTpMd1/CDkLunn8VJzBadWf4LPbohz3p4PLHIAfauAQL5vm2ZnDkwgL5DvK8h3qt+pdoms03tNrm5HJW0pgY6ZKsLJVuGMUWnbaej2JAxrCm+c/Ck+/oTi66Ws7c6MGvKtg6yAQH6QW+8xjl0gr2Ai+/6Avcqdr9pjPeQpLa6dXUByYgGaO4ORRA5GqggrW4HlV2DRTECyhFzhMGfOu7J2SwrgPMa4IP8SXwUE8vFt203PTCCvYCL7voZ8GNJHZWw1p8Ilbe2JedgTFHpXgeYWYWZqGLXLsMcPcpw9Qf/F6jJOnb0Igf2ml7+8OIQKCOSHrNEF8gL3/oC7aoctLHmCfKoNgjxlyzMI9pQdz63B9JtIZFvslW+PL3FSHQrHM9N1mJkS9OQUChHYS4z9kA1ycrrrFBDIr5Mj/k8E8gousu8H2FNMPG3dY1k/XU8Jc6Lx9Hq6CT09G9noebAFpW7p+6pIeDOwvALD/vTqRVxdu4W79/4Q/wtczlAU2KCAQH6DIHF/KpAXuHeBuvdabA/yXdAroCvQa5kaaAued28QKASP4uwttwTPrzDs3zyrYC8x9nEf5+T8ugoI5LtaDMUjgfzeg62fINu/x9IFdtSSjz4msGt+lTc9BD1b/inKpb+AhEv7Fiy3Bpsse3cKhdJhrJz9CT67+YuhuN7lJEUBgfyQ9QGBvEC+f8EebZuHQ56m5/VMOdyqbM0HkF+E4VJ8/QKMZBtmsg4n04CdKSM1VoTpPodjKx/gytp1/P3f/9OQjQByusOmgEB+yFpcIB8FiTzee+ArmG+vLcxU8LlgT5nyqPhNOdhz/nv6PnLam+ct9d1DGDGL0JM1GM4MdHua4+xNL4fp6hG8+5f/PT5Zuy2wH7JxcJhOVyA/TK3Nuet/h8bSKkyvDCMVdXja3iC791CQ44xXG2wP8gT1+zaVSIdAf1/mPOonTYxYM7CyC7Cy80g98wpXutOcEofi6W4Ruj2FFwqHGfZX1m7jjiTUGbIRMf6nK5CPfxuvO8MvvxbIxwuSg37ToyCv9sH5KIc8tU+kqDJdZHMD6HfbMgzFY+AT9MMtU4P7zBJGrCJGrBKM9Bw0ZxZmeimw9u0q9j37ChyvjMkXT+DU6iUQ7MUTf92wIU8GWAGB/AA33uMcegfy6ZltWPLK0lf7QQeKHH8Xiv2ihYK72m8O+Sjs6TF5zgdT9vR/6lzC6Xs1hQvf4TMAACAASURBVJ8pw/TrGLHzSGTn2LLX3TYSY69Cc+ZgpA7CyixBS5Rg2BWkxuZguUUUyssM++s3f/U4l5j8jyjQVwoI5PuqOXb+YLqQL3LmsGCak8p90gC5cVPToGofWktqmnRdfLMaaGXfhY5o0WstArArwG+m72Z9NHqTGt5MhMl2KOEOJ91JBXnyg9mCMuxUEW8c+yCMr5ec+Ds/Mskv7JQCAvmdUrZPv/d+yEfreW8G+cjUJ1lI6wAfHTw3G3DltV5DTr6v131KzSAEe173p5mCVBVWagYvFI7i3L/5Ga5+ehv3vhXY9+mwJof1AAUE8g8QJ45vdSE/A92rcGpQzhRGnsmdbSPsI88F8pHp4V4DR75vr29ilHNfYNFXYWcqyD7d7MJ+7QtImtw4jozxPSeBfHzbdtMzU5A30gR5gvdsN21oB/IK+BG4q6l8gbxAvrMGHoebkuj0fteDn9b8CfSaVYBu5ZHe14Trl/HD6SM4vXoZH1/7At/c+9Om15i8KAr0kwIC+X5qjV04lvsg762froxmFFtnVSnId/bhOn2sBvw4QEvOYV2/fWD/pJtY6sdhnD3l0e+E6tEafRPuvpdheS3oVhlWqo6k38SomUOhdhLHVy/j6toXUtp2F8Yt+YnHV0Ag//jaDeR/bgr5sKznesBH4d8Ip/Kjln24Vv/AQVSAs33giFa7rxX1ZwK8SqZT7ULebcN02xgxZmCm5mCmFmC4La5tb/nzMNwarHQV0+VlrKxekNK2AzkaDsdBC+SHo507Z3k/5AkuEaBHvY47ryvIR73wBfK7DyW5Eeit5hsseXYsDTUOrwN77BUYLoXbLSKROQgKwdOcOgOfrH7bL8OknPj1FYb95xJ21xlr5EF/KCCQ74922LWjIMg3F9+ESXHy5HjHlvgWkN9o4fOavbLmBfK9BY4AfPf1VJBXfVlFi4TXQ4qA3kTCXwrhPgvTX+BNc0O/lVQFZqrIsDeSORxbOS9W/a6NZvJD21FAIL8dlWL0md98/XcMecsvwkxXYLhVWP4cTK/J+b1pHZI2Pdlga4XjiNdZ9AL53YeR3ADsnObrHe+C34nc9HI9+6DU7bpa9pnwOvBqsLN0vczASBa5CE6udASnzl7ElWs3ZL0+RmPnoJ6KQH5QW+4xj5sgX23+K1heHoZX5Bz2I2YOmj0D25+HlWkz5M1Muwv5qEW/zppXlo9AaOcgJNrujrZRsEcehxEnXK+eytnyVoWeCTYtWYU9Ruv1NIVfhTvWhJnMQzN/gEKd1uvPC+wfc6ySf+uNAgL53ug4MN/y5dd/i8VXTkK3fgDLLyC1bxa2X4HpzsB0g6I1tNZIg5ZmVzgb2DprXiAvIXSxcrbsTs2v800J4R5kgQyn86naHW8z0P2ZoMQtOeBlF9ivRaPc+KkaHL+GhEfXUx62l0OhegTHz5zHx5/cwDd3/zAwY4UcaDwUEMjHox23fRZ37v0ex09/iFQ2B905AN2ehOnlYaVLsDM0QBHgqwz51P5XtoB8xAEvVgO+WM27YzX3kc5RR9P7ZqxUP98IeYL9DAOfLHndrYFmvmjZi26O9WQZVroGd6IBw8nDphsC6weYLBzC8dUL+E/XbuEbqXa37TFLPvhkCgjkn0y/gfzvz27+DVZW/wrl2SMwU1Pw9pV5INLsXGjRV6DZ5aAGd2c9PrR41lk4Ml0/dFCM3U0drbcHa+7rLPnOeUbW7DmmPgR+mOKZwK6uFWdsgZe7dIfAX+HNdGmWrITkWA3uvho0exKF2ZM4fe4Srv78C9yVVLkDOYYO0kEL5AeptXp4rGTRX1m7zrCfrh7FqPln2PfcPJxsjUGfnFjgwWv9wNeMpL4NrZzOYNhH1pkckywpbLsPRNbf193Qbq8/kx9LsLxV45tiPVmDlZlDcnyJfVzIsqc1ezNdx6hdANWwt7JVWONVhv3xsxfxmYTd9XBkk6/aqIBAfqMiQ/Y8gP0NjvGdLJBlX2TQj1p5uPuW1sfQq0GwY81TStztDYbyOdGpL/tAtC9HH6u+Hu4pMU6wzcN01dYGrcMTwBn2FKHi1njTkmS102N6jbY6TL/NJW81t4xRtwxnfx2ZiTyOn3xfwu6GbNzdzdMVyO+m2n38W3fu/YEHmpXVi5h75Rxn8iLnoUSqDNOrgmp4dwfpyNT9fbnso5/bPtgobI++n62iLW8cNrO6tv8b3eOX/xEtwj4QBXv08UMhvxBA32vytUEWPGXB46gUhn0dFsXUZ+ZhpOegJevQ3BoSlC3Pb/NjwyvBSE7B9aeRKx3G8bMXcIXX68U5r4+HyoE7NIH8wDXZzh4wwZ4S5lxZu40z5y7jh4WjsNLTsKigTZJq0NdgplvQUy0YadqqMDMlmBmqaFeGnipDJ8e9VB1mOgplBdbIGifnCg/i8hNkKaWaSLjBcxWvr/a8bLDRSarjKKW+W/YC753qA9G+HH38oN+Lfi5c6qIbWHUzQTfIqRKHsia8Igx3Gi9Wl3H8DMXY35IY+50d6obm2wXyQ9PUj36iyrpfffcyXigtI7WfrJUZjFq0rkhhQw2GOsXbs1WSLiPh12Fl20j4bRgUirfOIlIDYhf0CuwEeQJ8AHmy6An2ah8ZLDeCnr9ffa/sBfKD1QdMvwUjQzfEdb6WRu08TLeIXOkEL6FdXbuFu/fEsn/00Uv+QykgkFdKyH5LBWiQocGGYF+oLfOaveGQ5UFx9RVYfgOJTIO9idnRyF8AFfHQnUYQgtcBvRqAu9nCApArmAfT9bQ0EEzbbzb1HwG+AD6yhKK0lf0g3ejoqRpoo1kvujGm68hIlri8rWHlUCgv483VC3z9Cey3HKLkjQcoIJB/gDjy1noForDPlZY5hae3b4ETgBh2FYl0C4l0G5pdhWYRqKmwB1n00RClyHQlla0N19/VWnyw9t+19Gl54MGbQE1pKPvB6wvkkEfLXmZ6nme9eGYr3YLj01aDnSoiPTaDWjOodvfZjV+uvyjlmSjwEAUE8g8RSN6+X4G79/6Iq5/extl3/z1yLy3DSFbgpJtw/DbX3k64DZheC7ZPNwAbIb9JGB7DvmvdM9Q3xiRv9XydQ+DgDfIC5mFus6BGBAGeKtxRKVvdrvMMmOk2kKDEOlYBtjsDw56CaU/i2ClKk3sTdA3KnyiwHQUE8ttRST6zqQI00Hy89gWOr17GD6ePYNTMwfVbSKSq0O0ZtuzJMlm/Lh88V8U+DAL8ZhvBO0w4wvv7IB/WABfId2ZD5IZh0G4YgvC6oJTtPIzUPBIeJdRZguXNg/xU7MwcDLsEN9uA6RZAle6oAM7quz/ja08y5206NMmLEQUE8hEx5OHjKfDN3T/i409u49TqJUyXlnkwcsfqnOlrffidAn43y9j6wh8E9rCEJ+/VdH5kyj6EffC91XAqf9AGdzleuSGhPtDkMDua7aKqj7y5bS5rayTbMJJN3lLjSzCcMhy/CcurQLNySO1rIkdpct+6xLC/I5b94w1eQ/BfAvkhaOTdOkUaaGgqkWLtXywfQSI1DQoNMr0g1j5YWw9Br9bp07NhZa8aCPgM+Y6jnropUFDswp6d88SKFyt+y5wKqs/0957W5HldnuLtqfJjCHyaurcyC+zXwu9TwSinwmlzLb8FzS7AHqvBsCdRqp/k2bQr176AwH63RrvB+R2B/OC01cAcqQq9O3X2AsPezhQ6sKcBijyJKXkIxdtTFjCN8nx7QUYwckLiGHy1lh/dd+Df3wO3WKnSPo/fB9SN7QP2dDPM8fZVJP06XL8Cw5pi2K+sXsLVT2nNXsLuBmbA3OEDFcjvsMDD/PVR2E+Xl2Gli5w2V7eLsDM0VdmElixzjDCV6CQrnkLvTG8OmkOZxMhxL1irDPYbnfgEJo8PE9GuP7Trzk4FM13RdtkG6CmNrlWG5dWQ9GvQrOdRai7j+Op5XL8lnvjDPP6qcxfIKyVkv2MKKNivrF5AoXQUlpuHS1ONDpW4rcLdT6F2FTxlTrOFT2F4PF2ZPggjtRgB/UbI0yAYHRTlsegxaH0gdDBVjqW8BEWvbfRPifqqdJe1Aq/8OegOFZaqBtfTWAXJsQLeOP4jXP30Fu5+K1b9jg1uA/DFAvkBaKS4HOJG2Bv2ASRSeehU4jZVhDtOscENLvqhWWUkvKAQSNeaF8gLxAcN4g873hDyCu5q34k42QTuEd8VnTJF+i/DGX+Vq99pNjnmFWC4edAyWa50FG//m58J7OMyiD7GeQjkH0M0+ZcnUyCA/Q2cWj2PUvMkTGcSiWSOa9qbyQKS2Rb8Z14G1eXm9LZuCHd21osk1lFrk2LNy4zGoPYBBray2pUFH9kr6G96fk32Xxmxahi1a+ypb48fhBkWzSFvfPLEzzw9i0J9mWF/Ze2m5MR/suFr4P5bID9wTRafA47CngYh28vBdHI8jW/T9GWyAk6sszEHvrJkBPIC903h9zDruY/eV32ZnErV485UfXS9fvNjJqjTpqdmMZIoYdSqIhF65Y8mAm98msYn2Nv+DKic9Km3LoBhf1em8eMzmm59JgL5rbWRd3ZJAQX7lTMXUJo9A9POwc5UeH2REut0y9xGLBw1nTnog7wc/5DfqCjnuo0zVFv5m6jPB+9ryRJoMzJNhr019jJ0dwE61bxPL8FwFzjFtEVJdVIVuBMNJNIFvFg9LLDfpfFtr39GIL/XLbBHv08hNv0WZsOw/+Qmjp85j/afn0OhugzL64bfUSnbTva7B05jbmb1RKyidU5OwWc7ufN51mCz/4++tn6glXXyqDby+NH6g+pLEch3QkUDkK//PvX58D0ublPn0s68Hp+kXPgLML2D0JNzDHnLJ9i3uOiT7pag2XlY2QoS3hTDfuXMeUhO/D0aiHfhZwXyuyByv/0Ewf0vP/gPeHP1Iq5eo1KWv++rQ6Tj+w3XtL+FYyfeg+tPI5HKcSY9yvhFZTm5el26BY3W7f05Ln1LSUPoOWUSo9fIugmmQGkGoAojU4aRmYGRKcLwCzDSMzxLwEVBKN9+ivKFh5XwuMxt9/G61Lz3xe4L2NaDSPR4dD02A/rDdaT+GvRZKs0cvQEIHtM0Pl0LlIdCdytc5S6RIU/8CmzaJ/OwU3kcOvK+gL6vRsHeHYxAvndaDsw3/ear36G9uApvrIZC7QjefOsnuH7zF315/Ndv/hKUVGd2cRUvkmWfKnK63ASV6HSqsPw5aLTmmKzCGlvsrE9qbi3IIMbrnFtAPkPZ+GphHftgsNwa8jTgRgZRdgJUzx8+GD/6oC/fKZo9uA+om9Iu6COfD9f3E9k5PGXmGfLu/oPQ7BmMJCh0lXLhV3izvBJMZwo/vfwf8X/+8//bl+OAHNTjKyCQf3ztBvY/FeSpupWdnkZ6nO7kP8CVa7dxpw+dcWgaX1n2Z9/5GefH9yZmOY8357Any96rQXdroHr2nEkv0+Z9AGZV3jYKe5r6p3S7Qe16nhkg652eh9v9JW4jg6ispQ/5Wnp/9AXVV1U/7t4YhZa8W4e97yDssQVOi0vWvDu+AG98HuTcanl5TL90GDJlP7DD+UMPXCD/UIni9wEFeTdTw4hxAO54Fbp1AC+WTuDU6kV8fuPXfXvSNJV/de02FOypMpfj15HkKl1lUDY9ms63/Xkk/E3WOTsezCqhSDBYE+RpgKTB8n64h6/RlD+9v8mafndw7Y/BX45nGNqh2xe7/Vadt5ploqySlEK6CTvbZsvdSJZgJovQrEkcXn4fVz650Zc39307CA3YgQnkB6zBenG4CvKaSZnnKOFMhS96Wp/z99Xw+rEPGaTf/sM/9eLnduQ7uKZ9CPtCeZkHLJrKp+p3iVQZmpXHqFXgdXa25tU6ujcPo7NFbwJCa79joUfArqDecfwLZgEY9nxToAZW2cvNxW72gS7kg5tPek557Qnw1LfbnCLamVjCqDXD10R6/zys1AxsbwaHj32Iz278akeuT/nS/lFAIN8/bbFrR/Lrr+6gtvgXcDKtYHrba8GdWArj0ksw7Bxai2/j+JmLuH6zf616Eiyw7G+BUuZOv3SIE+sks2WkxhucQY/W7nkqnhPqqDz4lCp3MYR9BPRqgOQ9DdYbQa/gTvsZnu4PPrObA7v8ltxIqD4QgbyKrY8Anirakcc9+a1QJkmbblKTOdBNMYWrCuB3bcjd0x8SyO+p/Hvz47/56huGvGGXYbgNDq8ZMUvstEbZsmg6b/x7B6GZB3B4+SNcXSMP/P5OnMHhd9du4nQIe818jsPvyGrhWHuVUIcL3oSQD0Gvp9sINmUBhVOdm8I+XMtnz/yy1LPvzHwo8Mh+V29C0kGJZp0qO1LNh9CCJ8Cztz0VsLGLcPwqTHsKy6cvDMT1vDcjYzx/VSAfz3Z94Fl9+XUA+aTfZg90MzMP2jQqckEOa6kGRnkqv4lEchql5hm8+TaVsLyNu9/+8YHfvddvEuyvrt3A6dWLKJSPcngQTePTFH7HOYkGQDe06j0F+GDfGSR5sFTrmgpcynKi76ItXKMX0IkT3l70gXDmSd2kdpahQsCT1z1VpyPATxcO4823LuH6TZme3+sxard/XyC/24r3we8R5JuL52C5BKkG9PQsyBLoruXR48AJjeLS7UyZU87SNN+Zty7gxs3+L2EZTOMT7C9wUh3dnuSiHaZbAsUJU6lbw60h4dMafRO6S+dMNz2LvBnuHPRkA2QRdTaeCiXgR53z1A2A7HfVgt0LqPbdb1KfnceoO8dFaih/PVWloyqOdmYOZpKu2xm8cexHYr33wbi7V4cgkN8r5ffwd2m6vqEgn65Cz3Sn/ALQK+A32COXnNho2ttJF/CDqZdx5MRH+ISs+nv9bdWTxGrNnuprv1g/CdOlpDr5ILEOOdSlahhJFHkGI7n/ZV66oOxgdvblDfXsoxXwBOgC9H7oA02MJGpwv/sG74PMdnWOgTfsAuxUAYeXfyzW+x6Otf3w0wL5fmiFXT6GL7++sw7yRsd7/H7Yj5gFeN99BXqSvHOn4fgV6IkDeKl+EqdWL+D6rf52zFPSBmv2N7Cyeh4v1Y/AyeRgeVS0owI7W2frXkuSVz6l/aTiOOSb0IzUsqfp/Sjog9kOgV0/wG5Yj6HJljs5kVrpBRhODW52HpoxybNXK2cu4bM+DodV16bsd1YBgfzO6tuX3x6FPK8rRyBvhI48KhSHS1fyVH6D48+tNA0kDXgTTXhjZRw+/iGuXLs1MOUro7AvVI/wMoQzVuZ69ro9zUVx3H0LHGfPiXWiZW7vg7yAXm5y9vYGw0zNQTNnGPAOLUOlijh24gKufEKJrfp/pq0vB8iYHZRAPmYNup3TIcjPhtP1Xecxcirrbt0p/FnoXASjyaE4nHTDoVAcKgNbDIpclJaxsvoTfHajP1PjbqYJ5eu/unadQ+8I9rr1HPxnKad3HqOJKc6mpzmlIPxuk5zgvKzR8b7f24FeQDuc+rMjqVtD0q/z2jv5zBw/c3nHrfd//uf/Z7NLSl7rUwUE8n3aMDt5WFHId+LIOcRsA+QzNWjkQe63OPe1Zpc7+eKT/gLsTB1WpgTTnUJqrIjXj1Fq3MGx6kljBfs3z/4EhdIhWO4kUhPBDYzj14Lwu2jCGwJ7dOs7Z6zhBN4w3ujQDTrFvuvW83hj+UNcWSM/mZ0Ndb156z/jf/yf/hfc+/Yfd3KIku/uoQIC+R6KOShf1YU8FWehSmuqghVlfQtAr2fIIS/YDJ/AVoPpU83qBZiZFifZIOiPWtOw/DJMd5qnvl8sLfNa/ecDlklLwf70W+dRbp2ElQ6c8xIeVaqj2HiV0rZ7I8RaCeQlfG6P+gD1S+qnh5Y/2hXnus9v/A2WT5zDxMQP8PVv/7dBGe6G/jgF8kPYBdZDPgB8UKYytAKjoE9VoVHaW78JI1Pn9JhGqs4Z8qxMG1a2DT1V5jh0mr63CPapHF499iGufHoLd77dWcui182nQu9Onb3IsKcynEFN+wD265Y3yMKPWvXqMQ/6W63XR8Pv6DFprm6y1F6s8cGxzFUkSnR/f/t1aiOENRK650d9SN1AUkraoD+sj3IJ+hJPz3tVzs9AgC/UjmLl7O7EvhPgXz/2Ljz/ACz7WYF8rweeHfw+gfwOituvXx1A/l1YVI71vkEnMkAR7B9mpVDJV4q3T1Nd9yoMdwa6m0dyfwWl+TM4de4CPr81eAk42EFv7RYI9lTmdrq6Ajdbg01gp1ShnBe8xXXsR+wyzLEF2PuXMGKXQDW8nX2vYMQqBbkHCP6sI1W4o0G6m0yHZ1HceSRcStDTDvbhzEowwxLUtF8fmx+9UYi018PaSt5/eH9+JI0IvmGWudApk9pQzYxF2y+YMVO137ttqiXzMPwZWBMNaKkKnjKL0DNzsCdehWbTjFkd7j56XOblMXesBs38AY6t/Jin5+/sQhirAnzCnYJp5zD35+fw5Vd/26/DmxzXBgUE8hsEGYanBPnG4rtQ6/EPBfkDBj6qbkWQ1706W/q6V4PmzsDwS0g+PQvNncSrVOlq7TruDphVT32BYP/l17/DlbVbWD13mWvaU/U+g2Lr3XrglDg2z3B/yirCzM5DT7VAiUmS330tTDAUWGIE6gDyCvTVsJZ9AHcCfcLtzqxwzn0qf6v8JSQJT48h/aQ3SA+DfAB1Anx0U+1KN8b2vjp0r4inrBz7v9jffRmGP49Rp4WE/woo9n3ELHLmOi0xxbNkwfT87iSk+uzWL9iCN5KTIB+VzL4FzC6eFMgPECgE8gPUWL06VDVd3wvIUzlXquOuUS13yiKXaULnKX6yYotI+EXYfh71eSpj+xNcv7E7g1OvtIp+z917f8LVtS8Y9iVKrJPMQ08WYfo1WONz7LeguVWu3U2hh6NUG+C+sDsFlsAaD6ZguzXso8/XW+/q/9Re3Tio57J/kpvVx/9fage1dduAQc43dZu3LbUzta+WLGHUmYE9sQhKxqS5FM1CgF9kvxc6rkSmCjtTRKl5Em/SNXRzd6JYCPCHjr8Hw3kWqYkadKsILVFkS/6r396JXhryuI8VEMj3cePs1KH1EvKU614ni9atw0i3YPpzAei9GnSvglE7B8PLI5HKwX+6hMPH3sfVazd23At4p7Sj71VT+atvX8Z0/SQ0Z5rPkwZjSpmr2TM8QCdICwKAAn10r1Lkco6CYPqelzwomkGt0W5quSugqH0XLI8PKvmOx9cuunTSfbzxZk1BXe2DG7gGp1W2sgehJes8+0M1JOha0pwKnPE2LL8Cw83h8Imf7or3vLpuFOAzT+eQfqYIK12Cbs9gbP/LqDZX8dVXd9VHZd/nCgjk+7yBduLwegp5r9WBmOmRNUtga0PPEPDbMP1ZWNkGNDuHEeM5WO4UW/WnV88PtFVP7XLn2z/hyqdf4Nx7P0OudBT+M5QlLw9KqpOamIfhVoP12U5CnWgt+yBnPgM9Q2VrZ2BkoqVsN8JegTiEO90wqBuFByynPD681O/JfmsNQ6c5vlEL22vjY7pRY98WtacIljAM02tCc5owvYOws69y9jqaFaN+Y6Qo8+IUCvVlnHr7Ej6/9eVODAWbfidlsXx9+QOMf49mog7AzOSg2UVk9r8KwypjbvE9fPkbseQ3Fa8PXxTI92Gj7PQh9RrylHWLAZ8iq74NzW1BI/j7VN2ujRGrCGd8nrPJWd4MLDcPf6IaC6ue2oqcnxTsp0vLcP0Zzo2v24WO3wM5YbFF71F63EXo3mJQGpSgQJAnwDPkN8KdrMMoaJUFr/bR9+Txeq12Wg8F+U1uzhj2Idg5WmVDfgV2xmzDTC9BTy5g1KxCdxpITiwE10k6jyMn/1t8vHab+9dOjwnq+wnwbxz/CGPP1qA7z8P7fg1PWQd4CUq363DcFqrtVYG8EmwA9gL5AWikXh9iTyFPjmFeC2a6xZYlrSfSRpCn7SmrzGuNo3YJzsQCNIcc1kqgAhoE+3rrJMiqpyl8mgYf5L973/4B1z69xZb9C4UjcP0iomVuA8ubLPB56LRRHXsqDpQpd3MShOGLXWuPQKWATvsAXB3nrXU3ADsNNfl+pX+wV46UQdnhdeGVEbCrKo/dSo9he6baGE3UkXn2CEy3Ad0uITXewGThMI6vXsRnN3e3LsTdb//EJaWf/n4LCY+KNpWgpfIYdYtwnzkE3W7CtOqBJS/T9QMzVAnkB6apenegvYQ8lWulHO9q8ON69LQW7bcZ8ubYQYzy+01oyRqS+5aguxXoVAYzU+N69Yb9PKZLJxEU1Ni9acneKbr+m1TlO1XmthtnH42HDgZ6BkCnCiCF2imgR0KzOq9FIB86dSndZb8XNyAK8hQtETjYcTuwla7at8llnAnw90Hea8LxFzCi5+H6LS7pfHj5fXbu3IsKj2s//wLNxZN8HHQznqBlNm8GxlgLGs3QOW0kMwfRaP4FvhTIr7/o+/iZQL6PG2enDq2XkO8ObqHTUbjeGLVe1g1wPACG1iitV9pluGNNGFaOp7lfP/Y+rly7OfBWPbWdgv2p1UtcFczdV2ELiRz1LF/p1WKnK3K4ssboBihY7jDTi6Ca9kYqrH7XAT1pR/9bCbeN0/l7Abvh/U3q/ypKJQh17N6k0UwNe8vTjI1Lr7f5JpdmvSj01EzXYSaLyEzMQjMP4PiZ/27XrXc1xtA0Pc2omfYUh8pZ/hy0VA0aOZJmZnl5yXAPIpFsCeSVaAOyF8gPSEP18jB7B/muJcMOZJF1yADys9gI+840dAh7O70AzSrDTFaR3jfHznm1hfe5cMxnAxxuF20v5Y1PiXWoGA6VuCWP6QSlAyYHxfQ8LP8g9NQcRq0aEpklOOOH2ClrPeRDwLPOkVS7MmXfmUna7RmNIP49zFSooifI8TRckjGzSzCzi7DHl9g/5TvaFDvWkSOb49d5SSdXOIyVM3tXtvnGrV9geeV9eGN5pMaDevTf0XNIjC8x4DUKi/UOogP5xXfFko9e4H3+WCDf5w20E4fXS8gHcA+BU/dVWgAAIABJREFUw/BRXsYPcTpSU5ruHJLjr8HOLOApLcdOR4lUHk42j0PHfhQbq57asQv7Cwx7052E6VK63Cbf6Gh2DU52Cba/BN1pwUrTwErWfNSTPursFU7/C+T3EPLNTrbC4IYsiKBQkOdIk1QLI2aBQyv3HzjMPinB7NUUjp2gok5UFnZv/FE+u/lLHDt9EU4mB9PNYdSchu0v8AySlmpGIE8zS6Elz5AX7/qdGJt34jsF8juhap9/Z08hzyFCCuy0j8I9+ngz72LKltfm9J0EtfR3/yWcMbLsp9k7narbvdQ8g5XVvxr4cLtol6BiOJRBb2X1Isgb33TJqqvBHZ+D5dWhWRQ+RSmCG5zqltfpKetdinwfFOSrMCnzHk/dD+90+W5b7ht/jzIUqpTEQT4Egnw7cKpMUwjpXFCiOVPjJZpRa4oT27D1Ts51e1jI6bObv8Kryx/A9PIYJQ96vwz/mdfwlE7RMK+yA21nRs5b5KgQchCsLf4Ffv2VQD56TffzY4F8P7fODh1b7yAfifnltfhHWB/mz89CTzZg+Qu858x5ThVUx90Zo6xfZY4VNtzJ2ITbRZuULftrAewL1aOwPIqxn4LtV5F99mW2/AIvegq/I8g3gvTB6kYq03V43Agfeb47Nz4B5FVhIRUmGa7Lp2cxksjDzFS4noPuTMIbL+LVI+/gKhVv2oW889H+Fn1MFvyh5fdBNx0J9g8pwt2/AN2qwHIXYGUotK9blZIiQmimIoD8OYF8VMw+fyyQ7/MG2onD6ynkOw5hyuGI9jTAqv0Wg20IeSpdqyWrsLLzoDA78s53v/sKnjLyIeyDRDpOJo9ac5mdg67fHNzUuJu1Zxf2F/BS/SRGjO9Bt3K8ZmtRiV+lMUE+RWlPo174W+grU/i7MoWvQhk5D4Lq92HfpqUs95l5aMlp2NkinOw0lk9+gM9u/s1m3WDXXrt+6xc4dvI9OON5mH4dhk+Jq2b5OuTlIXsOCXeeEzl1fG2oEA8tG7l11BYF8rvWWD34IYF8D0QctK/oHeQJ5EHcN9/pq4GASqfeV40rYu0oaHkNjFh5uE8v8J5K2Sa/u8Q538nbnIBPNwyU3nPUnOS4+vRYEYeXf4SrazcHOjXuZn2mA/uz51Gg3PhePggzzIQgJ8i7tMRB9QGCfAQPvZkS2O8o7BnyFD6nigipGS3yT6H8B6lpGN4UXnjpEI6f/au+APzhE+8hNZ6DTj4hVFyJ8uWnm7DGFqFZDTiZV6BbDdh0DXbSLIc38alaAPmvZbp+s2u4H18TyPdjq+zwMe0M5NfHdW8X8gmfKrnNsEVBdev1VI3zeatCHTSFT5asQ3HEVM7WnQaVvCSrPqilHS+rnpo+cNC7gRWCfe0E7HQJFoXMpSiPOZX2DWsFMFge1ZJX6/hqaSUcvDs3Xur5g75X/e+DPhOH96JabXXOpJc6V+UvUYaZnoGZycP0pvAGOdd9egPf3Pv9Dl/ZD/56suAJ8KY3CcufhpEpYjRVg+EfDPJauDV2+jSdeTgU7UFRL16YzU/1DwV5WZN/sNh99K5Avo8aY7cOpXeQp8FNQSG6V6+rwe9B++hAGv2c+r7gtY7FFNZjT6TKoCQzrx/7KJZWPfUFSohyde02Tp+9xJW/cqWTSPpVBr5mFWD5Qaw1Od9RXDPBRnOqsPx5cBU8qmfP1j/dGNRg0IDu0Y1UMHBb2XAKNkVOVcGaa+A8prz5NwCMnfxCkKnHHcBF226QHqt+tsm50k2lX2MHR42qDWZoJqXKyZyS+4JlJtM/CDOziFGrystN5DVP1QltL4dc9TBW3j6Pv96lqnEPGj8I8K+f+Ai6S2vwFWipEszsXJBamWfjwuuMZuBoqp7qLVDbqnTLdJ2n6L1wul4s+QfJ3VfvCeT7qjl252B6C/m9G9BpKtEdK6FUX8aZty/gk0+put3eWks70YIE+998/Q0D/9y7P8NkYRn+/lmYyQIXMmEQUWIV3mg6P7D2CfScgVAlX8lQ1bN66JVfYmB1PMI3hXy0bSM3YzQVHTvIq3Ndf56jVH+ANEvXQWC3x2hpqQjNLoclllsM+USG3puDYee5CNMby++x9U6zMnv9R6Vp6XhSExVobp5LQRvZOYwkayHk6QYnyNjHM3CqoBI5eHLK5XJwM59qI5FsoLFIGe9kun6v23W7vy+Q365SMfpcfCBf44pvyUyRB9YXyys4TeF2N38Vo9ZafyrKuifYU/hdcoxqktO0cBnOWAOGW+aUweysF53WD0PwKNNagqoDpmnKn4AWsWQ7DmMq3DECvA7U1WsKioO+V+ez+Z4iPdz9Bzl8kR1D0xT1MQcru8DbqE1T2mTl1pCg4kvpPI6tnEe/OIcqwNPMQmp/DaMUnurPQs80YY4thD41AeQZ9GzJhzM8Avn1F9+APhPID2jDPclhxwnyjt8ETd3bmQqM5BSSfh5Hjr+Hq2u3YueYF21zKiZC50iwL9SWYbjTsKhcrVuAna3D27fA08pcW4Ah1ODaAezjQJZ96NQYZCBUa8kq3wE9D7fYwp1uTtR5h+vOnRkKdeMShC4S0CkroebQjVEYJkeVFq0yV1c0kpTnoILp0iFQVsPP++Qm87Mbf8MWvJk8AP+ZehAul6Hlhir7vpBvR+A4+2iQn52jjHdiyUevx35+LJDv59bZoWOLC+R5zdAl67UGI1lhT3R3jKz7A6i2z4AKxMTZqqfuofLjn3vvMnKlIzyY68kcvjP6fdiZOudVtzJtXqenksCBdz6FQlEmvSAOOqiCR5Xw1KZgH0lu1Fl7Dyx/Chnrho0pKA7anqajqcxvsVvul29q6DwCmNvZl4NUw94CZ2Yk3agam5Ve4MRNhpOHmZwEFZahBEf9MD1P/YIA/+qx96ElnuM+odk5jCRysLNtUH8YtWi5RiC/Q0NsX32tQL6vmmN3DiY+kG9ywg6bC7tQNTxaiy7B29/ipDJOZhqHj32Aq2u0Vr/3a6M72bpR2BfKy3j2Bwe5zC2V9DWcGVCOdSszhwQlNSFQsWNVGxQH3YX7RshHLXoF8Cjk1WuDut8Aebbku4Dn5C/pRc7ImPAWAt3sOuzsAhJpsuQDB7tXj3zQN9Y79bG/vvFLHDr2LihjpJ0lmOdhuDO87KAna3AnljijIjlosk8GL9kEyxWdNXl6bYvperHkd/JK7v13C+R7r2nff2OcIP+UWUTyu/8So3aNp1RpvXnUCtLEUi13SqJD0DvzVvyteup4f/+P/4T/9a//M/7yw/+AF0pH2DHRIGcrm9bta2zFUbpcsuh5yj5N9ewJ9NFNwV2tzVPynfUgV0lgNr4+WM8DxzL2ICfAE9QYeLQmHUQbjJpVmKmFIKTMrnDaYcurYTSRQ6F6EsfPnN/T1LQbB5sbt36JN058iMyz5KsxjRGq7rj/YOAwmCgGsy9uHTZVyLPK90OeZmj4BlAgv1HbQX0ukB/UlnuC444N5NOzSIwv4imrzFW+NIes+RYP1OQMRYOx5ZXgpAuw3Od5SjWw6v/4BOoNxr8S7K/9/DbDvtQ8AdPNw0qXeEkjcM6jfARkyRPkycs6qBjYqRLIsAusdn5tHeRDT+zO1Pb6G4CBAr3yPSCnQwX4TgrXeVjkNU9JYdwqDKcIN0vLQZM4duLH+PiTW/hmjwrLbNYLCfBHTvwIjl8I1t/HarDGFzBCcOcQyybXQ0gQ4BMzcMcOhuccWZMXyG8m7UC/JpAf6OZ7vIOPE+QJUFzvmiFFg1XoGUxZ91INJFJV9sC3/RleO20tvYvTZy9yOBp5qsf9j2DPsfZvUTGcI1xpLJEudBz0jEwAclqfpRh7yldO4WC0kaMZOZzRe3RDQCmIEz5l26PwsRIodjwIpRtUyDe53juVgeWMjVT22J4FrcOT9U7r7oZdheVW2bHOTuXxQuEQjp+50FfWO/VhBXg7TevuJRjpMqwxKpbTjMTCt9mSJ18Ky23wEk5wYyOQj/M4IJCPc+tucW7xgXww1az5NNUcWKMda0yVZ3XryDy9FGSMc8iazcOwD6BQPcGwv37z11uoFK+X6YbmytpNnHrrAl6aPcqlfHVnColMgy09Wq/3v/c6gy2AOyXIUclyyDOfkr0U2TPbnmjDmWhyophBh7zhHcRIog4tOYeE/zLM9FIwG+Q2MGrmkdk/D8Oagpst4NgJSqfcf/4dBPjXl3+EsWcrfBNHa/AUs/8dI8+Ap7K3nbTT6uaXKhxyxsTgJi9oR0rPK9P18bryAYF83Fp0G+cTL8gHzmLkQMZrqmraNQSURuuombmgoptbwfj3X+YpfC0xhWeem8ORE+/h42uUcjTejnmqWwQpc7uwJ+9wd4ymo+sY0fPBOi3F1zthmVu3xZ75PLXPGfNqbMlrbhE6pdod5Cn7VBt29hA0ex62/xp0dx5Gsg3DqcF/dgl2pgzTnuKlnuOnyaej/1IoU/TI4eUP4T9d4WUEd5yWrGb4pszZRzMUlLmOIB+mneYlCQX40MmQXxPHO3WNxG0vkI9bi27jfGIDeRXnTKk3O5AnpzG1vtqEkw08iWkdkkKHRsxpGG41KKtp55D0c8iVjuL46nlcv9V/g/g2mvOxPqJgv7J6GeXWmzCsHFLjVJykBqp8R+u1bOlxiGKdk8FQ6lx7fD6AfLIIa5z8HwgOAzpdn2pDT5LX/FJowc/BzS5g1Mhh1Hiecy6UZpdx5tx5ng5/LKF38J8+vxlY8I5fBC3BUJ6EEXMKqaeXgkRH6VboWBcFPDnUkUPl+uukY8lvIxmOeNfvYKPuwFcL5HdA1H7/yvhAnuBCg1U0zep66JgU6uRUOSacQoYCUC3wXrML0OxJGMlJZPYVcej4h7jKqXGHw6qnfkqw/2TtFnuJv1Rbhmk/DyddBFn4WiKPZHaOM7rRdD0n0qFseX4ACd4PKuD5uMkRjWqnvwzNJifNFpLZBlITNbh+HsdO/jhIlfxt//UHmlU4cuIDuBNlznhopKhOQYlnrCi8j2avRszQmz7qRMlr9JTxLrq8FVmTF8j3+/D9yMcnkH9kyQb/H+IEeRXKFawvhtCPWJeaU2GHMa5b71QxYs2wIxl5Gyeyc7CzTdhjNMWZ57jiQv0oTr89XFY99WiKsyfYU6ghwZ6czDL7g1hwmvmwfSr92+IiLBolH0rTY5quH1ArPoS8ZlWR2vcazGQNDuWod6fZQXFl9Sf47MYv+vJiJ8BT8h3Xn8KonUMi24LmlmH5rTAGnqoV1oO8CBQqqdbewwgKclTVOg6rG9bkBfJ92eZPclAC+SdRb0D/N1aQd9tI8BZkYFPQV9OPNL1MDmNasgR7YpE9jjWvzvWzyUlPoyIdLlVxo8ItJbj7KD3uARw6/n7fFBjZzW4WJNW5gTdXzzPsU+OUDjWIsVc3ShRjb+9/BaZPuc8JEoML+uT4EkaNAkx3BmYqj2Mn3seVa7dwrw+td+oHtKREgPfHp0DpahNjNYy6NSTGqSpehW9ibX+Bb1roxoW96FNhvfswXJIB789Coxz2aYH8bl5fe/FbAvm9UH2PfzM+kA88gSl5B4E+SLWqnIoCRyIqMEKexjS1TKDnkDG/DT1FU85UbGQxCDOigZJq21M8eSYP289jun6US4VSLfC7fTro71RXUpb98dVLqLfPYMR8nnPimwQKt8JWPUFl+4AP2kPdfHWXWDa/QejOzETfV0Dq7lWbb3ocnNyGUvfen8yHbk74hjBZRHq8DtOZwqFjH+KzPnSuU21MgCcPf39/Eab9A1henvv1SLISwDqsSWB6La4Fb1OGQyqcQ5DnZa0gJ4Ky4oPQU1qvJz2D9ulkvCPHVdJvkyp0siavWmQw9gL5wWinnh5lfCBPAAgGfBrsNx3oN7MyNx30QwixA1+Z85mbBPtsAPs3z53H9dvD45inOtw3HHr3BVbOXkb7lb/AdPkoLL/AVq+ZnuEpYpq2p5umhB/E1NPNExV1oVkS029BpzKmfh3WeB26N8PlTilfPNU1J7io2ZfontLwBs+DGRpuZw6LVE5kQUa6jbM4QR+g5YQgvJL2I04R9r4FPhZavqG4f3LITLg1uF4e0y8dxsrqxb4G/I3bv8Qbx3+Eie/N8tISRTdY43OhE12YmTDS16Na0uPOtcFOd+Hn+TroQp5uBATyqufHZy+Qj09bbvtM4gX5yAAWGeQ6g9pDXuPBMAQNWzM8CIbOfJkyRp0paO4knjnQ5opewwh66lh37v0J1G+urH2B1XcuMuzdsRIsn9IJk/d9ja37YN2+Ag5dHKPKbVTDnMLuqPJZGaZfhb2vDjMbOoxtgDzBPbop0G8H8p02D9uQncv8OuxnDuI7Ro6PgWrCU24AzSoh4RSwfPLHPD3fL4VlNruICfBkwVOsvpHM84yTvX8JTyUoGdEj3Nxuei0I5DfTPE6vCeTj1JrbPBeBfPfGoGvxqMFShRiRtVNFcn8bmkO1uKu8Vv/GMpWxvY679/60TbXj9zFaurj66c0O7BM+wZ4s5AKMVIWhT+An4DtjC3AmKEQtiHJQXvp0Q2VlCTDdtqDHbE0S+KNbxxINZm0CsAVwWn+TRt+lPkPvtzFildiCJ6c0uiExvCKcbBW56jJOrV7uu8x1G3vLzdu/YsBn9xVhZwpI+GWe/dBSdU7p3EvI86yKON5tbIKBfy6QH/gmfPQTEMh3wZJwm6AtmO5XgAj36VmMWAVYY0EtbgpXorShs/On8eZbl7D28y9w79vhhf2db/+IK5/exlvvXsYLpWWk99c4XjvhzSA1QfnRqQJeDVT5jJPrpCmEkfIWzAblWzObOe5tAHwIe55liURNdG4OeHlFhVBSuxHcVYa3eU7PS9PzplfFiHEAyWwRi6+ew5VrX/R9AiQC/PLJDzH2dAHe+Ax0KwczXeFiM0FkQ3Cj09Fiww3T9l5X3yFr8o8+kg7GfwjkB6OdenqUAvmNkG8HlbdUGlevHaQDTbeR3P9y4H0/1uQBVrdzXOwl+3QdS6+9gzNvX8bN21/2tH0G7cvuRmD/YukwEu4UTLeA1HgLSb/N8ee8du4twPZfgekuQbep5G0I+fvWibvt04X7JvkQOv4TlAyJIEWQp7X6RRjuQd7rTot/33SLGHu2hpUzP8ZnN3/V9xIT4A+f+AjPTc7B9nKwvAJGjEk443QD0+zUFRBLvu+bcs8PUCC/502w+wcgkO9CJLDko5APrEDK903biEXT0BRLv8DrznpyBla6CjtdRSpbw/cPLOHI8R/jxq3hBj31YpVFjyz7F0tHkEhOcyY9M1lG0p/nCAgt0YCRJNi/BpMgz17cUUewcLlknVUadYqk9MVVtszJOt+6TOwiTJd+k6oRVkCZ606fvdT30/Ok4z/8/p/w5juX8dzUQfag5xvLdIVLxhLURxJlpJ99HaY319M1+XXT9XTDJN71uz8478AvCuR3QNR+/0qBfBTy5OgVma4PPbgV5BNjL8PwKda+yqAn2FO9eg4jc8ucBnZUfw6r534KyiMufyHsr93EyuoFlFtnoCemYNpFtupNmzy4W3AyS9Csegip6DKJmj6OvMZe4NRmNJUfAJ6qCzLkw9jvIFVrN50xrdVz6JidZ+udKvENShjk1Z9/gUI1iGIgXwdrrBlkG+S0zBQSusTLH5Slr+eWvBSoid0lLJCPXZM+/IQE8l3Ik4MXwyCl4usVXIIpey3VxKhLMGqzRU8OZBQeZqab7FhGpUi9iTYXB1l95zL+4R//6eENMCSfYMueYH/mEgqlZTjpEiwK/UqRZd+E4ZATGbVFM7DoO0VUCPSbwL7jmFflEsLUdp06BXwjEEzpm14ZCa+IF0PnukGqNHjj9pd4692fcpgiZWKk8ENaf7fGloLkQ24LNtVjsCgLIS13dPvy4z1WOodr8gL52F2dAvnYNenDT0ggrwbGrmWovLl5oGRgBLCnjGDRLbCc1I1AMANgeXVY3gwai2/iN1//7uENMGSf4Cx6127h9CqlzD0BK0XZ2iZhpYuw/AZbqQaFzvkU9z0HMzPPQNOS4c1VqsUOdKS9Zpf5psz157hyHlmz3rOvY9SaYcve9itIpHI4cuJHuLJ2i5cQBkVuAvyJ0x9Bs34A9+lWEHbI/a/NS0eBvwH5HATLS4+UG2LLmwGB/KD0j8c9ToH84yo3wP8nkN8I+XJnGrjj6EXrkaFDmM45vwPYb4Q8VbfT7CIo/WtzcVUg/4DrIgr7QvUQLO95vjnS7SKsdIPD7SjFMNUXIEvenniZLVgCv5qaTo1TEpsGtESRIW8kmxgxZ+A9s8Qx5I5fwOvLH+DzAVs6uXH71wx4KhlLIX4mhftxv2tDS5N/CGVmDBIAMeTJ4u6EFqr+/Dh7gfwDumws3hLIx6IZH+0kBPJqMAymd400eWerLXDsIucudjxi2HeBr8Df2VPtdbfEHvcE+S+/+rtHa4wh/PTde7/nXAOn37qA6dIhpLIV2OkSQ5oKBlH8PMGeMuZRnDttVEGQnR/JNyLdRppi75M1uNmDcPwWyHv+pfoy+wEMHuB/heUzP+UZDs2ahJWlin8VUBGlwDckBDxDPoCyyu/weFP0qv/TfgPkVZy8ON7F5soUyMemKbd/IgJ5NcgpyEfBvuFxmPObLXwO0wpzoYdrwDQYp/fP85r8yur5gZoe3n6P2ZlPBsVwbuH02Yso1I7ASk/DcCkWfAbu/jlOquNMLHC1wFG7BEqk41CpW7cKzcxzWtqEU2QP/kGcnidVKZzv2Okfwx0rwh2rwEpTudgCrOw89FRrXcx/F8jdpEE7BnmOepDc9TvT83f3WwXyu6t3X/yaQF5BnvZheNaGvVqjZ+euSEIW9TyAPmXBK8Idr2K6dBRX1271RfsO2kEo2K+8RbA/Ad1+HkYqj1EnB8rRzqlwx1swMzUYzgwsj+q9t5BMV1CqneTMdZ/fGLwQRgL8oeUP4T5dx1PmAc4YmH52CSMmZbabC0LkVO4GjvogX5Cwz65LAhTtz4/6eAtLXiA/aJfRlscrkN9Smvi+IZCPDoRdJ7qoVdRJlxpNr3rf4yoMJw/DPoDG4ml89bVM1T/JVUPT+OQsR7AvtU8gub/EtQNMn9boKWyxwJYu5W+n7G9Hlj/izHV37v7hSX52T/5XAV6zn+ebGCrgoyWDaAPK0EfLE5SfgfMIcJKfjYCn5SWV6S/anx/1sUB+TzrALv6oQH4Xxe6XnxLIq4GQBk4a5NrBYKqsJi5DGjg2RYulqMdqPZRjtt1pZPYVcebt8yCLVP6eXAEKvft47QaOr57HdH0Zmf+qhVF7ElpyGtnvLUCzczhx5iKu3xw8653UUYC33ed5acLad5CL+FAZZLLgk/uW8B0tB6p1r0rpqptOBjv5j2TCjWegVH9+nL1A/sl7bH9/g0C+v9tnR45OIB8dDEPQK8CH+2Bwpbz23apoNNDS8wDyTY7VdjJ5vFQ/ik/Wru9IWw3zl9759g+48uktHD97AX9+7D3U5t5EtXkSx8+cxyDFvkfb8K9v/AqvHvkABHjXL3JlPj3TAhWcYUc7qtjn1kFRG1QXvntDGeT0DyAfyfQnkI/KK483UUAgv4kocX9JIB+BfCRUrpOUhUCvpkjdoJQqezunmzBoKpVqpTt1DvtKejmx4nf4giHYf/nb3+G3/+Ueb98M4PQ8SaQAT2lq9WQRZibixMmOnJF+uWVc+0Yfku38z4M+o/p6WBhIedfTNUDXRqYMnWYN/n/23rU3jjPJ830xgAECBBKJRKKQiUxkZqGyeJHbsqfVkJcgSJSrquvOKt7EkdxqyzZBSLIlNSW712vY1rrtFeT16TmL8y1OS5Z65sW4SUqeOei2Lcm7L860Jff29GVnzwf5H0RkJlmiSVEk65JVFQIKSZFVeYnnyfplxBPxj1CwKGHXMDP3Du49eNjmUZfdt8oCAvlWWbKH9iOQj770KLs+yrAP9dMjjz6EvE6he4+8qzJ/KVNpF3laqjvHkCcv/satuz00+nKq3bDAbzZ+h5eXP+AaeJKpVZwKNBL/4XkWzcdubAXy3ZgPnTymQL6T1o7JsQTy0Zfp3pBP+EHNNmXTU09yrt8mmVGStnUKqCy+jXsPvo3JyMppxNECBPhXlt+F7kxCsTNQrAKrKGp+BNhoPnZjG51DKGsrnnwcp9Chzkkgfyjz9eaHBfJNX6bsyRPsQ08+DEtG4Xo9FYBdT1aRIL119uoroTBLBmdXP8XD7/7SmxNBzrrtFogAT1K+ll+A6uRgjsyFSz6UHd80F7vys0C+7ZOgywcQyHd5ALpxeIF80xfrTpAPQ/VRKJW890QqECChreFXobklZKtvSKi+GxO4R44ZAT7hTCDhTrMqXyIVRIQoi56WfQTyPTKYPXyaAvkeHryDnrpAfn+Q545zySo0Wpf3yjB86gw2xaH6r7+RUP1B52E/f44Af+bsu9DsF+E9W+X5otp5mKPzGDJyDHc9RV5001zsys+7ePL0oCuJd30xRQXyfTGM+7sIgfxOX6xh1nJz2J6S7pKktNbg5Dvy3nUnD+p0plqTmP076Tq3v5k3GO/+fONLnF55H0ZqGqozDdUlqJeQPHoKz5AcL0nzenWoNs25neZiJ3+3DfLSarbvJqlAvu+GdO8LEsjv9CUaQf7x9XmGfLIBjUvpKtDdHKyRPMxUBheufAxSaZN/YoHIAhHgzXQGqjMFY5QqMaiuvQ7S3ydNegI7QZ7KMQXykeVk2y4LCOTbZdkY71cgvxfkQ9DzF3GD1fBUqwxaTzX9IjdSyZZXcPP2eoxHWU6t0xZYuxN48JpzHHoyi8RIBTu3KQ4FlQ4tZLPTPN7v78ST7/Q86fTxBPKdtngMjieQ3+mLkMDe3IGOPHsK1wca4kZqjhXuDC8L3TouXnwM5nGcToEAf+bsezw3jFSG28UOmzkulVOSs1CTBNMIqK3sIrfTXN7P76JzCiJZrPTohL+TNfk4TbEDn4tA/sCm690PCuS3vgQjbfDNrnIRwXdJAAAgAElEQVQh6NUUeWFUMjcPzZ0HQV41czD9HLLl13Dz9kbvTgA585ZagAD/6tn3YXqTMFNZmCMVaG7wkEhwp57wPI96AfJRnbwk3rV0jnRzZwL5blq/S8cWyD8B8iThmSwjgrziNGCmT0K1KlCNHLzRPOqLP8N96TjXpdkbr8Ou3fkKr577AKY/zQ+AmpOF5hQDHQWGegR42pKHTHMvlJCNY7g+grzI2sZroh3ibATyhzBer35UIL8d8oHIDYfrw+5eEeTJAzP8JahWDYZThulN4c3VT6XjXK9O/hae9+cb9/Dy2Y/gHCGvPQfNLbB+guZWMWTkYaaXOApEkaCtlrEB5DlyJJBv4WjIrnazgEB+N8v08e8F8k2QJ8/FjSBP7TvzYVOOIFyvpxahmDPQ3TmYXkVC9X18X+zn0tY37uH0ykdIHa1jyMhASwWKiObIAnvxikne+lwI+WjduwnwUf5H3EroxJPfzzToifcK5HtimFp7kgL5J0Ne9fOb4XrNO4Fho4qEN4+EU8KMaNW3djL24N4I8K+tfISxI1mWqaVGM+YPTnKi5t8oGfbgjdQCVLMKPYTmY7kf5MEL5Htw5HvzlAXyvTluhzprgXwT5NmLJ0+e2n7SWnzQWjMqfaJwPXlkBvX2drIcqn/43Z8PZX/5cO9aYP3ufQb8kSN5GM4UqKcBNZoZ5pr3WVijJ7kNseY0OFmTIU8CM25QNrcZpo/klMWT793J0CNnLpDvkYFq5WkK5LcgHzWi4W1yJqxrpm2dX8NmCc6RE1DNaWSrK/jVbWkr28q52Ev7IsAvn7+G0aN1WF4FCYceDkn+dSZsGRv+n37HL5pn4QNk12HePOebf46WEqSffC/Nxf2cq0B+P9bqk/cK5Ju/5KIv5GAbwT2oa65za1lKqDL9PGqLP8O9B7/vk1kgl7EfC2wC/oU6SxsbyQXo7kIPQLx5ru/0s0B+P/OgF98rkO/FUTvkOQvkm7/stkM+Ei4Jf+9WoDoZ7iJWWbwskD/k3OvFj9+5+wBn37iOo8fnecnGGQl05+PRYKZ5Lh/k5y3Ic2mfJN714hR94jkL5J9onv78o0C++cvwSZCvQU8GUra2n8Gbqx9D1uP7857Y7ao2AX9sASbla5gZ7kSopyrQ/UAlrvv6883zeb8/C+R3G/t++b1Avl9Gch/XIZDf6Yswgj196W198SVSZWjONF4qr+CGaNXvY5b1/lv/+G//jrd+/n/h2H84idToPHSrBMXMM9wT1IkwSd3lCPQ7zade+d3WXBdPvvfn7E5XIJDfySp9/juB/E5fwM2Qp59JX7yMhJfHsP63mFlcxT1RuevzO+Pxy/v1P/w/OHn6HRhmDjaVxBkVWGNLMMfmoftFKE6mfyHPCYWVUDOiGOQeuLNI2DXMzL2Dew8ePm4s+V9sLSCQj+3QtO/EBPJNkOdSpubs6MizCSBPXvzIC1WcX6W2slI6175ZGa89r298jSs//z/gJIsw7Ap0mxLuSLmuBsUp42/0CZjj9DDYZ5689JOP10RswdkI5FtgxF7bhUB+O+SbWsuGoXqdSqTcInRnKgjV31rrtWGW8z2gBQjwZ167ynXwhp2HlZqDZtdZ5EZxyLutQx+lxjO9Dni6D6KH2iC/QLrQHXDSxPhjAvkYD067Tk0gvwV51S1D9+tQvSpUdwaqXYORXoBiFaA5GejWi7hw5bp48e2ajDHb79r6Vziz/BF78LqZ434FCTeoIQ8Ek5qjPsGyTl+tyYsnH7MZefjTEcgf3oY9tweBfAT5SF60wpDXkg2GPHkzhleBkcwhW5GEu56b4Ac84bX1+wHgKdnSCDz4TcBHMrS0vMMCN1F3uV4HvXjyB5wuPfMxgXzPDFXrTlQg3wT5VAUKdQ9LzkD35xjy1FbWTje4Nr4mCXetm3gx3tPana8Z8GpiCoZT4zV46ldAcrSBzjy1IKYEtBDy7iI0esVe0S6a67ttt0E+qpOXxLsYz9b9nZpAfn/26ot3C+TDLzzyylIVDDvUea4OFjex69DMCiyqgTZfxPnVT6Q2vi9m/e4XsbZBPeE/hJ3Owx2Zg5IowEqfCrrIMcSjiE95cCAv/eR3nzA99heBfI8NWCtOVyC/BXnVKwWefKrOa/LUWIQ0yXUnjx9X38CNW3daYXLZR0wtwIBf/gDOSA6mX4TmVoIMeotyNBqBp87a9FFiGjWaofkxy6++9eQF8jGdsfs/LYH8/m3W858QyG9BXvGKUJIl9uRVh1qDzsNMzUM3M+BQvWjV9/x83+0CPt/4Cq8sfwjNzsAdpz4FWTyjT3EdvDm2iCEjH2afz0Ij6HnUTS7oKJdwauD1egrnixjObiaW38fAAgL5GAxCp09BIN8E+WQhaC/rVQOvzZljyBt2TkL1nZ6YHTweAf708gcw3RwSyQYUM4dhcxqpF5agODleh9fTc6BWw7z27pzgLXnwBHfDLQYllj1fRrfLmrx48h2cje09lEC+vfaN5d4F8luQV/0K1FSZQ/WJ1AInXJleDdnCioTqYzl7D39SEeAN+xgSTgm0RKOnGjBHGxgyp2EeaeCZxBQSDHny4hehbYM8aSiwjoJA/vADIntoqwUE8m01bzx3LpCPID8DxS1BpfV4J/gyN5NzQah+7m3pOBfP6Xuos9oEvDMJ3c2BRI+21tWDdfcgg55+pnlCJXL1zXB9ELInNcSm2vk+CdfzNUW5BuLJH2qexenDAvk4jUaHzkUgvwV5LVUFqZgZ/inoDnnyFejmFM5f+hQPH/2lQyMih+mEBQjwLy9/iOSzDWhOEYlUOA96GtKHvYatcL1AvhOzsPPHEMh33uZdP6JAvgnySaqTJ8gvQbUa0O0ysuU3cOOzL7o+TnICrbPA2sbvcGblXRjeFFRzGsNGBkaaBG0OC8le//wW5KULXevmW5z2JJCP02h06FwE8ltfzIpT4rVX1alDtSswvQpqHKr/tkOjIYdptwU2Ae9MwB4tQbVzMEfmoJIOvUA+XJIIlio2SwMlXN/uadmx/QvkO2bq+BxIIL8FeVK6owQrKp8zkjUk7IyE6uMzVQ99JgT408vvQrePQ7MnYY5UoDh5KGaRFQ4F8uLJH3qSxXwHAvmYD1A7Tk8g3wT5VB2KVeJEKiNZRrbyBm7cFgGcdsy7Tu9z/c6XDHhvJMPdBO2RCobNLIzROa6BJxljgfwukBdZ205P17YdTyDfNtPGd8cC+SbIu1XuOKd7ZehONhDA+eb38R08ObOnsgABfvnce3D8DFRzElaalOxKSPizUOwK/GOvhmI3TXNhIEP32yAvXeiean710psE8r00Wi06V4H81hc7rcvS+iyVU2nWBM6vXhet+hbNs27tJgJ8ajQPzZ6CM9oIHuSSVCoZiB4N09YnwG3NhcH8WSDfrXnaqeMK5Dtl6RgdRyC/9cWumGV44wtQrUn8uEoCOBsxGik5lf1aIAD8+/DHCtCtqVCZrsJytEHN+yzUJL3q/BpMsG/Nf80TyO93jvXa+wXyvTZiLThfgXzwJUdtREmnnlTPLD8M1YtWfQtmWHd2EQHeTU9BtyZhpkqhvnwkZkNAawZ8r/eCb4b1QX8WyHdntnbuqAL5ztk6NkcSyG9B3qAvfTMDw53ApbclVB+bSbrPE4kAnxrLwPGznF+hO8WgHzyVg9Fr02sNVey4u9xB4dgvn9sG+UjxThLv9jkD4/t2gXx8x6ZtZyaQ34K8bldheeUgVC9Z9W2bc+3cMQH+tXMfYuS5PFTjOCy/BNXMcq7FliRtBLM6qGxy8yVr8lIn387JGYN9C+RjMAidPgWB/BbkDacBJ1XBzNyqaNV3eiK24Hjrd77Ga+c+wvgLFahmAHjFyDRJ1pLXvh3wzRr1/eKRH/Q6ItuIGE4LpmMsdyGQj+WwtPekBPJbkNfMKhJWDucv/RIPv/trew0ve2+pBR794a+4cPkTjDw3A92Zhjs+AwK8//xJ6Mk69yQIku2awvPJCreR1ZLlYNvzXeQOCvfocwL5lk7KGO5MIB/DQWn3KQnktyCvGhW8VCQBHNGqb/e8a/X+P/v1F2gsvQHdycHwCrD8KjS3gme0aW4dG4jdRFn0YZieoJ4sg3URvDKCjnMR8AZxK5Bv9byM2/4E8nEbkQ6cj0CevszrnJRlJ6uYWXwbZBP51xsW+O5//hW3//ELnL/0X2A4GVh+HZpdgGLmYI4uwB5fwlAiByO9EK43N63DC+S3aQMI5Htj1h/8LAXyB7ddz36yryDP4VfyzsJkqqj/N29rDHJqKao6peDLza3CHFmAYle5vMp0JvHmqoTqe2Uyb3xxD5ff+SUWf3IZRjKHhFs8QG93WZPf0gfYgry0mu2Vu2B/5ymQ35+9+uLd/QN5gnu0xhpCfrNcKlyHJWUzpwzVKSNBHp8bKJ5p3jwMr4JC5YKE6ntkVhPgV978CEePLwUKhU5Rwu2Hrg4QyPfI9D/waQrkD2y63v3gQEHeq3EDGlp7NdJUL01a9WUY/jx0J48KhepFACf2k5lC9Ks/v47nj8/BG6/wOrxOD3gDnzh32DyCLchLP/nY3wYHOkGB/IHM1tsf6h/I10JPflu4noVPAk+es6ypy1yyGnryFYY+NSrRzGmcXf0U3373l94e0AE4e1qDpxC9M5KDak3DGq1DscmTPyzkBv3zAvl+v30E8v0+wjtcX99DvmldXk81QE1oaF2e1hwp+5q6kdErW72CX92+u4OF5FdxssD6na9YjdBO56DZGahOjh/YaFwF8od9SBHIx2mut+NcBPLtsGrM9zlokCcQkCdPa/OaU0QiVYbm5lBZXMXX33wb89Ea7NMjwJ+98AkMbwqKOQXdK8IYqUNL1WGMzAvkDx3J2AXyImvbNzeeQL5vhvLpL6SvIL/5JReuz+6WZe9VgtpoJw8jVYCRyuHs6nV8+92fn95w8s6OWmBt4yucWb4Kx89DszJIPbvAHvyQkQO99BQB6rCe7KB/fhvkpZ98R+d4Jw4mkO+ElWN2jP6G/Pb1eSqfIy++AsOvBcIpqQyy1Fb29nrMRkZOJ7JABHjTy0G3s7DTDQwlMlDsMpwfnMKQVYLmzwnkD/2QI5CP5ly/bgXy/TqyT7iu/od8CHoKOToN6N4cVLvCoXry4nVnEjOLF3Dvm399gpXkT92yQAR4zZyA4ebDdrHkcYdlkV6gYkc94cWTP2wkQiDfrXneqeMK5Dtl6Rgdp28hH+mR85bC9/UA8E4dpr8Abj3qBG1l31z9GA+/+1OMRkVOhSywducrvHr2A+j2BJyRChJuOWgXS4BvahcbAF4gf/iHHIF8v995Avl+H+Edrq+fIK/TGqJL3kwkihM0HlFTFRAIVGcWmjMHM70A1SSFtGkUqq9LqH6HedHtX0WAd9LUD34aZoogXwGNMQO+qTSSvXrpB9+CSMY2yEs/+W7fBi0/vkC+5SaN/w77GvKpIjcgiSCv2HWY6ZPQnBpUIwfbz6C2eFFC9TGbphHg3ZEczFQOpl/i5ZXgAS7y4sNw/WZy5WFD1fL5rTa8QeKqHkGeHqhIbChVhEr3VBhJSdg1zMy9g3sPpNdDzG6hXU9HIL+rafr3D/0HefryDz15+kLiL6bAkyf5Woa8XUfCKcFgrfpPJVQfo+n9m40v8crye7BS0+zBUy28NdKAYhVCTzWE++aafARnqZNvebheIB+jO6M1pyKQb40de2ovfQV5+lKicC5DngCffwzyun8Cqt0AeSiGWwlC9bdEACcuEzYCvH+EQvMZ1qS3RqgiosztYrnxUAT3zfA8lUMGr8NDLnpgGNTtLuF68eTjcosc+jwE8oc2Ye/toN8hr/p5ROF6zV2EYtY3Ic9tZR+IAE4cZi0DfuUq3HQJij4BzaS2sVWQJv2QkYVO0sPbQvMUvifA81o9PdgduoRsUOEeXbdAPg73QjvPQSDfTuvGdN99BXn24smTJx37Mq8f0hqiyl5fHYrTQCJFmfVVWMkCLnBbWdGq7/bUXNv4HV5ZuQrDnYJqZuCM1LkvvGLlYPgNbiSk03Y75EMPXjz5CNKH3Qrku30vtPv4Avl2WziG++8nyDfXThMQCO4R4Olvil2BOTLHgiqF6jnckFB912ckAf7M8rswUpNIePnN0Dv3FhDvvMPRiS3I84OTrMl3/f5o9QkI5Ftt0R7YX99C/jGRlODLy/DnoDsFOH4BtcXLeCBa9V2doWt3foszZ9+B5k7ASBc4+iIh98N644f5vEC+qzdEBw4ukO+AkeN2iP6G/CzUZPTFRWI4Fe5clrCncH71Ezx8JFr13ZqP5MG/eu5dWOlpKOZxqE5GIN/1nILoXpESum7dF+0+rkC+3RaO4f4HB/I1qHaea64lVN/dibh250sGvOlPYdj4EfwfzkNL5oOqiK6D7jCecK9/ViDf3Tuj/UcXyLffxrE7Ql9BfjMxK6qlpi+trS8uak1qp4uoLP4MXz/4fezGYhBOiNfgV96FPZKBmc5BsadhpCtQXRJZkQz57i5XbN0rNBYihtN/d6RAvv/GdM8r6n/IB9n2ukf940kidVLayu45K9rzhsCDf4+T7Ew/B83NcT94ahWrugL47gKeohC7QJ60CUTxrj03RYf3KpDvsMHjcLj+gnxTx7lQepOy6oN66jI0awpThRX86tZGHEw/UOcQAT45noHhUZh+kgGv2CUYI0vQktQqNix/lJB9h7Pqo2WGbZCXfvJ9d48K5PtuSPe+oP6DfBPo3UABjxLuEm4Rjp+XUP3eU6Ll74gA76SnYPqBkp3h1zBsFqD7C1Cceej+kkC+6w83AvmWT/6Y7VAgH7MB6cTp9BPkFaeIRDoQT9GoG53TgOHPQzGo0UmRteovXbmOb7+TrPpOzC06xjon2b0Hbyzw4BNeDpQbEYSmCSrzUL1FfoknH3nU3doK5Dt1X3TrOAL5blm+i8ftH8hXoHolaKkqVKcCPRlo1CecOnS7CCuZw0vF87h5604XrT1YhybAv3bufTgjgQe/BXhaf6fQ/BbkCfYC+W7BPTquQL7f71CBfL+P8A7X10+Q1/0Q9G4VeopC9XPQzApMCtfbU5hdfAv3Jat+h1nQ+l+t3/0ay+evYuz5Ciw/C9Wc4iWTQMkuahdLYI9eEWAi4Mi284l40Rhsq5OXxLvW3yBd2qNAvkuG7+Zh+wnyWioqxaLGJQ0knFmGvOWVYdiTuLj6CR5JqL7t0y0C/HPH6nBGChhOTMBMBwmQ7K1TVzN6sScfbSXprvNQ3/4gtQvkpQtd2++ZTh1AIN8pS8foOP0EeQ7XJ8O2pE4VOjWksWswnSKyBQnVd2La3f3ne1g+/wGePz4HI5mBYk4x4GkJZQvs5L1HQNkOGvl/92Afjck2T14g34lbpyPHEMh3xMzxOkg/QV5xKFu7gkSyAdWmEP0cLHcWppOXUH0Hph0B/vylj/DssRk4Izkuk6NWsfb4Ugj4KDTfDHnpB989qG9/oDoA5Bffxr0HDzswu+QQrbCAQL4VVuyxffQT5FXqYuaT6E2VXwR5JzkPJ1nCxdVP8eg7aSvbrun5b3/6d1x6+1Mcn34ZI0crUM1JbgakuRUMGyVo7mLTiyAf6RcE5Y0sViSKd12qj49gv3/I1xdXBfLtuqnasF+BfBuMGvdd9hPktWQZvC5P2fXOLK/JO8kGClUK1d+N+1D09Pl99g93MX/yEssGP6P+CKnn5qC5JShmEfbYKSjWTAB5SrTj9fgtyBPgBfIRaFu9jZQEo+1u+4+SISk3IoyuuPRz+GLJaNKgoP3MhvdXBQT5+9+IRHSv3LwC+V4ZqRaeZ/9AvgbdnwH1kdccaim7AN2uwnQLqM39R9x/8G0LrSa7arYAJdq9/e7fh/3gA2AHWfQRWJpgEUHjMeEXel/03t0gJL/fO6wf2THcEpDpwfexbQhq/l308wzDPOHM84NxwqHE1QD0W+MyC9WdQ8I/BcVswBo5AcPNYWbxokC++WaI+c8C+ZgPUDtOr28gn5yB7tehuFUY/ikkvCWoBqncFcOsegnVt2P+/GbjK7yychUJh0RuBNR7g7idDyvbIU+A3+kVwT3aBpA3nHkYHAEjyNPniuHn6e+zUOnB2TsFxWjATM5y1EYg3467qn37FMi3z7ax3XM/QV71KlC8KvTkInSSSrVKmC5cwM3bEqpvxwT8zcaXeGX5PejWJJzRqkD+sehEO2G+2763Qz6C+PZtGPHa1rWRSk4Np46ES158BHkCPe03gLw9+srmA3TCzQSe/IN/bcf0kn22wQIC+TYYNe677BvIezUodgHG6AKGjTJ0tw4rWUV96W3c/0ZC9a2ehxHgSYuevuwTlPQonnyXE+eeBvLbAE+gD5dQCPKsEEnjyF58PtzSfutQ7DlovAw2Bys1B8PJYJbC9QL5Vt9ebdufQL5tpo3vjvsJ8rQeb44tYtgswkwR5Au4cEWy6ls9+wjwL7/2HhLuFDRnCu74DIYSU7Ku3m1Pfre198fOa4f8CEqEjJo5uc2h+jy0FIGevPoZ6N4cTP8EFF4Ga8B0MpiZPSuQb/UN1sb9CeTbaNy47rqfIK/7FFIk0ZUKjGQZhfobuHn7i7iavifPa239Hs6c/RC6OQUjVUTCL0KxpmEfofIr8vh2CyXL79trmygkT0COfg63m2OyA+DJi48g7wRdG3kcyZMnwPMrWJtXzBJ0uwLDrcIlPQrzRVxcvSYqkj10Jwvke2iwWnWqfQX5ZB2KmYfhV6HbGdQWL+KBhOpbNVXAgF/+CJqV4UhJIlXjByrSJhgyMgL5TZh244EmAnsz5MPQfFTREMI8gnoUpuct/y0qb6yF3jvBnTz5PHR+lZB+fgHD2ouYWXyLAb+2/mXL5pfsqP0WEMi338axO0I/QV7jzPo67JEKNHsC5y9fw0PRqm/JnFvb+Apnlj+CkyrD8BpQrRoUqwpzZAFDRhbGaEMg30uQj8DfvHUJ8oFQUeTN68kc9GQWiWQWZjrHSzSnVz7Ejdsb4sG35M7q7E4E8p21dyyO1leQd2owuL43w6H6G7fXY2HjXj+JtY0vcWb5Kkw3A8OpgOqpSYeAVexIgz4SSukq5LrhPcfpmDt48jweTeF4jxLnGtCcWtOrCp3X4RtQzTqM1EmY/hIMvw49WYLmTEN3p+CM5fBSZQVvXrkOysmQf71pAYF8b47boc66XyBPX1SWvwDdKsBO5zhUf+8bKe051OQA8Jv13+FVLpM7DsPNg4VSCPDOiS0FO4F8PHIRHku828qaj8Lzql1Dwp/jvg6qVYbpk+degWLmYI8twEwtQEmUoCTyMJIkTTzFTYamQ7iT9y6RscPeUd39vEC+u/bvytH7CfKG24BmZmF6k3jz0nX5QjrkjCIP/pXX3oVm/i1Mn0K1QWkie/GbkA/1zrkUK06e7QCey2bC3c5r8YpZhj26BDO9ANUpQXdKMDza5qBZOZheDennTsFwi5x3MV15AxeuXOPQvMD9kDdTTD4ukI/JQHTyNPoJ8roTtJUtzKzgxmd3OmnGvjsWh+hXrsIbzUI1J2AkCxzWDbzCaO22qZucQL773vyTIO/VkUjOQnMqUO0iVKfAgLfS5NEXoTsZ6NYUV01ki+dxYfVTgXvf3dWAQL4PB3WvS+onyNupBSSsHLeVvfdAmmbsNfa7/T0CfMKeguHl4YzMckiXBIYey8huTtrinwfQe45THsJukA/HidovB8tadZipClegGB5VSmSh2xNonLyE86vXWCFSOjbudnf09u8F8r09fgc6+36CvEmZwUYG51f/XtrKHmg2AAHg30PCmoCTrrH+v2pV4P7gdAh4Kq+K6q+juvhm+Avo21sP/wT7RuPCORJNa/Ih5AnwzvgChvVJKMYkvPEKhrQXMH6sgTMr7+HmryVj/oC3Tc98TCDfM0PVuhPtJ8hrZhXTxYu4ceufW2egAdpTAPj3YTgTsFNFGG4dhrMA1SRPnkrk6lsdzVJh8xKqZnCpbWwE+idAKE5ebz+eyy5wj6IvulfHsJGBM1aDmS7A8nPIll/HhcvXsHZHMuYH4VYXyA/CKG+7xnhDPgIHbZ8Ej6A3uemW2It/+N1ft12l/HcvC1BZ1JmV92H5k5xRnXBKUPQirPRPoHsnoHsLTwH5J42R/O3Jc5js87TzfSdb0mcpCTJ6bd0zQdvYIkyfkuwyMLwpTBcI7h/j5u11qXff6+boo78L5PtoMJ/2UmIFeQ43NmUGNyt0eXWQJ0JJQ3qyysIrerIO1alCdepc8jNVeB03bosX/7RjH72PAH965SoMLxsom3nUEz7w0HcGD4Xpo9dOwJHf7Q307Tbaqmfn5EYGfvSewNaKVYCRJl2CCjdj0v0GSMpZoWQ6h6C+BNVZhEo6Bt4cDL+BRIoqIjLQnAno9jGGe7DuLnCP5v8gbQXygzTa4bXGD/L0hRZ6NNshz6IdtB5M0p1lrvEllTstOcdd0GqL7+DeN5Jwt59pTIB/ZeV9mD51kSvvETGJoCPb/UN8L5vtDXnnyAkMJTIM+ER6DopdgupVYR85yffAkDEDa+SnMPwlKEYBipWFak3CHclguvg6J9XduLUupaX7uUH67L0C+T4b0Ke5nF6CPDWfIe9E80oMedUpg7z5hE+lQRmcXf0U34qM7dMMO79n/e7vGPCOP82ypQL5vUDc7r+HD7ec+9DUEjZcqhrSszDS87DHl6C51FqZPPgq/0xb5wenMKTnONrlHWnASGVQnX8jgPttgftT3xh9/EaBfB8P7m6XFj/I7xCuDz17hnx6loU82JMnIY8khevLeKm8gv/7lnSc222ct/9+7c5XeO3cu0gdzUF3JgTyT8z5aDfcw/1vZsdTtGo75OvcJ8Dw5zFk5EEd4UjYhjLmyWsnxTrKmnfGqlDNSaSeLePMWcqYF7hvn/uD/H+B/ACOfrwg3/TFxuIqTZ4NrceHnnywLl/h8LLuFTFsZlBZXMXXEqp/qhlMgD9z7gNY6ZjvYqcAACAASURBVGloziSc8RIUezpYAokD7AbyHIJlKDVVRvAKQd+8dGXXMZwogUDvjZ2E7lRheFVYtC6fmILhTCJ9NI9s9XVceEsy5p/qZhiwNwnkB2zA6XJ7CfK0Dhok25WQSFU4qUjzcgwogrysx+89gdfv3MeZlY/g+NSSN7Cd5mbgPCf94Fu/zr6PCABpxW8CnkD//dwU3ZmFZtW4p7tul6GZORh2HpZXhJXM4seVFVy6cp2990eybLX3zTCA7xDID+Cgxwry2z24KGQZejN6ssHePGd+Jyuh1GoO9mgB51evy3r8HvOXAP/auY+QHK/D8qkXfAl6qgTVzWHYmpZWsdvnXyf/n5xhsCspgn0F6mYkaxaUbU+A1+0qnPQCHL/BLX8T9jR0cwLZwgouXPoEn0n71z3uAPmzQH4A50BPQT41y8lGiWQjCNW7OejeNAqNc5C2sk+evAT45XPXkH52lkO81G6UkrWoJGvYysAYI6+TvMd9eJ/y3tbZiyDf9GquMCGhIer+l3Ar3DxGtzKsSBjB/eZnd/Do0Z+fPAHkr2IBiHb9QE6CeEGe1uAjyNCa5OPrktQq06AOWhZl1VegO1kkvEnUFi9A2sruPn0f/eEvuPT2p0iOFdgLNJML0F1qFzsXlCumqtD9oBZ7y/7ROMi2VTahnBLaFy05RfvUU41wCSoIzyf8eej+HIaNAihyZY2c4MQ6w63AS1eh6sdRnrmA85eugeD+8NGfdh94+YtYYJsFxJPfZpBB+G/8IB99AUaQ3wK9nqTuZ7MwUnMwyOu0JuGNZfDm6sd4+J182e02Xz/79V3MzP8Mll+CmSJ1wAXuBa+6BPlZaKk6tBQJDAnQ22kDgjwB3vDnuOyT/q+YRSh2UAoalcRR5rwzfhKaRdryk/CfXQCF5pMjeZxZ/jCEu3juu813+f3uFhDI726bvv1LnCC/pYFOsCG4B6I3QRiTdNPnWNmLWmbqTh4Jl+Q5V3Dj9lrfjs9hL2z9ztdYeeMqNGsCCbcYtIslD5406R+DfPRwJaBvF+ipxp3EmwjqLOJED1VuFeTNm6MLMFKz/ADA2fKkMZ+uwXRzsFIZZIsruEQZ8xtfHXZKyOcH2AIC+QEc/PhAvh4kF3GjE+p0VoYWNkEJEpHqUF0Kbc6DW2Y6eTjpLGqcVf+vAzhye1/y2p2vce7Sf4WdziHh5aA5BJcaNKcBjTr2Neucc6KXAL5dgOf9uqTpEITsyZsn6JNnT9BXzBwSbhmKMQ3DzsFKUub8JMP94up13Lx9RzTm957y8o49LCCQ38NA/fjn2EGeyoQiL54gnyqG2cZ16KlFJFInQEljll+B42dw8cqnItO5w8TcuBsAnhqSaFaOSw41UkeLQvIUtk+GneWoeoHgH/1Ntm2xBYfrUw321nldPvLiRxZgjc7CcHJIjVJjoL8VuO8wp+VXh7eAQP7wNuy5PcQX8gHgmyGfIE1ucwYUrrf9KgrVC7h5W1Tutk+6CPBmqgj/ObJZiRMWCSzc3IdqsFO0PhxCn3oEkHfPpYoC+3Y97JD8cgR3An70UqwSe/Bq4kdYPP0eLlz6ReC5S8b89qkt/z+kBQTyhzRgL3487pBXmz35JAErCOubyTJml97G/W++7UWzt+2cCfBnL32C5GiJxVKURAnp55fxjJYPAMOADx+gaEmEsr2pBpsjKLIu3y7A034J6lGSnTV2gpPv6P/myAKen3gFZ5Y/YLj/8d/+d9vmh+x4sC0gkB/A8Y8b5IM2m8Ga/KYC2KYwyDwMf4GzjikhiUL1j777ywCO2s6XvP7FfQa8kZyC4eWD2mpvAapNIeKlUA+9DDVZ4Bc3+qGWsl4DOifhDTrk6fqbX9ujGlGZ4U7b6L3Nnw/sSfryJOBEzZWo9NPwK9w1cdiYxI8bb6G8+DbOrv4Sa+uSVLfzzJbftsoCAvlWWbKH9hMfyNOXZNMX5A7CIFRiZI3OI+Hkgqz6W3d6yNLtPdXPNwIPPvX8AlQnx2p2JBpEgje8Fszr72Tj7YBqhlP08yBuKS+Bst+jF+WGUEVH1E+hAjXsfmiM1KH7VShOHopTCDQGqASRbJycCxTqvDmOjlCSKJXCUcknzVtvvAzdepEbKr15+RPc+PW/4N5/fwTx3tt7f8jeAwsI5AdwJsQW8tSQJhm8gizwOsz0ApfOmV4Os5RV/0B6x9OU/af1L3F65UM4R2YY6MNmYbM0i0q0GPIpWnMfRHg/7TXvDXnKYyCwq1SK6JOAUCAipPsz3Nd9yCjA8E9wmeewUYLpL8AicRu7CDtZguFMQzOO4ZXlD3Dj1h1JGB3A79tuX7JAvtsj0IXjxxvys1CToUfl1TnkqTlZGM4ULl6+Ll+SAD5f/y1eXn4fmvUCVCfLQA88d0qyI3BtlW0J5PcA/uayUBhR2vTiA29e9+tQnBIUKkWk6gS/wXBXKInOrSDhk/5ANax3b0Cz8tCdAkxaHjFexEukMb/6MdbWf9eFO10OKRYQWduBnAO9A/kaFDMLe6QSCuCsD+R4NV80A/61d6AmnoM7Tol1JU7moizuKNFrU3RFvPg9IhmRwiIJMEU/R6H6GQ7dq+4M9NQsh+XpZ3ox4J1qYPcUJTEWoRhZWOkKnHQFw/oxTBfOMdxv3lrHI1FmbJ7C8nOHLSCefIcNHofDxQrykee0uTZPsIo8eSr5KsHwsqgs/mzgteo/X/8SL7/2HqzUNDR7EqZfhOYUA5CFqmqbHn2ojy6e/JM8eSorpKqD/KYI0+O9E2ahmJQ0t4BEipIZSYOeEkFPsN4A5T+QkI07WkXySBWqOYHK7AVOhKTQvMA9Dt92cg4C+QGcA/GHfJih7JVh+mUMJ47hzdVrAx2qjwCvWxPQrAy88TlWTCOoN3vuXBf/WAOUJ0Fu0P9GkCfAN0M+8OAjZUCqUjDTJzmxjoBPa+6kXMf680YG6aOzUI0foTDzBs6vfoobt+7ioVR/DOC3anwvWSAf37Fp25nFC/JbzWg4s5lEWmgtnkuQyki4GbxUfH2g28qu3fkdXj33LpyxHBRzikuySByI7ZSaZR10Ctez8Aol24Vr8vwAICH7J4TsA09e9XeAPM1Dd54b+5g+KS5WuROi5deg2TmoVgb+0QbUxDG8snJN4N62byvZ8WEtIJA/rAV78PPxg3wT6N1ZcNMaKj9yizDdDGYWLw5sqD4CvOlPYdh4EWaaOpqRlj+VbS2yNG2zN08/k5oagZ6bowjknwz5ZBmkzRA0RqJSwzABj+ahMwvVqsEgTQGHSuKoo1+ROyH6RyuYKqzg7KVr+Hz96x78FpBTHhQLCOQHZaSbrjNOkDdGZqG6gQob1XezQItDyUxlzlDWzOMDG6qPAO8fzWNI+9tAUIXqsp05JFKnoNhBG15Zdz/4sgNnyKfnOBpC8y+CfNAQqYoEZdA7Bc4LcdI56PZxZKvncfGtT/Grz2jdXYSZmr5a5McYWkAgH8NBafcpxQfygZ46Jzu5VfZKyXtKOHUYbgWGk0G28DooQ3nQ/v1m40u8svwe/OcL0JxJGH4R9pF5KFYVikWh+ZehOtQjnsL2B4fcoH826udOERBq3kNREl4qcspB29dkAYY7Bd06jmx5BRcuU3e4DekON2g3ZA9fr0C+hwfvoKceJ8gH6mFRXXedm6YYbgMmSa+ak6gvXsT9B4PVVjYCvOFOYNg4DtXJcJieepBT8pfmzSPhn4RCIXsOLwvkD/qwEigqnuSEOsUoQLEKMJJlGG4eujXJXQ8LMwL3g37XyOe6bwGBfPfHoONnEDfIk2Qoe1IuNaJpwHSpBWcBdjKDi6ufDJTXRIA/s/w+dHuCkw6tUWq3GzQ54eUM0vFPzrHCmupKF7mDwn3zcy5pMVBv9xIoqc4Zo6WiDBLOJArV14Nad/bc/9Tx+1QOKBZohQUE8q2wYo/tI06QJ21wgjx36nLrSDgE+AZ0M4ds4Rxu3rrbY9Y9+Omub/yOAW9509DMadhpaiJDXnoQ4Uj4izBGFlmMhWRsE2ny5MWLP4wNzPQsEm45SKrzi1DN47D9KZxefg83b69JrfvBp7N8MiYWEMjHZCA6eRpxgjz3OPcr4EQntw7DmYfp1GE6ecwuvo37DwajrSwB/rWVd6Gbx2E4WSTHFqBa1H98FonUEvTUIthzZ/GgoHEK6agHzWcE9AcDPTWSybNSnWJOQrMnMF14HedXKWP+y07eknIssUDbLCCQb5tp47vjWEHeL0H18kGyUxPk/bEGLq7+Eo+++2t8DdmiM1u/8xWWz30AJzUBx89xQx7Do/KtOZjp05xJT0l2wyZBvwIjXYORLkN1cwL5Q0UyKtDsDDRnClOF13F29WP86tYavhUZ2hbNbNlNHCwgkI/DKHT4HOIEeQrXD1s51gen8jlek3cqqDYu4eatLzpsmc4fbu3OPZw59xHSz2aRcCZg+SXWQacqAyN1Eqq9AMWc5Ux6I32CS72Cmu48NK/QB5BvajX8PWBTkuH2KEXz+6O2sKHOwvckkkNRpbC3O/V31z0SWCoGLy+HqR8Hte6/+mxd4N756S9H7IAFBPIdMHLcDhEfyNe4wxd19jL8JWhUEkZa4Q61laVQ/cO4ma6l50OAP332GtLUD96c5jp41c7D8CmLvsTlXFwiF6oAbmXSN/eH3w7BXvo/dcwLlOWCUsBAzjhYgiBwl7kLIcOZQM2JmSRSMw+dywfnoSQrUPwyb9VUHRp1haPeB04DRmoBFBHRrQqsZJWXgKgsM2FN4KXiebx5+TrXun/76M8tHVfZmVggThYQyMdpNDp0LrGBfHIGJIYzZFEntZPsuWpmGW66hPOXPu3rUP3ana/x6rmP4D7XwN+oU6yHTip1pInuHFnalKb9vifbSxDf61yfAPlkoEJHnvfjkA8ArzsnWHaWIK+NzsA4sgDNb2DYLkNPzXNDmSE9h4RThZOqIWFmeCmkUF1huN+4Lb3dO/R1I4fpsgUE8l0egG4cPk6Qp37dw3aJVdx0dwG6XcZ04Q3c+Kx/Q/Vrd75iwB85VuIaeKp/JwlakqMNRFnq/LM5srBDuHovcPba35vD73TuYZQihPzm/zlsH763yftXvCqeMbOgrT5CNqRyuGLQ3z1ZgeEWWVTJcCZxhjLmufWreO7d+N6RY3bHAgL57ti9q0eNDeS9GoatPMyxRW7jyRn2dhH1pXdwr0+z6gnwZ85+CCc9Ac0mLfqgLzmVxFEHOecHJxn0w0Y+WH//3pp0r0F8r/NtXnrY7eft+9h6MEj48zBGFzinI+jzXkIiVWFBm4ST494HLxVWcGH1GtYkY76r3zty8O5YQCDfHbt39ahxgrzilGEdWQIJvRjJGq/HU6j+4aP+0wTf+IIA/wHSzwX12M54BcNGJmgV6wawJ9BTiJ49ezvQ9O/fkH2QCEcheU4mjLz4ze12uNeghSWELIWcnMGwUeC5Q947hfXdsVluxWt4Gbx27j/jzVWSob07UIJKXf1ykYPHzgIC+dgNSftPKE6QJ0EXEsLRSCt8pI7pwnnc+Kz/BHAI8CtvXEVyLA/NnoKRIiiVYY7O83o8hewJ8OTR09q8PU4PPuTZ7gC6vvldBPniNsjTNW9561sJhwT5ICEvqDAoc1g+OX4SulPCsDEJ089zrfuZlQ9x+x//BX/6y//X/htKjiAWiLEFBPIxHpx2nVqsIO/PYtjMQXOK3MazvriK+w9+365L78p+I8C/MLkAI0XXmof//E8xlKA69xqG9CzDnfrBkwdPwCfA88NP3wB9p4eVLchvJdhR2VuUkEeZ9+GLoR8Bnh4K8tCTeahmFqqRgW5nMJk9g2LjZ1j9+X/DxhcPujLWclCxQNwsIJCP24h04HziBHmCmTU6D9MvseIYtfB89F3/JEb99uv/gdPnPsJE7jRUm7rJBfBWzBkkUie48xnD3Q8jGiHUaU2+//vBR5BvyqB3gj7umkttdKMXddojz57eHwE+h0QyCzuVw8izFWSrK/j5f/qleO8d+P6QQ/SWBQTyvTVeLTnbWEHepiSpCodZpwrncfPWnZZcYxx2QoB/9dw1TBZ/At2bhp4qQDHzXN41bMwg4Z8a+C5ytI4eSBrXuBMc1bZrdqD2R9UWRvIE/12jnA2/BiNZQMIvwPCzUK3jeKmygktvXcdnv76DP/35f8dh2OUcxAKxsoBAPlbD0ZmTiQvkqfmK7S9ANXKw0zlcfPsTPPpDf3jxv/3qf+DMuQ/xYm4Jw4lj0JM56H4FmluDOXIKwyaF5KlELki06++1951C9cHvaA6YaVL1K2FIy8FILsBKn+KSShK0oVp3J73ATWR0O8ud+Yb1H+Gl4ut488p13JDe7p350pCj9KwFBPI9O3QHP/E4QT7h1KGZWVDP7pu3+6M2njzK1Z9/isn8T6DaEzDSJe4HP2TkQP3LjfRS0As+KZDnqgr/BBLePFSrxkp15LWz8qFbhzNKUsd5GF4eppcJ4L56DTdur+NhHy3rHPxulk+KBZ5sAYH8k+3Tl3+NE+QVowgvXcfiqXdw/7/3R8LdrX+4i9MrP4diHOcQvTVO/d8r7K1SXTcpsinOTNBVbsA9edWpY0inZYwynPGTcMaXoFNVgZWDmSId/wmQkE2hcRlvCtz78vtILqq9FhDIt9e+sdx7nCBvOHU4qQpmFt/B/QePYmmv/ZzU+t2v8c7Vv4czUuL1Y9UJVOxIic0cPQGCPJfJperQfUoo2z2UPQh/M/wTMNIkZkN6/XkMG1MwknnY6Tw08zjD/fzqJ7gpMrT7mYbyXrHApgUE8pumGJwf4gR501uAbuZwYfX/7Hmt+vWNL7F8/jqsZBYWNU0x8zDTS9DpGlPzMEaWQOI/ilOEMdpoqg0fXNBTGSHJ9yp2EQm/grFjSxjSX4CTzuDM8jsC98H5WpIrbZMFBPJtMmycdxsnyOtWHdPFi7hx+5/jbLI9z+3z9S/xyvJ7SI7koBiTcEaCNeZhg1TtKDQfdEcjj9Ucm+Uw/pAx2QetYg/3gGIfOYlhqwhztAHFyWBIP4aJwuu4cOUTfL7+1Z52lzeIBcQCT7aAQP7J9unLv7YX8s1KZU8CQNDr23AKOL/6KR5+17sytv+0/hVeXn4fSuIFzv62/KCbnOlTHfwit9E1Rk5y8xTVoS5pFQxb0zBGqjGC/EGz/EOBmu9J0TbPg+jnrfnAneVIztaljPo8EskMspUVvHklSKr7wx//vS/vPbkosUCnLSCQ77TFY3C8lkKeZUZnwrXlOvRQzIS3bp2TzcyROSRSNUTr04EADkmRFjFdWMGNW70rY/v5xtd4efkDaE4WqpMLmqNwP/giC908Ls8aQa65EUv0u25tQwA/1rM+eACj8rYAxiRCs+3l0vlWMGxPQ/XzMMer0OnhxqlAdWeg+9QKdhEq9X73TnC9u5Gag06Jhk6ZS+LsdBGacRRTxRWcXb2OX92+g28lYz4G3xByCv1kAYF8P43mU15L6yFP0ApgsR3y9KUeCJ6QCEwFeqrGcq26NwfqElZbfKtnO84FgP8oSBoLm8mQFC0p2NGDTG8o1kVedvO2Bgb8XpBPluEcncWwl8Ez5hSGnRxUl+bCLEM+kSL9fVIzPMnlcYpRgOXXYfplmMkCqotvbHruUg73lDevvE0ssE8LCOT3abB+eHtLIb8Zpm3yCN1AmpQ0yI3ULHtuqh1Anjx6Aj+rnDnZng3V/2adPPgPGViULW+OLnCjGWouY0QStS6F47vloR/muM2Rhif/PGRk4Dx/Eub4AgOeKgg4kc4MlOycsSUoBoXky0iO17msMPVcCa+uXOXucAL3fvhGkWuIswUE8nEenTadW+shHwFlq7EIAZ4bjThV6Mkqh+upCY3qFFirXrWL+HH1Qk+G6gnwryxfheFMwBqtc2SC6+DJm3ergWdvlXrEk38yxCkkv+srOcPlbyTwM2xSW9w6Ev4cNArZ2xVYfg2qOQ1vvAIlcQyF6hnMLl3GxSufYG3j6zbNbtmtWEAs0GwBgXyzNQbk59ZCPgJ8tG0O+9L6awB5w6cHAGpCQyHbKncPqy2u9lyoPgJ8wppgvX26JgJ89KLsefLeKWxP7WLj7clHXd3Cfu7Jpu12uHPuBb1/Zuvl1UEJhUN6mZMLnSM/4Y56lHvhP7cA1ZyEbk3A9idBrV+pr/v9b77Fox5OshyQrwi5zD6ygEC+jwbzaS+lk5BPJBthgxECQQ2GV4Lu5KA7WRDk73/TOyp3a3e+wmsrV6Gbk7CoUYpT4HwDCtVTiJr6wVOoPlqLJ/D3BuTDfu4R5B8DPD28bYN7BHr23E/CHPkJN5Uh1TozTWvu9DA3CdObRLZ8Bhcv/wJrG7992ukp7xMLiAVaaAGBfAuN2Su7ai/kH/foda/B4VvNLsFMVWEmi9z7O320jotvXe+ZtrIE+DNnP4Dj52D7FehWAYZXDR5gQs9dMWk5Iki4I9ArVqlHIE+h9uawfDSGtKXITLTdFqXxSJK2BHvkZRhug6slSGNeNY4jW15huN+8vYZH3/2pV24NOU+xQN9ZQCDfd0O69wV1EvKqVYHhz8Mg2NsFUCcxM5VFtriCm7/e2PtkY/CO9bsB4KlTnmZOw/AqMFPz0JwAhhSip4x68uYJ8pSIR149veLtydP57wT3JphvK62Lqigi+JvJWehWKYhq2Bk0Fi/h/KVrrFQncI/B5JVTGHgLCOQHcAq0EvJBgl0Auy1gbHl+1ICEvHlqF6oYWRhuDmZyCrN/97OeCNVHHrw9koWRyvFyA/c2pw5yDq2/9wLIo/H5/pYeTijiQC9KmiMdebouHrfkPIfhqf0r1bgPm0WulrDGToCiFnqSkuvK0MxJjD0/w8mIpDH/SGrdB/BbRS45rhYQyMd1ZNp4Xq2HfAS67V5hkG2v2jVoVgWmVwnD3ZO4eOXj2MOA1+DPv4/jmZ9AMSegJ/PQ3AooOkFKdvTqdchT5CGCu56i+n4qb6SWr5QlPwfVrLLAEa23e2NLUM0CnlEm4I3T3zOYKpzBzCJ1iPsElJQo/8QCYoF4WUAgH6/x6MjZtBXyUfIWJWdRYlaKQtikhFfjkK7j90aonkq8Xl35EA5p0ZuTXA1AiYOUSKixSMwcdPJ0e9yT1/056P4CNHeW4a46s0ikTsBILXCPdyd9AmZqDkayBsWYhjdWh5nKcWLdy8vvcQnkvQff9rQscUduOjmIWKBLFhDId8nw3Txs6yAfythyTXwt6KqWijK1yaundWlau27AGzsJJTEF05lkry/OId1mwKvmFHSvCCoBJGEfyi8gj5dAz6+eFLtpDtvXAylahyoDFsKueXPc313Rc9CsIjQzy8mGjl+Aqh/DVOF1nF29BmrKI//EAmKBeFtAIB/v8WnL2bUc8qRXz2VWZWgEeQZ9AHnNnYdq1uGOLkGzcihUV7heui0X1oKdrm18yR686Wa4EoCS7KgsjpLsSPQlykGgWnAS+Yl/Yl0z0Hf4OTkDNVWHRqWOXnVTzIf6DTijDV5z90bKeGZ4DOXGJZy99Av86ta6aMy3YK7JLsQCnbCAQL4TVo7ZMVoJ+QSFdzchT17845A3fFrHrUMzK0iNzmLx5Q9ZECVmJuHTWb/zJV5dfg+2n2HPNUE67CTmQ21io2Q08uCdMki9j8L3QbLhDvDsBQ8/SY1kZqCPzkJLVTFs5qBYVBlQge4UMKxPYFg7hsbJyzh78brAPY6TVs5JLLCHBQTyexioH//cScgn/JPQHFI/q8BL1zG7eDmWkCcP/rVz78HxJ5EcLUHRM0g4pNhHndNOgK6D8gu44U6yEoj6JKkOniIWvQr5ChSnAMUrcgc5Y6wGPUUKfhmYfhFjP5zD6eWrvO7+hz/+r368FeSaxAJ9bwGBfN8P8fcvsJWQj1rKbobrtyXeqXaDPWErNYeEncHF1U9iJ2v6+Z2vcfrsVXhjU9CdSS7z2/TiKYPenedXkHlO4XtavyZ99lwLIN9Ukx528oseGjY7wVGiH7d23elhovnzzX/fXukQ/e3x91tjtCY/DdXLwBwpQnEm4YwXMF04h/Orn+BzyZj//g0kvxEL9JAFBPI9NFitOtXWQZ7AEZXPUeJdoGuuhpn19Ddax3ZI9tUtIFs8F7v1+PW79/HyyodIv9CAYk1CTxW4LzyF47e89GYwNl3voT142tfs1ouEZ6iDX9jchyIJCa5KoMqEpvavm8AnCdkljjYoJi0jhDkCVObn0vmXYIzUwfkDVA9vk8Z+ndvADhlVFu7RvQycsSx07zgsfwLT1Tdw8e1PcePXd/HoD39p1ZST/YgFxAJdsoBAvkuG7+ZhWwv50EPcBHwdKiu9EbyCjHTdyUNNTLBW/b0H8dGqjwDPeQReAc6zc1CcPIx0jeGobHrqzSH5VgI/gLya3AJ9FBmJAG/sAPnI0yf7UsmbZlM73zkueSNxm4Rfh04tff0KntGn4R09CcXM87KCRa1fzQpn0TvjC9CsCejmC5guv47zl/8zbtxel3K4bt6ccmyxQIstIJBvsUF7YXedgXwAQ85Ad7IwnCkO/8alfzgB/rXzH+FH0z/FM9oEks+fwJAxxa1wqR0uQdLwSdEuCnvvFO6ma4x+f4BtGPEIHooow32Gw/IUmmcP3q2Alg2iFy2J8LJIdE6UGe+SME+Dy/poG0RWSISoBtUJeturFjUHasCg7n92HjrnEuQwnPhRCPdrIdz/3AvTV85RLCAW2IcFBPL7MFa/vLVzkK8xVCiJa7qwgl/diodWfQT4F340iyH9Rfbgh0mTPk3NZWpQrByohIzC3G2FPD0gJCtQU9TlLXqYCEAegZ2234d7+H76TKrCHjs9TJF6HYXkWW6XQv825Q7MQzWK0Ola7Ax0Zwqa/SIKjbdw9vJ1gXu/3NRyHWKBXSwgkN/FMP3865ZCPgzTb3qQjyWPEaAIMNOoLP4M92LQVpYAv3zhv+K5H85CMSZhjZAHXsLfaBNwnl1gQR9zlLTbs6ZeKwAAIABJREFUo85s2z30VobrCdZNPdybfta9MoLXdsg35T6k6AGhGLy8Env1NA5UBWAkT0B3F7h00aU2uE4WVirDD1tnL13DjVsbiEtUpZ/vNbk2sUC3LSCQ7/YIdOH4nYI8QcpKl2Ekp3Hhysddh8of//TvuPjz/4ZjUy9jWJ+Cc4RC9BmGO4F92Mwy8Am8w0YO5ijJ1nYA8iweFGoMhKBvBvxmAmD0QEVhehaxCSCvJHNQvRLXulPnOwrTq1bQL8BwqzCcHNyRHE4vvy9w78L9JocUC3TTAgL5blq/S8duLeTJGw106re8+VoQYk7mYfo5vFQmlbv1Ll3t1mFv/uO/YPHkzzBsTMI7+jKe0YOwPCXbKTaJ2zRgpGcxZGSbwvUdgDwJCEVefLTe3lx/v82+tIYfvGag+RUo1MPdK3HYnhroKGaOe7uTznzCnka2eAEXVq9jbf2rLWPIT2IBscBAWEAgPxDD/PhFth7ytJ68Fcbm+m6vjISXg0Fa9Zevo9u9xde+eIAr7/49NGca5tgs/oYAf+QUFA7Ll9hrJ9DTOjx58BSupyz1jnjyBPhNuEcPFVv2bLbtFuAJ9DNQ/SoL2lDJnE5tX70ci9mkj9YxXTiPC6u/xM1b0v718TtA/icWGBwLCOQHZ6w3r7TVkCdpVMUqc5g4kaRuZtRnvMKdyqgV6Y3PuuvFr2/cw/lL/43XpV1ed5+B4lWhROHvTcA2l8pFsG3vdiupLjpOBPegrI46xCX8RSgO2ZiS7OZYZ16xwzV49vIrMEepYU4Ww8ZxLJ75OSfV3bz9BR5999fNcZcfxAJigcGzgEB+8MYcrYS8SoBMUbe5BszRE0E2t1mA4RU40WtmcRX3v/l/u2bltTv3GfA2ZbGbJQwZeWj+LLSReajkqYeQ/L4nHUG3vdtA1S4EeyiGQ4I4mkf5APMYSpQY8OboEow0te0NsvBpaYEy6il3gErjhhMTeH5yCafPfYibv/4ClH8g/8QCYgGxgEB+AOdAKyGvkDJccgYJf45blVK3Nt2pQLczMNxJvHnpGh4+6k799ecbXwcevJnByHM/xZBG6+5L3D992C5BoRI0hnx7Qf79kP/W8VjdjgRtGPCBfC7L6IaQ1705OOMvM9yHKVcgTTXw1DxmCqZfQurILPzn5pCtXsCFt3+JtTv3BnBGyyWLBcQCu1lAIL+bZfr4962EvOpSe9nAEyUlNeo2RyVbpFP/4+rruHmrO6F6AvzpV9+Dak7CTNWhGKQ5f4ohT6FvPudU91vFPg55gj2BfksBj+rcFbPEXe8SJFVrZ2D5BW6io5kvIhvK0N789V3x3vv4npVLEwsc1AIC+YNaroc/10rIJ9KNwBvmFqwN6HYVNkmr2tOYmbuI+w/+teOWIsC/vHIVw4lj8I7OsaTrkF6AOXIKvE0vQbFJBW4uTKyL1sF32m553U/yyA/6t0infjO5jgEfnUegukfNcHQ3B2ekwG1wVfMFTBXP4dLbn4DgLhrzHZ9ickCxQM9YQCDfM0PVuhNtJeSNEWp8UgqS7dJLMJw6VD0D0wkg/+CbzkI+Arw5moc5VsGQMQ1jfB72D5Y4OZBgao2cYO+YALsJ16bqgMd/127IRx3m6FzoWNGWRG+ob32etQY0exKK/jymCq+DxGx+9dk6vu3SMkjrZqLsSSwgFmi3BQTy7bZwDPffSshT4h2VoalWBUZygSGvGVmMH23gwuo1PPquc+vxn298xR68M0alZAUMmTkY1HQmVcIzZoahaaTnoRhFpMZPQ7Mof4BC492GfZTV37TlunnKIchDtV7EdHEFZy/9Ar/6bA3fPvpTDGeVnJJYQCwQRwsI5OM4Km0+p1ZCnhLvEuk51kunNXnqnuaPz6OxeAlUwtWpfwT4V85dZW12a7SOYQL8+AkMWTnoY3PQR2YCVTiqBqCWrGYVCSdo6/p9yO/mvTdBeJsS3la/9yc9MOy836iMLlC5K0JPUhOZHBLJDH488wbOrn4Seu4C907NJzmOWKBfLCCQ75eR3Md1tA7yQYMUxS4g9fzreEbNwXDrMJwMLlz+ZcdqtD/f+JI9eM2ZgOGToE0OpPwWJQQyxLdl0Qela1F4vDlEPhM0i+HM+6ZGMPx/0pmP9OaDUrZoP/RwEyXRcbtYZx66EyTR0cOPnpqHMbII1asGJYd+nfMC+OHALMNMVWGkijC8LBTjOCqNFZy/Qg1k7nRdDngfU0veKhYQC8TMAgL5mA1IJ06nZZAn4KUqGHYK3M+cGqIYXhXZ8oWOefEB4N9DIp1DIp2HRl6wX4FzJFyD59K05pB85E0HkP7+OngE9p0bx2zKz4YqdeSFc1tYp85RjGbAE+TtsZ9wwxjVbXCHuGGryKDXWU2vwpn/tl+HSl3wnAySY3mcWXkfN29vdHSpoxPzTo4hFhALdN4CAvnO27zrR2wl5HXqUZ4ivfQKTP8EdKuA2uJbuPfg27ZfJwH+9Mr7DPhha5IT7RQ7yz3hFYvkaU+E9ed7QT4Cf9D6NfDWI9g/YRv2d+dwu0sJdFvefFD3PotnNJKZrYPq3alxjJ5qwKQSQ4K8U9yEu+llkC2v4MLl61jb+LLttpMDiAXEAoNhAYH8YIzzY1fZMsiz2l0VJGvLfcupl7mVQ33xP7Yd8hHgDX8KqpeBOV7BsDmFhF/l7nLPaBlW4Ytgu7XuHgG92ZOPfvc0kI/C+dSUJwzZE+wZ8kGmfHPWPj1okFAQlexR1MAeW2C4DxsZWOkKTHcK2cLrnKRImgKdTFR8bFLIf8QCYoG+tIBAvi+H9ckX1VLIJym7nmrQqWd5Ed5IGedXP8XD7/7y5JM4xF8/3/gte/CWPwk9mYXiUOZ8MWgT61aQINlaj1qukjpcqCa3mUEfAT2E/PfW3gniBPDofdu30fp9tI0eFpq3EexrGNKnkUhRvXuN4a7ZOahWhtXqFk+/FcBdQvOHmA3yUbGAWOBJFhDIP8k6ffq31kG+BhLDoVatFHq2Ryrc+ezGrbtts1zgwb8DxTwGk9bh/QDuilXgNrGaW2V9esNfgJ4M1eO2CcwEAN8v5HfJmqcHgs2Hgi3QB5nyZThH5pDw8twcx6CMeXcaR//DCbzKGvMiZNO2iSI7FguIBdgCAvkBnAgthbxfh56qQHWysNN5XHz7k7Zlg1OZ3OmVd6AnJ2GOljg8Ty1WzZE5DBk5Frixx5dg+Cc2S/r29uSjBLto7T2C9i5Q34wIRH+nqEG45s+wp/2UoXtFhnsimeVufIr5I1Qar6O+tIoLV65j7c7XAzjz5JLFAmKBTltAIN9pi8fgeK2EPHnQZroKM13AVOE0bty605YrXL9DSXZX4R+llrZTUJwcSG2PurLpqVnu0Ead8FS7BsWqcpievPm2Q5605rmZTJTcVwF58eS9Uzmc7k4iOZ7BK8vv4ubtO7j/ze9FhrYtM0R2KhYQC+xkAYH8Tlbp89+1EvJUj0694+3RHGqLq7j34Pctt976nd8x4G1/CsPGBPdOH3bK0EcWArW6aN39SdtNDzxaY4/C9ds8+c21+MBTp3V9emgwUtRlbx6qRV56HWbY9lX3FqDaDX6YSCRnodpF6E6OH3pMP4OXKis4v/oL/Gbjdy23i+xQLCAWEAvsZQGB/F4W6sO/twrylFFuk9qdlYFmv4jzq9dbHqonD/61c+/BSk0heaTCanDU+c48soRnjEIQKn8S3B9bjydw7w/ymtMIHiSohS5l0HsE/QLDnJYJKJPeGT0FjWR9vSq8sVnufPdSWA534/YGHn4nSnV9eBvJJYkFesICAvmeGKbWnmQrIW8mZ9lzLTRWWh6qjwDvjmRYrnZIn4CerHAmP7eLTc4F4fhNLz1aJ99tGwE+2gbr54HATbgmzw8BW58nj11zakFDG4+iFjUYtOZOyYZ2DoZTgWpQYl0eqjmF6QJ57qJU19oZK3sTC4gFDmoBgfxBLdfDn2sl5FWzBC9dbXmoPgK87WfgH53BcGISzhFaY6/gGT0LZ/zlIHv+wIAPQd8sU0s/b9vfsFHgEH1QBleF4ZVg+mXuDGd4eSSov7ubQ7nxM5xf/YQfdB52sClPD09DOXWxgFigAxYQyHfAyHE7RCshr5llOH4JF1b/Ht/9oTW18RHg08+Tkt4E9FSBPXiN1uHdGq+HD2lZXiMPoBx55vvZhqH7PSDvjC9xiJ40AHSS7zWnORyvO1Mwk9PIVl4TuMdtgsv5iAXEApsWEMhvmmJwfmgl5A2nhvLMBdy89c8tMeD6F19h+c2rcI7kOYveHK1hyMiywM2wWeRe8JpZgeE2QA8YBP2tdfb9/Px0kH9GnYb/wk+gOyUoxhRGnp/jpQM7ncOZlaucMS8qdS0ZetmJWEAs0AYLCOTbYNS475IgX1t8Bwk3kGM9GCSDRDSCfG3xbdx/8PDQl73+xdcMeNOfQur5WShOFkNmHjr1gLcq8J77KYYTtP5dg+k1eD2cdOMjedknb6MHgK31dr7uPTx57wenMKRPcZiexH5UcwLTBfLeP8bn65Ixf+hBlx2IBcQCbbWAQL6t5o3nzu892A750KvdzDyPgBhtt4ExfB83ZnHyOH/5l3j43V8PdbER4Md/WIYzXmChGy1VZcCryVloyQVugmONnIBuV6EYBe7g9rgn31QWtyP8d7ieSLEu2jZfm1eGYkwjOV5npbrq0n/Chcufivd+qJGWD4sFxAKdtIBAvpPWjsmxNj15h6BHAI+EXKhEjMRcwheFwp0qEiT24jQwnCjxOrierEMxiywpS3XghxXAWbv7FV459x5Gf0jHpSYzBRa7UR1q6hI9YDQpy/HvmoC9WSbX3GAmqH9XvRKM0QZoO2zmgmY6I/Pc7pW7wlHnvNQi17rT/01/HoZfhWYHGf2mN4VK41II97t41EZN/phMDzkNsYBYoI8sIJDvo8F82kt5DPIMyAjyEeBJ8CXqrFYH9UjXnDlY6SVWlxs2C9BTNZBk62EFcAjwr77xAZzninCeLUJP5qB5OQybGRj+3DbIh8CPvG6WkQ2b0ETg5/B7JFFb5uY5wxbBvQJzbB5UYx/1dNeSDSgWddALpHApKqA6OQa842cZ7m+ufoybtwXuTzu35H1iAbFAvCwgkI/XeHTkbDbD9Szw0gzJrXB3BHmqEdfsOlSzyqIvqlXhULkzPo9h4zjevHId3x6wZOzRH/6MN9++Bv/YDBJ+BooziaHEBAw/OI+om9yWN78d8gTzUGuetxHcm7apKozROX4ooR7ztA6/2f7VLLEsrkLr/l4ZzmgVmjMNZzSH08vv4sZtav0qQjYdmZRyELGAWKAtFhDIt8Ws8d7p9yC/GRKnEDgBcsuTZ8g7DYY8he4pTG+mZ1mv/rCh+pv/cAfVk5dgjuagWJNQnQz8F5Y40Y0AvyPkN6EegXybLC178s3gb3DyHmncG+l5hvowideQWt/YAoxUEc5YmRPqDG8K0+U3cOHyxyJDG+8pLGcnFhALPKUFBPJPaah+ehtBfoay6yNPfjvkOWktWPPWvQaH60m7nbx43anApbC3OY3K4s9w75uDadX/5s6XOHflv0Axj0PzKDRfQuroCTyjU4/4KpwfnMRQIvf9BjOPQb4MNVUMX/RzJXjRe8Jroo50Q0YepCtvj57YFLbxximRbwpGcgpOegrZ8msM95u318R776fJLtciFhhwCwjkB3AC7Az5KJEtKkkLIe+QFjslpC2wKIxBnrKTZZGauVOrB4J80DL2AxipIMmO1uD1ZAmqTbXxlGxXQ8KfAyXCPd5FjhLryEvf8uIJ8opPoA8hn5yBmgyTCV1qGFND6uhPkaD1dyPHsrSktT+kHUdyrIBy4y1ceIsy5gXuA3gryCWLBfreAgL5vh/i71/gfiBPWfWqVUPCqXPJWsIpsEb72A8bOMsNafanchcBXnenOMmO4E7LA9T0RXOroMx9WjMn6Vp77NT3Ic8lblu5AwR3JVXhl7oN8PSAQMp4Zoqa6FB9fQ7JI1UknMkA7lc+xs1fU1KdrLt/f5bIb8QCYoF+sIBAvh9GcZ/XsAn5TTEc8nx38uSDzHry4oMuaxXodhZ2Oo+XCufw2T/sr3d8APirUEwKyeeRSFEv+BoUO/DeCfDUG14xSzBHlrgunj35KHN+G+Dp4YBC9Epqhl+BB7+VSEgd4iyflPGysPwSDGcS1ca5oIHMrTst75i3z2GQt4sFxAJigbZbQCDfdhPH7wCBrO2W4t3jgjIR7INMdj05D1qXp25zll/HcOJFGO4kKFR/fx/r8Qz4s1ehkeZ7mhL4cmGJHB0vzJqn7ba2sQR9SpqjhxBKnKP1eg7pJ8tgsRyqeU81OERP76WXxvX9FRjJGixap09MwB8r4PTyB/hMPPf4TUg5I7GAWKBtFhDIt8208d1xAPm3WdY2SL6LwN68DcHrNKAnKfmuDM3KwRspIv1cERdWf4Gn1Wz//M7XOH32Kgw/y81mEn6dw/KKTfBuAvx2yHuBZ6+n6BzqAexdypKfhZGm9q95KFYZxsgig50iALT2Tp3qVDMDJ02AP44fV9/A2YvX8fn6V/EdFDkzsYBYQCzQBgsI5Ntg1LjvcmfIR+vcYfkZw3c2aOfq1viBgDLqSSQmW15hadenuc5/WvsKL7/6ATR7As5ohZPryCMnb9tIn/g+5LdBn0vf/DnuIU8ePEUAqBudma7DGiXPnh4EGlzWFyjV5aA7WTz7w3nMn7yCS2/9kr13af/6NKMl7xELiAX6zQIC+X4b0ae4ngjyhlMJy+gCOdugRj6CfCAja/hUalaCnW6A+qer+jFcuPzJU3nxEeAV40V4R+oYNqZg0Bq5W4PiVKA627z4bYCnEH3kwQeJeRWYI3Og3u6KmeV6ekqoowiDmSrxurvpZpCtXuB1dwrN/88//q+nsIi8RSwgFhAL9KcFBPL9Oa5PvKrHIE/Jd6FW/U6QpzVygrzl12D6eRSqK7h5a+2J+6c//mb9S7z86lUMa8eROkJleDn2ws2RBRjpBQ6z8/p5BPbN+vfoIYOWDiq8Bs8PBuTFWwUGPP3f8OtwRuc4JO8fqUDRj6E6+wYuvvVpuO6+v6z/PS9I3iAWEAuIBXrQAgL5Hhy0w54ytYWtL77NrVqp3Sy3nN3s2hYlwoUNYdxZro/X7AIS9jTqi3sn3BHgX3ntfajGBGy/CtXMc6Mb7wcvM9ytsSWo7gzDntfktwOe6uDD86F1d3t8gT141S5yqJ7C9SxF6+ShJEK4r14Ly+H+fFjzyOfFAmIBsUDfWEAg3zdD+fQXst2T3x3ytOY9z8lsulOE4Uxh9u+eDPn1jS/x2sr7sJNZuH4FSiIH219gMZ1howBKtqMXrcsP6dndtedDeV3VLYZ19CSYU4H77BJHHgjyyWdncXr5Km6yxrzA/elngLxTLCAWGBQLCOQHZaSbrnM75B8L13MtOq2VUylakHhHvdvJI0+OlnB+9dNd1+PXNr5iwCdH8khYWehWBcnxn+AZNQ/TX4Lpn+AMeUqUU5w8Z8izgh2F7Ju9+dCLp6YxiVSZa+opmc70i9DdDKaLr3P3u/Orn0jGfNO4yo9iAbGAWGC7BQTy2y0yAP+/9823mFkMSui2auS3QuSBME4dJCZDSneqUYCTLGF55UOs3dm5DG1t43d4deVdUP91yyeN+xp09wQ06wQ0ZwmacwKaG0QFKAs+4ReDlrJWEarbgDV6khPxuFzPa2BIm4aZqnKmvDtGQjYT0M0XcHr5fe5ff+/B70XMZgDmqlyiWEAscDgLCOQPZ7+e/PTOkA8S3YK1cAJ0AHnTayB95ASmspRwt7Hj9ZIs7IXV63BHMix5q1lF2KM/wZBOrVtPQXdPQneXGPLUyU5zqeUrNZ8pwByl9fYlPKNRaVyDG8nodgWjR0/B+P/bO7/WNs4sjF8sFAICMQyDmEFiZoQmspPQXtS5MUZGkRT9G8WSZdfrLIY0u4jW3sZVa7o3JWW3Jexi8hH6CZLU6dVu6mbvdjeJL5bt7saF9qaf5CnnHdt1sFSaEEXyO09AYEbOzJzfOfD4fd/zxy0jnS3BtGfU6n29fwt/3f3HwHfgRRIgARIggZMEKPInmWh/5RmRV1vjx5vgRIl3kci3YEpnOreExatbePxk8MS5uztfo7bwWzWu1c3L6rumpr2JeFv+EszswceX7nXSsa6pGtZIKdwZq6z+oLCDRXVNuuo50qVOyu0kB2B1E+/1P1MZ/ewxr31o0kASIIGXTIAi/5KBnobbPSvy0jdetuoPs+qj2nUl8n5T1Z+L2MpKfVCHu7/tPsK1392E7ZXhBA0kUgV4F5aQzNRguHWYuWO18NI5TzrSSSc7vw0711Ez3aXWXcrhMnnpjV9EwprB+Tfb6r73dnYHPvc0cOY7kgAJkMC4CVDkx+2BMTxfRL6lzuQbsPwoe/1I5D3pRteJtuv9BjJnayhU14Zu1f++f1sNr5EMfSltS9hFWLkmnClpeFOCFTQgGfKGJ73mF9QIWctfhOnKpwXDKak/EJL2LCy3gLOvN1AKN9Tq/QHb0I4hOvhIEiABnQhQ5HXy5i+0JRL5LaS8Q5GXJLjWwXAY6QPfPRB5qUufRXP5HTx+8s3Auxcub8AJVmFmFlTduzPVRcIpwchWYU83YZ2tw/ArSLrVaKCM6kEfqvG1lhsqgc+dq8HNFVGq9dDfuqVa5g7aNRj4ArxIAiRAAiQwlABFfigafb84LvJmtgIzdyjy3YMs+OVI5LMV2MEc1j/8C55+e3Lm+rXrn8Jy20g60kf+Nyo7Xrrj2fmuKpFLpmVVX4fhVWD6VbXCl6Q7aWoj0+S86Y6a7S7iLscBcrZPcdc37mgZCZDAqydAkX/1zMf+xOcR+VJ4DXd2Ts6NF4G3MyHsnPS2vxKt/v1FWLluNBM+01Bd6ky/DtOtqGMBKZuTenfTLcKdDlFrv09xH3s08AVIgAR0JkCR19m7Q2wTkY/q5BuQlbxsp0vGu2TCp7wVVd9u+XJ+XsXCrzfwaC/aqpfytc2PbmO2tApTOtnlllQinYx6laz5M3Y9Os9XZ+5h1ClPkvpUYl2IdL6GRGoGF+dXsdb7FPe+fMiV+xAf8TIJkAAJvAwCFPmXQfGU3UNEvnmYeCdNaWS73pP69S4sdwlmpgNTRD9bwXr/9pF1b69/jKRzUWXBi8CbTqh6yMsZvBVcgXt+JepH77ZUr3rTacDxW/Cm2jhjzCA4X8OlcB2bH23jq4f/OrovfyABEiABEhgNAYr8aLhO9F2fFXnJehdBl7K2KOvdSLcgSXGXwneP7FjrfQwnX4TlF9U0OUsS7XJLMNwysm8uqbP318w5NSXOzb+lWtramSZSThlutoJLpZ4S9zv3H+K77384ui9/IAESIAESGB0Bivzo2E7snX/arpf6eMl+r0ciL3XsblQ+5+QWUV14H3+69TnWep/AvxAiYYuIN1Rte8rvRoNm8rJNPwvDK8K90EZKtv6deaR9yZivo1TdwHubt3H33t+xv88hMhMbFHwxEiABLQlQ5LV0688bdVzkDVfq2KOGOGo170lL2xbSQQe5CyuYv7wBNy+d6qpI2NJ6NoT3+lWcsSuQQTNmtgZnWv5YkM51RTjycedwqdHD5gfbStyf7nO2+897hN+SAAmQwGgIUORHw3Wi7ypT6JrLf1Bz5OUs3vDlPP5gQI30lZexsn6oRsQaTgNJu6Hq2jP5VZVY95pVhimr/qCNhFNUw2bsXBVmZlb1mL/Rv6Uy8v/PlftExwFfjgRIQH8CFHn9fXzCwsNRsymZFJfrqDazSuSzB81xpOTNbagJdG5wFY6/gpS/CsPpIpVbgZldhOE11Q5AenpJdbm73N6CDJC5s/MVp8OdIM4LJEACJDAeAhT58XAf61OPRN5rHmy5X4Hhy89NWDIm1m+obfmUnM+nOzCdDmxPhF4EvYrMOelNX4KVLWO+2cP6h3/myn2sHuXDSYAESGAwAYr8YC5aX320919cWe6rJDkpn0tm6zDPhjCCEMlMXa3uZYKcISVyVk1t2zvZDmy/rtrQ2l4B1fA63ulvK3H/H8/ctY4XGkcCJHB6CVDkT6/vXvjNfxL5Mtw3FpHM1pCQ3vJBWwm8kWlBPjJAJntuFVa6iqQ5Czcoww3msda7yZX7C9PnfyQBEiCBV0eAIv/qWE/Mk46L/K/MWbWCt6eWonN2N0Qq6EDmu9vZJpL2PGy3iOB8XQ2QkR7zD3b/OTG28EVIgARIgASGE6DID2ej7TePD7brbb+EdL6N9PRbKvkumWmoZjbqTD5TRiZoqNV72JHRr5wOp21A0DASIAFtCVDktXXtcMMe732jzuSlpt1wKjAyTfWxgwU1GU4NkUnPob0cifsX9zkdbjhNfkMCJEACk0uAIj+5vhnZm4nId5ZvwPEK8Ke6sN0WUm4dTq4OK13A1BtNrPX+iLv3H2L/W3apG5kjeGMSIAESGDEBivyIAU/i7Z/s/Qed5Q2kvTmYdgFpvwHbLcHLl1EKN3BjaxsPvuYAmUn0Hd+JBEiABJ6HAEX+eWhp8rsi8ovLG3C9i8j4BThuAaVqL5rtfl/Gv7INrSauphkkQAIxJ0CRj2EAPNn7txL5XDCDUvU6Nj/4DHe/2OVs9xjGAk0mARLQmwBFXm//DrRuf/873Ly5jX7/E9zbeYCn+98P/D1eJAESIAESON0EKPKn238v/PYi9PLhPxIgARIgAX0JUOT19S0tIwESIAESiDkBinzMA4DmkwAJkAAJ6EuAIq+vb2kZCZAACZBAzAlQ5GMeADSfBEiABEhAXwIUeX19S8tIgARIgARiToAiH/MAoPkkQAIkQAL6EqDI6+tbWkYCJEACJBBzAhT5mAcAzScBEiABEtCXAEVeX9/SMhIgARIggZgToMjHPABoPgmQAAmQgL4EKPL6+paWkQAJkAAJxJwART7mAUDzSYAESIAE9CVAkdfXt7SMBEiABEgg5gQo8jGhQv1fAAAA30lEQVQPAJpPAiRAAiSgLwGKvL6+pWUkQAIkQAIxJ0CRj3kA0HwSIAESIAF9CVDk9fUtLSMBEiABEog5AYp8zAOA5pMACZAACehLgCKvr29pGQmQAAmQQMwJUORjHgA0nwRIgARIQF8CFHl9fUvLSIAESIAEYk6AIh/zAKD5JEACJEAC+hKgyOvrW1pGAiRAAiQQcwIU+ZgHAM0nARIgARLQlwBFXl/f0jISIAESIIGYE6DIxzwAaD4JkAAJkIC+BCjy+vqWlpEACZAACcScAEU+5gFA80mABEiABPQl8CN6lfd8j3XUXAAAAABJRU5ErkJggg==;" vertex="1" parent="1">
          <mxGeometry x="2125" y="167.31999999999988" width="30" height="29.88" as="geometry" />
        </mxCell>
        <mxCell id="ZrJRJ42UMuMNObL904E1-229" value="&lt;font style=&quot;font-size: 11px&quot;&gt;Delta&lt;/font&gt;" style="rounded=1;whiteSpace=wrap;html=1;verticalAlign=top;" vertex="1" parent="1">
          <mxGeometry x="717" y="374.35" width="1050" height="200" as="geometry" />
        </mxCell>
        <mxCell id="ZrJRJ42UMuMNObL904E1-230" value="" style="edgeStyle=orthogonalEdgeStyle;rounded=0;orthogonalLoop=1;jettySize=auto;html=1;entryX=0;entryY=0.5;entryDx=0;entryDy=0;" edge="1" parent="1" source="ZrJRJ42UMuMNObL904E1-231" target="ZrJRJ42UMuMNObL904E1-242">
          <mxGeometry relative="1" as="geometry">
            <mxPoint x="877" y="464.35" as="targetPoint" />
          </mxGeometry>
        </mxCell>
        <mxCell id="ZrJRJ42UMuMNObL904E1-231" value="CS get previous payment requests" style="rounded=1;whiteSpace=wrap;html=1;verticalAlign=top;" vertex="1" parent="1">
          <mxGeometry x="727" y="444.35" width="120" height="40" as="geometry" />
        </mxCell>
        <mxCell id="ZrJRJ42UMuMNObL904E1-232" value="" style="shape=image;verticalLabelPosition=bottom;labelBackgroundColor=#ffffff;verticalAlign=top;aspect=fixed;imageAspect=0;image=https://cdn.freelogovectors.net/wp-content/uploads/2019/02/sql-server-logo.png;" vertex="1" parent="1">
          <mxGeometry x="1227" y="403.83000000000004" width="30" height="24.52" as="geometry" />
        </mxCell>
        <mxCell id="ZrJRJ42UMuMNObL904E1-233" value="" style="edgeStyle=orthogonalEdgeStyle;rounded=0;orthogonalLoop=1;jettySize=auto;html=1;" edge="1" parent="1" source="ZrJRJ42UMuMNObL904E1-234" target="ZrJRJ42UMuMNObL904E1-238">
          <mxGeometry relative="1" as="geometry" />
        </mxCell>
        <mxCell id="ZrJRJ42UMuMNObL904E1-234" value="BPS get previous payment requests" style="rounded=1;whiteSpace=wrap;html=1;verticalAlign=top;" vertex="1" parent="1">
          <mxGeometry x="727" y="519.35" width="120" height="40" as="geometry" />
        </mxCell>
        <mxCell id="ZrJRJ42UMuMNObL904E1-235" value="" style="shape=image;html=1;verticalAlign=top;verticalLabelPosition=bottom;labelBackgroundColor=#ffffff;imageAspect=0;aspect=fixed;image=https://cdn2.iconfinder.com/data/icons/new-year-resolutions/64/resolutions-03-128.png" vertex="1" parent="1">
          <mxGeometry x="827" y="428.35" width="30" height="30" as="geometry" />
        </mxCell>
        <mxCell id="ZrJRJ42UMuMNObL904E1-236" value="" style="shape=image;html=1;verticalAlign=top;verticalLabelPosition=bottom;labelBackgroundColor=#ffffff;imageAspect=0;aspect=fixed;image=https://cdn2.iconfinder.com/data/icons/new-year-resolutions/64/resolutions-03-128.png" vertex="1" parent="1">
          <mxGeometry x="827" y="502.90999999999997" width="30" height="30" as="geometry" />
        </mxCell>
        <mxCell id="ZrJRJ42UMuMNObL904E1-237" value="" style="edgeStyle=orthogonalEdgeStyle;rounded=0;orthogonalLoop=1;jettySize=auto;html=1;fontSize=11;" edge="1" parent="1" source="ZrJRJ42UMuMNObL904E1-238" target="ZrJRJ42UMuMNObL904E1-240">
          <mxGeometry relative="1" as="geometry" />
        </mxCell>
        <mxCell id="ZrJRJ42UMuMNObL904E1-238" value="BPS calculate delta" style="rounded=1;whiteSpace=wrap;html=1;verticalAlign=middle;fontSize=12;" vertex="1" parent="1">
          <mxGeometry x="877" y="519.35" width="120" height="40" as="geometry" />
        </mxCell>
        <mxCell id="ZrJRJ42UMuMNObL904E1-240" value="BPS build updated invoice" style="rounded=1;whiteSpace=wrap;html=1;verticalAlign=middle;fontSize=12;" vertex="1" parent="1">
          <mxGeometry x="1027" y="519.35" width="120" height="40" as="geometry" />
        </mxCell>
        <mxCell id="ZrJRJ42UMuMNObL904E1-241" value="" style="edgeStyle=orthogonalEdgeStyle;rounded=0;orthogonalLoop=1;jettySize=auto;html=1;fontSize=11;" edge="1" parent="1" source="ZrJRJ42UMuMNObL904E1-242" target="ZrJRJ42UMuMNObL904E1-244">
          <mxGeometry relative="1" as="geometry" />
        </mxCell>
        <mxCell id="ZrJRJ42UMuMNObL904E1-242" value="CS get previous funding rates" style="rounded=1;whiteSpace=wrap;html=1;verticalAlign=middle;" vertex="1" parent="1">
          <mxGeometry x="877" y="444.35" width="120" height="40" as="geometry" />
        </mxCell>
        <mxCell id="ZrJRJ42UMuMNObL904E1-243" value="" style="edgeStyle=orthogonalEdgeStyle;rounded=0;orthogonalLoop=1;jettySize=auto;html=1;fontSize=12;" edge="1" parent="1" source="ZrJRJ42UMuMNObL904E1-244" target="ZrJRJ42UMuMNObL904E1-247">
          <mxGeometry relative="1" as="geometry" />
        </mxCell>
        <mxCell id="ZrJRJ42UMuMNObL904E1-244" value="CS build funding splits" style="rounded=1;whiteSpace=wrap;html=1;verticalAlign=middle;" vertex="1" parent="1">
          <mxGeometry x="1027" y="444.35" width="120" height="40" as="geometry" />
        </mxCell>
        <mxCell id="ZrJRJ42UMuMNObL904E1-250" value="" style="edgeStyle=orthogonalEdgeStyle;rounded=0;orthogonalLoop=1;jettySize=auto;html=1;fontSize=12;" edge="1" parent="1" source="ZrJRJ42UMuMNObL904E1-247" target="ZrJRJ42UMuMNObL904E1-249">
          <mxGeometry relative="1" as="geometry" />
        </mxCell>
        <mxCell id="ZrJRJ42UMuMNObL904E1-247" value="CS calculate delta" style="rounded=1;whiteSpace=wrap;html=1;verticalAlign=middle;" vertex="1" parent="1">
          <mxGeometry x="1177" y="444.35" width="120" height="40" as="geometry" />
        </mxCell>
        <mxCell id="ZrJRJ42UMuMNObL904E1-252" value="" style="edgeStyle=orthogonalEdgeStyle;rounded=0;orthogonalLoop=1;jettySize=auto;html=1;fontSize=12;" edge="1" parent="1" source="ZrJRJ42UMuMNObL904E1-249" target="ZrJRJ42UMuMNObL904E1-251">
          <mxGeometry relative="1" as="geometry" />
        </mxCell>
        <mxCell id="ZrJRJ42UMuMNObL904E1-249" value="CS report hidden recoveries/top ups" style="rounded=1;whiteSpace=wrap;html=1;verticalAlign=middle;" vertex="1" parent="1">
          <mxGeometry x="1327" y="444.35" width="120" height="40" as="geometry" />
        </mxCell>
        <mxCell id="ZrJRJ42UMuMNObL904E1-254" value="" style="edgeStyle=orthogonalEdgeStyle;rounded=0;orthogonalLoop=1;jettySize=auto;html=1;fontSize=12;" edge="1" parent="1" source="ZrJRJ42UMuMNObL904E1-251" target="ZrJRJ42UMuMNObL904E1-253">
          <mxGeometry relative="1" as="geometry" />
        </mxCell>
        <mxCell id="ZrJRJ42UMuMNObL904E1-251" value="CS populate split for SRE" style="rounded=1;whiteSpace=wrap;html=1;verticalAlign=middle;" vertex="1" parent="1">
          <mxGeometry x="1477" y="444.35" width="120" height="40" as="geometry" />
        </mxCell>
        <mxCell id="ZrJRJ42UMuMNObL904E1-253" value="CS build updated invoice" style="rounded=1;whiteSpace=wrap;html=1;verticalAlign=middle;" vertex="1" parent="1">
          <mxGeometry x="1627" y="444.35" width="120" height="40" as="geometry" />
        </mxCell>
        <mxCell id="ZrJRJ42UMuMNObL904E1-256" value="Payment Processor" style="rounded=1;whiteSpace=wrap;html=1;verticalAlign=top;" vertex="1" parent="1">
          <mxGeometry x="567" y="374.35" width="140" height="210.73" as="geometry" />
        </mxCell>
        <mxCell id="ZrJRJ42UMuMNObL904E1-257" value="" style="shape=image;verticalLabelPosition=bottom;labelBackgroundColor=#ffffff;verticalAlign=top;aspect=fixed;imageAspect=0;image=https://www.alliedc.com/wp-content/uploads/2017/07/biztalk-logo.png;" vertex="1" parent="1">
          <mxGeometry x="607" y="398.32000000000005" width="60" height="31.52" as="geometry" />
        </mxCell>
        <mxCell id="ZrJRJ42UMuMNObL904E1-262" style="edgeStyle=orthogonalEdgeStyle;rounded=0;orthogonalLoop=1;jettySize=auto;html=1;fontSize=6;" edge="1" parent="1" source="ZrJRJ42UMuMNObL904E1-258" target="ZrJRJ42UMuMNObL904E1-231">
          <mxGeometry relative="1" as="geometry" />
        </mxCell>
        <mxCell id="ZrJRJ42UMuMNObL904E1-258" value="CS orchestration" style="rounded=1;whiteSpace=wrap;html=1;verticalAlign=top;" vertex="1" parent="1">
          <mxGeometry x="577" y="435.08000000000004" width="120" height="60" as="geometry" />
        </mxCell>
        <mxCell id="ZrJRJ42UMuMNObL904E1-263" style="edgeStyle=orthogonalEdgeStyle;rounded=0;orthogonalLoop=1;jettySize=auto;html=1;fontSize=6;" edge="1" parent="1" source="ZrJRJ42UMuMNObL904E1-259" target="ZrJRJ42UMuMNObL904E1-234">
          <mxGeometry relative="1" as="geometry" />
        </mxCell>
        <mxCell id="ZrJRJ42UMuMNObL904E1-259" value="BPS orchestration" style="rounded=1;whiteSpace=wrap;html=1;verticalAlign=top;" vertex="1" parent="1">
          <mxGeometry x="577" y="510.08000000000004" width="120" height="60" as="geometry" />
        </mxCell>
        <mxCell id="ZrJRJ42UMuMNObL904E1-260" value="" style="shape=message;html=1;whiteSpace=wrap;html=1;outlineConnect=0;fontSize=12;verticalAlign=middle;aspect=fixed;" vertex="1" parent="1">
          <mxGeometry x="622" y="464.0300000000001" width="30" height="20" as="geometry" />
        </mxCell>
        <mxCell id="ZrJRJ42UMuMNObL904E1-261" value="" style="shape=message;html=1;whiteSpace=wrap;html=1;outlineConnect=0;fontSize=12;verticalAlign=middle;aspect=fixed;" vertex="1" parent="1">
          <mxGeometry x="622" y="539.0300000000001" width="30" height="20" as="geometry" />
        </mxCell>
        <mxCell id="ZrJRJ42UMuMNObL904E1-264" value="Payment Processor" style="rounded=1;whiteSpace=wrap;html=1;verticalAlign=top;" vertex="1" parent="1">
          <mxGeometry x="1787" y="374.35" width="140" height="210.73" as="geometry" />
        </mxCell>
        <mxCell id="ZrJRJ42UMuMNObL904E1-265" value="" style="shape=image;verticalLabelPosition=bottom;labelBackgroundColor=#ffffff;verticalAlign=top;aspect=fixed;imageAspect=0;image=https://www.alliedc.com/wp-content/uploads/2017/07/biztalk-logo.png;" vertex="1" parent="1">
          <mxGeometry x="1827" y="398.32000000000005" width="60" height="31.52" as="geometry" />
        </mxCell>
        <mxCell id="ZrJRJ42UMuMNObL904E1-266" value="CS orchestration" style="rounded=1;whiteSpace=wrap;html=1;verticalAlign=top;" vertex="1" parent="1">
          <mxGeometry x="1797" y="435.08000000000004" width="120" height="60" as="geometry" />
        </mxCell>
        <mxCell id="ZrJRJ42UMuMNObL904E1-267" value="BPS orchestration" style="rounded=1;whiteSpace=wrap;html=1;verticalAlign=top;" vertex="1" parent="1">
          <mxGeometry x="1797" y="510.08000000000004" width="120" height="60" as="geometry" />
        </mxCell>
        <mxCell id="ZrJRJ42UMuMNObL904E1-268" value="" style="shape=message;html=1;whiteSpace=wrap;html=1;outlineConnect=0;fontSize=12;verticalAlign=middle;aspect=fixed;" vertex="1" parent="1">
          <mxGeometry x="1842" y="464.0300000000001" width="30" height="20" as="geometry" />
        </mxCell>
        <mxCell id="ZrJRJ42UMuMNObL904E1-269" value="" style="shape=message;html=1;whiteSpace=wrap;html=1;outlineConnect=0;fontSize=12;verticalAlign=middle;aspect=fixed;" vertex="1" parent="1">
          <mxGeometry x="1842" y="539.0300000000001" width="30" height="20" as="geometry" />
        </mxCell>
        <mxCell id="ZrJRJ42UMuMNObL904E1-239" value="" style="edgeStyle=orthogonalEdgeStyle;rounded=0;orthogonalLoop=1;jettySize=auto;html=1;fontSize=11;entryX=0;entryY=0.5;entryDx=0;entryDy=0;" edge="1" parent="1" source="ZrJRJ42UMuMNObL904E1-240" target="ZrJRJ42UMuMNObL904E1-267">
          <mxGeometry relative="1" as="geometry">
            <mxPoint x="1177" y="539.35" as="targetPoint" />
          </mxGeometry>
        </mxCell>
        <mxCell id="ZrJRJ42UMuMNObL904E1-270" style="edgeStyle=orthogonalEdgeStyle;rounded=0;orthogonalLoop=1;jettySize=auto;html=1;fontSize=6;" edge="1" parent="1" source="ZrJRJ42UMuMNObL904E1-253" target="ZrJRJ42UMuMNObL904E1-266">
          <mxGeometry relative="1" as="geometry" />
        </mxCell>
        <mxCell id="ZrJRJ42UMuMNObL904E1-271" value="" style="shape=image;verticalLabelPosition=bottom;labelBackgroundColor=#ffffff;verticalAlign=top;aspect=fixed;imageAspect=0;image=https://cdn.freelogovectors.net/wp-content/uploads/2019/02/sql-server-logo.png;" vertex="1" parent="1">
          <mxGeometry x="1585" y="74.00000000000001" width="30" height="24.52" as="geometry" />
        </mxCell>
        <mxCell id="ZrJRJ42UMuMNObL904E1-273" value="&lt;font style=&quot;font-size: 11px&quot;&gt;Settlement Request Editor&lt;/font&gt;" style="rounded=1;whiteSpace=wrap;html=1;verticalAlign=top;" vertex="1" parent="1">
          <mxGeometry x="717" y="594.35" width="1050" height="270" as="geometry" />
        </mxCell>
        <mxCell id="ZrJRJ42UMuMNObL904E1-317" value="" style="edgeStyle=orthogonalEdgeStyle;rounded=0;orthogonalLoop=1;jettySize=auto;html=1;fontSize=6;" edge="1" parent="1" source="ZrJRJ42UMuMNObL904E1-275" target="ZrJRJ42UMuMNObL904E1-316">
          <mxGeometry relative="1" as="geometry" />
        </mxCell>
        <mxCell id="ZrJRJ42UMuMNObL904E1-275" value="CS load invoices" style="rounded=1;whiteSpace=wrap;html=1;verticalAlign=middle;" vertex="1" parent="1">
          <mxGeometry x="727" y="664.35" width="120" height="40" as="geometry" />
        </mxCell>
        <mxCell id="ZrJRJ42UMuMNObL904E1-277" value="" style="edgeStyle=orthogonalEdgeStyle;rounded=0;orthogonalLoop=1;jettySize=auto;html=1;" edge="1" parent="1" source="ZrJRJ42UMuMNObL904E1-278">
          <mxGeometry relative="1" as="geometry">
            <mxPoint x="877" y="759.35" as="targetPoint" />
          </mxGeometry>
        </mxCell>
        <mxCell id="ZrJRJ42UMuMNObL904E1-278" value="BPS load invoices" style="rounded=1;whiteSpace=wrap;html=1;verticalAlign=middle;" vertex="1" parent="1">
          <mxGeometry x="727" y="739.35" width="120" height="40" as="geometry" />
        </mxCell>
        <mxCell id="ZrJRJ42UMuMNObL904E1-279" value="" style="shape=image;html=1;verticalAlign=top;verticalLabelPosition=bottom;labelBackgroundColor=#ffffff;imageAspect=0;aspect=fixed;image=https://cdn2.iconfinder.com/data/icons/new-year-resolutions/64/resolutions-03-128.png" vertex="1" parent="1">
          <mxGeometry x="827" y="648.35" width="30" height="30" as="geometry" />
        </mxCell>
        <mxCell id="ZrJRJ42UMuMNObL904E1-280" value="" style="shape=image;html=1;verticalAlign=top;verticalLabelPosition=bottom;labelBackgroundColor=#ffffff;imageAspect=0;aspect=fixed;image=https://cdn2.iconfinder.com/data/icons/new-year-resolutions/64/resolutions-03-128.png" vertex="1" parent="1">
          <mxGeometry x="827" y="722.91" width="30" height="30" as="geometry" />
        </mxCell>
        <mxCell id="ZrJRJ42UMuMNObL904E1-295" value="Payment Processor" style="rounded=1;whiteSpace=wrap;html=1;verticalAlign=top;" vertex="1" parent="1">
          <mxGeometry x="567" y="594.35" width="140" height="210.73" as="geometry" />
        </mxCell>
        <mxCell id="ZrJRJ42UMuMNObL904E1-296" value="" style="shape=image;verticalLabelPosition=bottom;labelBackgroundColor=#ffffff;verticalAlign=top;aspect=fixed;imageAspect=0;image=https://www.alliedc.com/wp-content/uploads/2017/07/biztalk-logo.png;" vertex="1" parent="1">
          <mxGeometry x="607" y="618.32" width="60" height="31.52" as="geometry" />
        </mxCell>
        <mxCell id="ZrJRJ42UMuMNObL904E1-297" style="edgeStyle=orthogonalEdgeStyle;rounded=0;orthogonalLoop=1;jettySize=auto;html=1;fontSize=6;" edge="1" parent="1" source="ZrJRJ42UMuMNObL904E1-298" target="ZrJRJ42UMuMNObL904E1-275">
          <mxGeometry relative="1" as="geometry" />
        </mxCell>
        <mxCell id="ZrJRJ42UMuMNObL904E1-298" value="CS orchestration" style="rounded=1;whiteSpace=wrap;html=1;verticalAlign=top;" vertex="1" parent="1">
          <mxGeometry x="577" y="655.08" width="120" height="60" as="geometry" />
        </mxCell>
        <mxCell id="ZrJRJ42UMuMNObL904E1-299" style="edgeStyle=orthogonalEdgeStyle;rounded=0;orthogonalLoop=1;jettySize=auto;html=1;fontSize=6;" edge="1" parent="1" source="ZrJRJ42UMuMNObL904E1-300" target="ZrJRJ42UMuMNObL904E1-278">
          <mxGeometry relative="1" as="geometry" />
        </mxCell>
        <mxCell id="ZrJRJ42UMuMNObL904E1-314" style="edgeStyle=orthogonalEdgeStyle;rounded=0;orthogonalLoop=1;jettySize=auto;html=1;entryX=0;entryY=0.5;entryDx=0;entryDy=0;fontSize=6;" edge="1" parent="1" source="ZrJRJ42UMuMNObL904E1-300" target="ZrJRJ42UMuMNObL904E1-312">
          <mxGeometry relative="1" as="geometry">
            <Array as="points">
              <mxPoint x="707" y="760.35" />
              <mxPoint x="707" y="824.35" />
            </Array>
          </mxGeometry>
        </mxCell>
        <mxCell id="ZrJRJ42UMuMNObL904E1-300" value="BPS orchestration" style="rounded=1;whiteSpace=wrap;html=1;verticalAlign=top;" vertex="1" parent="1">
          <mxGeometry x="577" y="730.08" width="120" height="60" as="geometry" />
        </mxCell>
        <mxCell id="ZrJRJ42UMuMNObL904E1-301" value="" style="shape=message;html=1;whiteSpace=wrap;html=1;outlineConnect=0;fontSize=12;verticalAlign=middle;aspect=fixed;" vertex="1" parent="1">
          <mxGeometry x="622" y="684.0300000000001" width="30" height="20" as="geometry" />
        </mxCell>
        <mxCell id="ZrJRJ42UMuMNObL904E1-302" value="" style="shape=message;html=1;whiteSpace=wrap;html=1;outlineConnect=0;fontSize=12;verticalAlign=middle;aspect=fixed;" vertex="1" parent="1">
          <mxGeometry x="622" y="759.0300000000001" width="30" height="20" as="geometry" />
        </mxCell>
        <mxCell id="ZrJRJ42UMuMNObL904E1-303" value="Payment Processor" style="rounded=1;whiteSpace=wrap;html=1;verticalAlign=top;" vertex="1" parent="1">
          <mxGeometry x="1787" y="594.35" width="140" height="210.73" as="geometry" />
        </mxCell>
        <mxCell id="ZrJRJ42UMuMNObL904E1-304" value="" style="shape=image;verticalLabelPosition=bottom;labelBackgroundColor=#ffffff;verticalAlign=top;aspect=fixed;imageAspect=0;image=https://www.alliedc.com/wp-content/uploads/2017/07/biztalk-logo.png;" vertex="1" parent="1">
          <mxGeometry x="1827" y="618.32" width="60" height="31.52" as="geometry" />
        </mxCell>
        <mxCell id="ZrJRJ42UMuMNObL904E1-305" value="CS orchestration" style="rounded=1;whiteSpace=wrap;html=1;verticalAlign=top;" vertex="1" parent="1">
          <mxGeometry x="1797" y="655.08" width="120" height="60" as="geometry" />
        </mxCell>
        <mxCell id="ZrJRJ42UMuMNObL904E1-306" value="BPS orchestration" style="rounded=1;whiteSpace=wrap;html=1;verticalAlign=top;" vertex="1" parent="1">
          <mxGeometry x="1797" y="729.08" width="120" height="60" as="geometry" />
        </mxCell>
        <mxCell id="ZrJRJ42UMuMNObL904E1-307" value="" style="shape=message;html=1;whiteSpace=wrap;html=1;outlineConnect=0;fontSize=12;verticalAlign=middle;aspect=fixed;" vertex="1" parent="1">
          <mxGeometry x="1842" y="684.0300000000001" width="30" height="20" as="geometry" />
        </mxCell>
        <mxCell id="ZrJRJ42UMuMNObL904E1-308" value="" style="shape=message;html=1;whiteSpace=wrap;html=1;outlineConnect=0;fontSize=12;verticalAlign=middle;aspect=fixed;" vertex="1" parent="1">
          <mxGeometry x="1842" y="758.0300000000001" width="30" height="20" as="geometry" />
        </mxCell>
        <mxCell id="ZrJRJ42UMuMNObL904E1-310" style="edgeStyle=orthogonalEdgeStyle;rounded=0;orthogonalLoop=1;jettySize=auto;html=1;fontSize=6;" edge="1" parent="1" target="ZrJRJ42UMuMNObL904E1-305">
          <mxGeometry relative="1" as="geometry">
            <mxPoint x="1747" y="684.35" as="sourcePoint" />
          </mxGeometry>
        </mxCell>
        <mxCell id="ZrJRJ42UMuMNObL904E1-311" value="" style="shape=image;verticalLabelPosition=bottom;labelBackgroundColor=#ffffff;verticalAlign=top;aspect=fixed;imageAspect=0;image=https://upload.wikimedia.org/wikipedia/commons/thumb/a/a3/.NET_Logo.svg/456px-.NET_Logo.svg.png;" vertex="1" parent="1">
          <mxGeometry x="1222" y="625.08" width="30" height="30" as="geometry" />
        </mxCell>
        <mxCell id="ZrJRJ42UMuMNObL904E1-328" style="edgeStyle=orthogonalEdgeStyle;rounded=0;orthogonalLoop=1;jettySize=auto;html=1;entryX=0;entryY=0.5;entryDx=0;entryDy=0;fontSize=6;" edge="1" parent="1" source="ZrJRJ42UMuMNObL904E1-312" target="ZrJRJ42UMuMNObL904E1-327">
          <mxGeometry relative="1" as="geometry" />
        </mxCell>
        <mxCell id="ZrJRJ42UMuMNObL904E1-312" value="FDMR load invoices" style="rounded=1;whiteSpace=wrap;html=1;verticalAlign=middle;" vertex="1" parent="1">
          <mxGeometry x="727" y="804.35" width="120" height="40" as="geometry" />
        </mxCell>
        <mxCell id="ZrJRJ42UMuMNObL904E1-315" value="" style="shape=image;html=1;verticalAlign=top;verticalLabelPosition=bottom;labelBackgroundColor=#ffffff;imageAspect=0;aspect=fixed;image=https://cdn2.iconfinder.com/data/icons/new-year-resolutions/64/resolutions-03-128.png" vertex="1" parent="1">
          <mxGeometry x="827" y="790.08" width="30" height="30" as="geometry" />
        </mxCell>
        <mxCell id="ZrJRJ42UMuMNObL904E1-324" value="" style="edgeStyle=orthogonalEdgeStyle;rounded=0;orthogonalLoop=1;jettySize=auto;html=1;fontSize=6;" edge="1" parent="1" source="ZrJRJ42UMuMNObL904E1-316" target="ZrJRJ42UMuMNObL904E1-323">
          <mxGeometry relative="1" as="geometry" />
        </mxCell>
        <mxCell id="ZrJRJ42UMuMNObL904E1-316" value="CS try auto enrich invoices" style="rounded=1;whiteSpace=wrap;html=1;verticalAlign=top;" vertex="1" parent="1">
          <mxGeometry x="877" y="664.0300000000001" width="120" height="40" as="geometry" />
        </mxCell>
        <mxCell id="ZrJRJ42UMuMNObL904E1-326" value="" style="edgeStyle=orthogonalEdgeStyle;rounded=0;orthogonalLoop=1;jettySize=auto;html=1;fontSize=6;" edge="1" parent="1" source="ZrJRJ42UMuMNObL904E1-318" target="ZrJRJ42UMuMNObL904E1-325">
          <mxGeometry relative="1" as="geometry" />
        </mxCell>
        <mxCell id="ZrJRJ42UMuMNObL904E1-318" value="BPS try auto enrich invoices" style="rounded=1;whiteSpace=wrap;html=1;verticalAlign=top;" vertex="1" parent="1">
          <mxGeometry x="877" y="739.0300000000001" width="120" height="40" as="geometry" />
        </mxCell>
        <mxCell id="ZrJRJ42UMuMNObL904E1-336" value="" style="edgeStyle=orthogonalEdgeStyle;rounded=0;orthogonalLoop=1;jettySize=auto;html=1;fontSize=6;" edge="1" parent="1" source="ZrJRJ42UMuMNObL904E1-323" target="ZrJRJ42UMuMNObL904E1-335">
          <mxGeometry relative="1" as="geometry" />
        </mxCell>
        <mxCell id="ZrJRJ42UMuMNObL904E1-323" value="CS allow manual enrichment" style="rounded=1;whiteSpace=wrap;html=1;verticalAlign=top;" vertex="1" parent="1">
          <mxGeometry x="1027" y="664.0300000000001" width="120" height="40" as="geometry" />
        </mxCell>
        <mxCell id="ZrJRJ42UMuMNObL904E1-347" value="" style="edgeStyle=orthogonalEdgeStyle;rounded=0;orthogonalLoop=1;jettySize=auto;html=1;fontSize=6;" edge="1" parent="1" source="ZrJRJ42UMuMNObL904E1-325" target="ZrJRJ42UMuMNObL904E1-346">
          <mxGeometry relative="1" as="geometry" />
        </mxCell>
        <mxCell id="ZrJRJ42UMuMNObL904E1-325" value="BPS allow manual enrichment" style="rounded=1;whiteSpace=wrap;html=1;verticalAlign=top;" vertex="1" parent="1">
          <mxGeometry x="1027" y="739.0300000000001" width="120" height="40" as="geometry" />
        </mxCell>
        <mxCell id="ZrJRJ42UMuMNObL904E1-352" value="" style="edgeStyle=orthogonalEdgeStyle;rounded=0;orthogonalLoop=1;jettySize=auto;html=1;fontSize=6;" edge="1" parent="1" source="ZrJRJ42UMuMNObL904E1-327" target="ZrJRJ42UMuMNObL904E1-351">
          <mxGeometry relative="1" as="geometry" />
        </mxCell>
        <mxCell id="ZrJRJ42UMuMNObL904E1-327" value="FDMR allow manual enrichment" style="rounded=1;whiteSpace=wrap;html=1;verticalAlign=top;" vertex="1" parent="1">
          <mxGeometry x="1027" y="804.35" width="120" height="40" as="geometry" />
        </mxCell>
        <mxCell id="ZrJRJ42UMuMNObL904E1-329" value="" style="verticalLabelPosition=bottom;html=1;verticalAlign=top;align=center;strokeColor=none;fillColor=#00BEF2;shape=mxgraph.azure.user;dashed=1;fontSize=6;" vertex="1" parent="1">
          <mxGeometry x="1127" y="643.35" width="20" height="20" as="geometry" />
        </mxCell>
        <mxCell id="ZrJRJ42UMuMNObL904E1-332" value="" style="verticalLabelPosition=bottom;html=1;verticalAlign=top;align=center;strokeColor=none;fillColor=#00BEF2;shape=mxgraph.azure.user;dashed=1;fontSize=6;" vertex="1" parent="1">
          <mxGeometry x="1127" y="719.0300000000001" width="20" height="20" as="geometry" />
        </mxCell>
        <mxCell id="ZrJRJ42UMuMNObL904E1-333" value="" style="verticalLabelPosition=bottom;html=1;verticalAlign=top;align=center;strokeColor=none;fillColor=#00BEF2;shape=mxgraph.azure.user;dashed=1;fontSize=6;" vertex="1" parent="1">
          <mxGeometry x="1127" y="784.35" width="20" height="20" as="geometry" />
        </mxCell>
        <mxCell id="ZrJRJ42UMuMNObL904E1-338" value="" style="edgeStyle=orthogonalEdgeStyle;rounded=0;orthogonalLoop=1;jettySize=auto;html=1;fontSize=6;" edge="1" parent="1" source="ZrJRJ42UMuMNObL904E1-335" target="ZrJRJ42UMuMNObL904E1-337">
          <mxGeometry relative="1" as="geometry" />
        </mxCell>
        <mxCell id="ZrJRJ42UMuMNObL904E1-335" value="CS split invoice" style="rounded=1;whiteSpace=wrap;html=1;verticalAlign=middle;" vertex="1" parent="1">
          <mxGeometry x="1182" y="663.35" width="120" height="40" as="geometry" />
        </mxCell>
        <mxCell id="ZrJRJ42UMuMNObL904E1-340" value="" style="edgeStyle=orthogonalEdgeStyle;rounded=0;orthogonalLoop=1;jettySize=auto;html=1;fontSize=6;" edge="1" parent="1" source="ZrJRJ42UMuMNObL904E1-337" target="ZrJRJ42UMuMNObL904E1-339">
          <mxGeometry relative="1" as="geometry" />
        </mxCell>
        <mxCell id="ZrJRJ42UMuMNObL904E1-337" value="CS allow permanent hold" style="rounded=1;whiteSpace=wrap;html=1;verticalAlign=middle;" vertex="1" parent="1">
          <mxGeometry x="1337" y="663.35" width="120" height="40" as="geometry" />
        </mxCell>
        <mxCell id="ZrJRJ42UMuMNObL904E1-342" style="edgeStyle=orthogonalEdgeStyle;rounded=0;orthogonalLoop=1;jettySize=auto;html=1;entryX=0;entryY=0.5;entryDx=0;entryDy=0;fontSize=6;" edge="1" parent="1" source="ZrJRJ42UMuMNObL904E1-339" target="ZrJRJ42UMuMNObL904E1-341">
          <mxGeometry relative="1" as="geometry" />
        </mxCell>
        <mxCell id="ZrJRJ42UMuMNObL904E1-339" value="CS assign ledger" style="rounded=1;whiteSpace=wrap;html=1;verticalAlign=middle;" vertex="1" parent="1">
          <mxGeometry x="1487" y="663.35" width="120" height="40" as="geometry" />
        </mxCell>
        <mxCell id="ZrJRJ42UMuMNObL904E1-341" value="CS build invoice" style="rounded=1;whiteSpace=wrap;html=1;verticalAlign=middle;" vertex="1" parent="1">
          <mxGeometry x="1627" y="663.35" width="120" height="40" as="geometry" />
        </mxCell>
        <mxCell id="ZrJRJ42UMuMNObL904E1-343" value="" style="verticalLabelPosition=bottom;html=1;verticalAlign=top;align=center;strokeColor=none;fillColor=#00BEF2;shape=mxgraph.azure.user;dashed=1;fontSize=6;" vertex="1" parent="1">
          <mxGeometry x="1282" y="643.35" width="20" height="20" as="geometry" />
        </mxCell>
        <mxCell id="ZrJRJ42UMuMNObL904E1-344" value="" style="verticalLabelPosition=bottom;html=1;verticalAlign=top;align=center;strokeColor=none;fillColor=#00BEF2;shape=mxgraph.azure.user;dashed=1;fontSize=6;" vertex="1" parent="1">
          <mxGeometry x="1437" y="643.35" width="20" height="20" as="geometry" />
        </mxCell>
        <mxCell id="ZrJRJ42UMuMNObL904E1-345" value="" style="verticalLabelPosition=bottom;html=1;verticalAlign=top;align=center;strokeColor=none;fillColor=#00BEF2;shape=mxgraph.azure.user;dashed=1;fontSize=6;" vertex="1" parent="1">
          <mxGeometry x="1587" y="644.35" width="20" height="20" as="geometry" />
        </mxCell>
        <mxCell id="ZrJRJ42UMuMNObL904E1-349" value="" style="edgeStyle=orthogonalEdgeStyle;rounded=0;orthogonalLoop=1;jettySize=auto;html=1;fontSize=6;" edge="1" parent="1" source="ZrJRJ42UMuMNObL904E1-346" target="ZrJRJ42UMuMNObL904E1-348">
          <mxGeometry relative="1" as="geometry" />
        </mxCell>
        <mxCell id="ZrJRJ42UMuMNObL904E1-346" value="BPS assign ledger" style="rounded=1;whiteSpace=wrap;html=1;verticalAlign=middle;" vertex="1" parent="1">
          <mxGeometry x="1487" y="739.0300000000001" width="120" height="40" as="geometry" />
        </mxCell>
        <mxCell id="ZrJRJ42UMuMNObL904E1-355" style="edgeStyle=orthogonalEdgeStyle;rounded=0;orthogonalLoop=1;jettySize=auto;html=1;entryX=0;entryY=0.5;entryDx=0;entryDy=0;fontSize=6;" edge="1" parent="1" source="ZrJRJ42UMuMNObL904E1-348" target="ZrJRJ42UMuMNObL904E1-306">
          <mxGeometry relative="1" as="geometry" />
        </mxCell>
        <mxCell id="ZrJRJ42UMuMNObL904E1-348" value="BPS build invoice" style="rounded=1;whiteSpace=wrap;html=1;verticalAlign=middle;" vertex="1" parent="1">
          <mxGeometry x="1627" y="739.0300000000001" width="120" height="40" as="geometry" />
        </mxCell>
        <mxCell id="ZrJRJ42UMuMNObL904E1-354" value="" style="edgeStyle=orthogonalEdgeStyle;rounded=0;orthogonalLoop=1;jettySize=auto;html=1;fontSize=6;" edge="1" parent="1" source="ZrJRJ42UMuMNObL904E1-351" target="ZrJRJ42UMuMNObL904E1-353">
          <mxGeometry relative="1" as="geometry" />
        </mxCell>
        <mxCell id="ZrJRJ42UMuMNObL904E1-351" value="FDMR assign ledger" style="rounded=1;whiteSpace=wrap;html=1;verticalAlign=middle;" vertex="1" parent="1">
          <mxGeometry x="1487" y="804.35" width="120" height="40" as="geometry" />
        </mxCell>
        <mxCell id="ZrJRJ42UMuMNObL904E1-356" style="edgeStyle=orthogonalEdgeStyle;rounded=0;orthogonalLoop=1;jettySize=auto;html=1;entryX=0;entryY=0.5;entryDx=0;entryDy=0;fontSize=6;" edge="1" parent="1" source="ZrJRJ42UMuMNObL904E1-353" target="ZrJRJ42UMuMNObL904E1-306">
          <mxGeometry relative="1" as="geometry" />
        </mxCell>
        <mxCell id="ZrJRJ42UMuMNObL904E1-353" value="FDMR build invoice" style="rounded=1;whiteSpace=wrap;html=1;verticalAlign=middle;" vertex="1" parent="1">
          <mxGeometry x="1627" y="805.08" width="120" height="40" as="geometry" />
        </mxCell>
        <mxCell id="ZrJRJ42UMuMNObL904E1-357" value="&lt;font style=&quot;font-size: 11px&quot;&gt;Quality Check&lt;/font&gt;" style="rounded=1;whiteSpace=wrap;html=1;verticalAlign=top;" vertex="1" parent="1">
          <mxGeometry x="717" y="876.35" width="440" height="210" as="geometry" />
        </mxCell>
        <mxCell id="ZrJRJ42UMuMNObL904E1-358" value="" style="edgeStyle=orthogonalEdgeStyle;rounded=0;orthogonalLoop=1;jettySize=auto;html=1;fontSize=6;" edge="1" parent="1" source="ZrJRJ42UMuMNObL904E1-359" target="ZrJRJ42UMuMNObL904E1-385">
          <mxGeometry relative="1" as="geometry" />
        </mxCell>
        <mxCell id="ZrJRJ42UMuMNObL904E1-359" value="CS load invoices" style="rounded=1;whiteSpace=wrap;html=1;verticalAlign=middle;" vertex="1" parent="1">
          <mxGeometry x="727" y="946.35" width="120" height="40" as="geometry" />
        </mxCell>
        <mxCell id="ZrJRJ42UMuMNObL904E1-360" value="" style="edgeStyle=orthogonalEdgeStyle;rounded=0;orthogonalLoop=1;jettySize=auto;html=1;" edge="1" parent="1" source="ZrJRJ42UMuMNObL904E1-361">
          <mxGeometry relative="1" as="geometry">
            <mxPoint x="877" y="1041.35" as="targetPoint" />
          </mxGeometry>
        </mxCell>
        <mxCell id="ZrJRJ42UMuMNObL904E1-361" value="BPS load invoices" style="rounded=1;whiteSpace=wrap;html=1;verticalAlign=middle;" vertex="1" parent="1">
          <mxGeometry x="727" y="1021.35" width="120" height="40" as="geometry" />
        </mxCell>
        <mxCell id="ZrJRJ42UMuMNObL904E1-362" value="" style="shape=image;html=1;verticalAlign=top;verticalLabelPosition=bottom;labelBackgroundColor=#ffffff;imageAspect=0;aspect=fixed;image=https://cdn2.iconfinder.com/data/icons/new-year-resolutions/64/resolutions-03-128.png" vertex="1" parent="1">
          <mxGeometry x="827" y="930.35" width="30" height="30" as="geometry" />
        </mxCell>
        <mxCell id="ZrJRJ42UMuMNObL904E1-363" value="" style="shape=image;html=1;verticalAlign=top;verticalLabelPosition=bottom;labelBackgroundColor=#ffffff;imageAspect=0;aspect=fixed;image=https://cdn2.iconfinder.com/data/icons/new-year-resolutions/64/resolutions-03-128.png" vertex="1" parent="1">
          <mxGeometry x="827" y="1004.91" width="30" height="30" as="geometry" />
        </mxCell>
        <mxCell id="ZrJRJ42UMuMNObL904E1-364" value="Payment Processor" style="rounded=1;whiteSpace=wrap;html=1;verticalAlign=top;" vertex="1" parent="1">
          <mxGeometry x="567" y="876.35" width="140" height="210.73" as="geometry" />
        </mxCell>
        <mxCell id="ZrJRJ42UMuMNObL904E1-365" value="" style="shape=image;verticalLabelPosition=bottom;labelBackgroundColor=#ffffff;verticalAlign=top;aspect=fixed;imageAspect=0;image=https://www.alliedc.com/wp-content/uploads/2017/07/biztalk-logo.png;" vertex="1" parent="1">
          <mxGeometry x="607" y="900.32" width="60" height="31.52" as="geometry" />
        </mxCell>
        <mxCell id="ZrJRJ42UMuMNObL904E1-366" style="edgeStyle=orthogonalEdgeStyle;rounded=0;orthogonalLoop=1;jettySize=auto;html=1;fontSize=6;" edge="1" parent="1" source="ZrJRJ42UMuMNObL904E1-367" target="ZrJRJ42UMuMNObL904E1-359">
          <mxGeometry relative="1" as="geometry" />
        </mxCell>
        <mxCell id="ZrJRJ42UMuMNObL904E1-367" value="CS orchestration" style="rounded=1;whiteSpace=wrap;html=1;verticalAlign=top;" vertex="1" parent="1">
          <mxGeometry x="577" y="937.08" width="120" height="60" as="geometry" />
        </mxCell>
        <mxCell id="ZrJRJ42UMuMNObL904E1-368" style="edgeStyle=orthogonalEdgeStyle;rounded=0;orthogonalLoop=1;jettySize=auto;html=1;fontSize=6;" edge="1" parent="1" source="ZrJRJ42UMuMNObL904E1-370" target="ZrJRJ42UMuMNObL904E1-361">
          <mxGeometry relative="1" as="geometry" />
        </mxCell>
        <mxCell id="ZrJRJ42UMuMNObL904E1-370" value="BPS orchestration" style="rounded=1;whiteSpace=wrap;html=1;verticalAlign=top;" vertex="1" parent="1">
          <mxGeometry x="577" y="1012.08" width="120" height="60" as="geometry" />
        </mxCell>
        <mxCell id="ZrJRJ42UMuMNObL904E1-371" value="" style="shape=message;html=1;whiteSpace=wrap;html=1;outlineConnect=0;fontSize=12;verticalAlign=middle;aspect=fixed;" vertex="1" parent="1">
          <mxGeometry x="622" y="966.0300000000001" width="30" height="20" as="geometry" />
        </mxCell>
        <mxCell id="ZrJRJ42UMuMNObL904E1-372" value="" style="shape=message;html=1;whiteSpace=wrap;html=1;outlineConnect=0;fontSize=12;verticalAlign=middle;aspect=fixed;" vertex="1" parent="1">
          <mxGeometry x="622" y="1041.0300000000002" width="30" height="20" as="geometry" />
        </mxCell>
        <mxCell id="ZrJRJ42UMuMNObL904E1-373" value="Payment Processor" style="rounded=1;whiteSpace=wrap;html=1;verticalAlign=top;" vertex="1" parent="1">
          <mxGeometry x="1177" y="876.35" width="140" height="210.73" as="geometry" />
        </mxCell>
        <mxCell id="ZrJRJ42UMuMNObL904E1-374" value="" style="shape=image;verticalLabelPosition=bottom;labelBackgroundColor=#ffffff;verticalAlign=top;aspect=fixed;imageAspect=0;image=https://www.alliedc.com/wp-content/uploads/2017/07/biztalk-logo.png;" vertex="1" parent="1">
          <mxGeometry x="1217" y="900.32" width="60" height="31.52" as="geometry" />
        </mxCell>
        <mxCell id="ZrJRJ42UMuMNObL904E1-375" value="CS orchestration" style="rounded=1;whiteSpace=wrap;html=1;verticalAlign=top;" vertex="1" parent="1">
          <mxGeometry x="1187" y="937.08" width="120" height="60" as="geometry" />
        </mxCell>
        <mxCell id="ZrJRJ42UMuMNObL904E1-376" value="BPS orchestration" style="rounded=1;whiteSpace=wrap;html=1;verticalAlign=top;" vertex="1" parent="1">
          <mxGeometry x="1187" y="1012.08" width="120" height="60" as="geometry" />
        </mxCell>
        <mxCell id="ZrJRJ42UMuMNObL904E1-377" value="" style="shape=message;html=1;whiteSpace=wrap;html=1;outlineConnect=0;fontSize=12;verticalAlign=middle;aspect=fixed;" vertex="1" parent="1">
          <mxGeometry x="1232" y="966.0300000000001" width="30" height="20" as="geometry" />
        </mxCell>
        <mxCell id="ZrJRJ42UMuMNObL904E1-378" value="" style="shape=message;html=1;whiteSpace=wrap;html=1;outlineConnect=0;fontSize=12;verticalAlign=middle;aspect=fixed;" vertex="1" parent="1">
          <mxGeometry x="1232" y="1041.0300000000002" width="30" height="20" as="geometry" />
        </mxCell>
        <mxCell id="ZrJRJ42UMuMNObL904E1-379" style="edgeStyle=orthogonalEdgeStyle;rounded=0;orthogonalLoop=1;jettySize=auto;html=1;fontSize=6;" edge="1" parent="1" target="ZrJRJ42UMuMNObL904E1-375" source="ZrJRJ42UMuMNObL904E1-403">
          <mxGeometry relative="1" as="geometry">
            <mxPoint x="1747" y="966.35" as="sourcePoint" />
          </mxGeometry>
        </mxCell>
        <mxCell id="ZrJRJ42UMuMNObL904E1-380" value="" style="shape=image;verticalLabelPosition=bottom;labelBackgroundColor=#ffffff;verticalAlign=top;aspect=fixed;imageAspect=0;image=https://upload.wikimedia.org/wikipedia/commons/thumb/a/a3/.NET_Logo.svg/456px-.NET_Logo.svg.png;" vertex="1" parent="1">
          <mxGeometry x="922" y="901.08" width="30" height="30" as="geometry" />
        </mxCell>
        <mxCell id="ZrJRJ42UMuMNObL904E1-384" value="" style="edgeStyle=orthogonalEdgeStyle;rounded=0;orthogonalLoop=1;jettySize=auto;html=1;fontSize=6;entryX=0;entryY=0.5;entryDx=0;entryDy=0;" edge="1" parent="1" source="ZrJRJ42UMuMNObL904E1-385" target="ZrJRJ42UMuMNObL904E1-403">
          <mxGeometry relative="1" as="geometry">
            <mxPoint x="1027" y="966.0499999999998" as="targetPoint" />
          </mxGeometry>
        </mxCell>
        <mxCell id="ZrJRJ42UMuMNObL904E1-385" value="CS review invoice" style="rounded=1;whiteSpace=wrap;html=1;verticalAlign=middle;" vertex="1" parent="1">
          <mxGeometry x="877" y="946.0300000000001" width="120" height="40" as="geometry" />
        </mxCell>
        <mxCell id="ZrJRJ42UMuMNObL904E1-386" value="" style="edgeStyle=orthogonalEdgeStyle;rounded=0;orthogonalLoop=1;jettySize=auto;html=1;fontSize=6;entryX=0;entryY=0.5;entryDx=0;entryDy=0;" edge="1" parent="1" source="ZrJRJ42UMuMNObL904E1-387" target="ZrJRJ42UMuMNObL904E1-410">
          <mxGeometry relative="1" as="geometry">
            <mxPoint x="1027" y="1041.0499999999997" as="targetPoint" />
          </mxGeometry>
        </mxCell>
        <mxCell id="ZrJRJ42UMuMNObL904E1-387" value="BPS review invoice" style="rounded=1;whiteSpace=wrap;html=1;verticalAlign=middle;" vertex="1" parent="1">
          <mxGeometry x="877" y="1021.0300000000001" width="120" height="40" as="geometry" />
        </mxCell>
        <mxCell id="ZrJRJ42UMuMNObL904E1-394" value="" style="verticalLabelPosition=bottom;html=1;verticalAlign=top;align=center;strokeColor=none;fillColor=#00BEF2;shape=mxgraph.azure.user;dashed=1;fontSize=6;" vertex="1" parent="1">
          <mxGeometry x="977" y="926.35" width="20" height="20" as="geometry" />
        </mxCell>
        <mxCell id="ZrJRJ42UMuMNObL904E1-395" value="" style="verticalLabelPosition=bottom;html=1;verticalAlign=top;align=center;strokeColor=none;fillColor=#00BEF2;shape=mxgraph.azure.user;dashed=1;fontSize=6;" vertex="1" parent="1">
          <mxGeometry x="977" y="1001.35" width="20" height="20" as="geometry" />
        </mxCell>
        <mxCell id="ZrJRJ42UMuMNObL904E1-403" value="CS build invoice" style="rounded=1;whiteSpace=wrap;html=1;verticalAlign=middle;" vertex="1" parent="1">
          <mxGeometry x="1027" y="946.35" width="120" height="40" as="geometry" />
        </mxCell>
        <mxCell id="ZrJRJ42UMuMNObL904E1-409" style="edgeStyle=orthogonalEdgeStyle;rounded=0;orthogonalLoop=1;jettySize=auto;html=1;entryX=0;entryY=0.5;entryDx=0;entryDy=0;fontSize=6;" edge="1" parent="1" source="ZrJRJ42UMuMNObL904E1-410" target="ZrJRJ42UMuMNObL904E1-376">
          <mxGeometry relative="1" as="geometry" />
        </mxCell>
        <mxCell id="ZrJRJ42UMuMNObL904E1-410" value="BPS build invoice" style="rounded=1;whiteSpace=wrap;html=1;verticalAlign=middle;" vertex="1" parent="1">
          <mxGeometry x="1027" y="1022.0300000000001" width="120" height="40" as="geometry" />
        </mxCell>
        <mxCell id="ZrJRJ42UMuMNObL904E1-415" value="&lt;span style=&quot;font-size: 11px&quot;&gt;Cross Border Payment Engine&lt;/span&gt;" style="rounded=1;whiteSpace=wrap;html=1;verticalAlign=top;" vertex="1" parent="1">
          <mxGeometry x="717" y="1100.35" width="900" height="144" as="geometry" />
        </mxCell>
        <mxCell id="ZrJRJ42UMuMNObL904E1-418" value="" style="edgeStyle=orthogonalEdgeStyle;rounded=0;orthogonalLoop=1;jettySize=auto;html=1;" edge="1" parent="1" source="ZrJRJ42UMuMNObL904E1-419">
          <mxGeometry relative="1" as="geometry">
            <mxPoint x="877" y="1197.4" as="targetPoint" />
          </mxGeometry>
        </mxCell>
        <mxCell id="ZrJRJ42UMuMNObL904E1-419" value="Load invoices" style="rounded=1;whiteSpace=wrap;html=1;verticalAlign=middle;" vertex="1" parent="1">
          <mxGeometry x="727" y="1177.4" width="120" height="40" as="geometry" />
        </mxCell>
        <mxCell id="ZrJRJ42UMuMNObL904E1-421" value="" style="shape=image;html=1;verticalAlign=top;verticalLabelPosition=bottom;labelBackgroundColor=#ffffff;imageAspect=0;aspect=fixed;image=https://cdn2.iconfinder.com/data/icons/new-year-resolutions/64/resolutions-03-128.png" vertex="1" parent="1">
          <mxGeometry x="827" y="1160.96" width="30" height="30" as="geometry" />
        </mxCell>
        <mxCell id="ZrJRJ42UMuMNObL904E1-422" value="Payment Processor" style="rounded=1;whiteSpace=wrap;html=1;verticalAlign=top;" vertex="1" parent="1">
          <mxGeometry x="567" y="1100.35" width="140" height="144" as="geometry" />
        </mxCell>
        <mxCell id="ZrJRJ42UMuMNObL904E1-423" value="" style="shape=image;verticalLabelPosition=bottom;labelBackgroundColor=#ffffff;verticalAlign=top;aspect=fixed;imageAspect=0;image=https://www.alliedc.com/wp-content/uploads/2017/07/biztalk-logo.png;" vertex="1" parent="1">
          <mxGeometry x="607" y="1124.3200000000002" width="60" height="31.52" as="geometry" />
        </mxCell>
        <mxCell id="ZrJRJ42UMuMNObL904E1-426" style="edgeStyle=orthogonalEdgeStyle;rounded=0;orthogonalLoop=1;jettySize=auto;html=1;fontSize=6;" edge="1" parent="1" source="ZrJRJ42UMuMNObL904E1-428" target="ZrJRJ42UMuMNObL904E1-419">
          <mxGeometry relative="1" as="geometry" />
        </mxCell>
        <mxCell id="ZrJRJ42UMuMNObL904E1-428" value="BPS orchestration" style="rounded=1;whiteSpace=wrap;html=1;verticalAlign=top;" vertex="1" parent="1">
          <mxGeometry x="577" y="1168.13" width="120" height="60" as="geometry" />
        </mxCell>
        <mxCell id="ZrJRJ42UMuMNObL904E1-430" value="" style="shape=message;html=1;whiteSpace=wrap;html=1;outlineConnect=0;fontSize=12;verticalAlign=middle;aspect=fixed;" vertex="1" parent="1">
          <mxGeometry x="622" y="1197.08" width="30" height="20" as="geometry" />
        </mxCell>
        <mxCell id="ZrJRJ42UMuMNObL904E1-431" value="Payment Processor" style="rounded=1;whiteSpace=wrap;html=1;verticalAlign=top;" vertex="1" parent="1">
          <mxGeometry x="1637" y="1100.35" width="140" height="144" as="geometry" />
        </mxCell>
        <mxCell id="ZrJRJ42UMuMNObL904E1-432" value="" style="shape=image;verticalLabelPosition=bottom;labelBackgroundColor=#ffffff;verticalAlign=top;aspect=fixed;imageAspect=0;image=https://www.alliedc.com/wp-content/uploads/2017/07/biztalk-logo.png;" vertex="1" parent="1">
          <mxGeometry x="1677" y="1124.3200000000002" width="60" height="31.52" as="geometry" />
        </mxCell>
        <mxCell id="ZrJRJ42UMuMNObL904E1-434" value="BPS orchestration" style="rounded=1;whiteSpace=wrap;html=1;verticalAlign=top;" vertex="1" parent="1">
          <mxGeometry x="1647" y="1167.13" width="120" height="60" as="geometry" />
        </mxCell>
        <mxCell id="ZrJRJ42UMuMNObL904E1-436" value="" style="shape=message;html=1;whiteSpace=wrap;html=1;outlineConnect=0;fontSize=12;verticalAlign=middle;aspect=fixed;" vertex="1" parent="1">
          <mxGeometry x="1692" y="1196.08" width="30" height="20" as="geometry" />
        </mxCell>
        <mxCell id="ZrJRJ42UMuMNObL904E1-438" value="" style="shape=image;verticalLabelPosition=bottom;labelBackgroundColor=#ffffff;verticalAlign=top;aspect=fixed;imageAspect=0;image=https://upload.wikimedia.org/wikipedia/commons/thumb/a/a3/.NET_Logo.svg/456px-.NET_Logo.svg.png;" vertex="1" parent="1">
          <mxGeometry x="1152" y="1124.3200000000002" width="30" height="30" as="geometry" />
        </mxCell>
        <mxCell id="ZrJRJ42UMuMNObL904E1-444" value="" style="edgeStyle=orthogonalEdgeStyle;rounded=0;orthogonalLoop=1;jettySize=auto;html=1;fontSize=6;" edge="1" parent="1" source="ZrJRJ42UMuMNObL904E1-445" target="ZrJRJ42UMuMNObL904E1-449">
          <mxGeometry relative="1" as="geometry" />
        </mxCell>
        <mxCell id="ZrJRJ42UMuMNObL904E1-445" value="Load devolved data" style="rounded=1;whiteSpace=wrap;html=1;verticalAlign=middle;" vertex="1" parent="1">
          <mxGeometry x="877" y="1177.08" width="120" height="40" as="geometry" />
        </mxCell>
        <mxCell id="ZrJRJ42UMuMNObL904E1-448" value="" style="edgeStyle=orthogonalEdgeStyle;rounded=0;orthogonalLoop=1;jettySize=auto;html=1;fontSize=6;" edge="1" parent="1" source="ZrJRJ42UMuMNObL904E1-449" target="ZrJRJ42UMuMNObL904E1-466">
          <mxGeometry relative="1" as="geometry" />
        </mxCell>
        <mxCell id="ZrJRJ42UMuMNObL904E1-449" value="Load Data Warehouse data" style="rounded=1;whiteSpace=wrap;html=1;verticalAlign=middle;" vertex="1" parent="1">
          <mxGeometry x="1027" y="1177.08" width="120" height="40" as="geometry" />
        </mxCell>
        <mxCell id="ZrJRJ42UMuMNObL904E1-475" value="" style="edgeStyle=orthogonalEdgeStyle;rounded=0;orthogonalLoop=1;jettySize=auto;html=1;fontSize=6;" edge="1" parent="1" source="ZrJRJ42UMuMNObL904E1-466" target="ZrJRJ42UMuMNObL904E1-474">
          <mxGeometry relative="1" as="geometry" />
        </mxCell>
        <mxCell id="ZrJRJ42UMuMNObL904E1-466" value="Calculate payment" style="rounded=1;whiteSpace=wrap;html=1;verticalAlign=middle;" vertex="1" parent="1">
          <mxGeometry x="1177" y="1177.08" width="120" height="40" as="geometry" />
        </mxCell>
        <mxCell id="ZrJRJ42UMuMNObL904E1-467" style="edgeStyle=orthogonalEdgeStyle;rounded=0;orthogonalLoop=1;jettySize=auto;html=1;entryX=0;entryY=0.5;entryDx=0;entryDy=0;fontSize=6;" edge="1" parent="1" source="ZrJRJ42UMuMNObL904E1-468" target="ZrJRJ42UMuMNObL904E1-434">
          <mxGeometry relative="1" as="geometry" />
        </mxCell>
        <mxCell id="ZrJRJ42UMuMNObL904E1-468" value="BPS build invoice" style="rounded=1;whiteSpace=wrap;html=1;verticalAlign=middle;" vertex="1" parent="1">
          <mxGeometry x="1477" y="1177.08" width="120" height="40" as="geometry" />
        </mxCell>
        <mxCell id="ZrJRJ42UMuMNObL904E1-476" style="edgeStyle=orthogonalEdgeStyle;rounded=0;orthogonalLoop=1;jettySize=auto;html=1;fontSize=11;" edge="1" parent="1" source="ZrJRJ42UMuMNObL904E1-474" target="ZrJRJ42UMuMNObL904E1-468">
          <mxGeometry relative="1" as="geometry" />
        </mxCell>
        <mxCell id="ZrJRJ42UMuMNObL904E1-474" value="Remove Cross Border delivery body code" style="rounded=1;whiteSpace=wrap;html=1;verticalAlign=middle;fontSize=11;" vertex="1" parent="1">
          <mxGeometry x="1327" y="1177.08" width="120" height="40" as="geometry" />
        </mxCell>
        <mxCell id="ZrJRJ42UMuMNObL904E1-477" value="&lt;font style=&quot;font-size: 11px&quot;&gt;Exceptions&lt;/font&gt;" style="rounded=1;whiteSpace=wrap;html=1;verticalAlign=top;" vertex="1" parent="1">
          <mxGeometry x="717" y="1264.35" width="440" height="210" as="geometry" />
        </mxCell>
        <mxCell id="ZrJRJ42UMuMNObL904E1-478" value="" style="edgeStyle=orthogonalEdgeStyle;rounded=0;orthogonalLoop=1;jettySize=auto;html=1;fontSize=6;" edge="1" parent="1" source="ZrJRJ42UMuMNObL904E1-479" target="ZrJRJ42UMuMNObL904E1-501">
          <mxGeometry relative="1" as="geometry" />
        </mxCell>
        <mxCell id="ZrJRJ42UMuMNObL904E1-479" value="CS load invoices" style="rounded=1;whiteSpace=wrap;html=1;verticalAlign=middle;" vertex="1" parent="1">
          <mxGeometry x="727" y="1334.35" width="120" height="40" as="geometry" />
        </mxCell>
        <mxCell id="ZrJRJ42UMuMNObL904E1-480" value="" style="edgeStyle=orthogonalEdgeStyle;rounded=0;orthogonalLoop=1;jettySize=auto;html=1;" edge="1" parent="1" source="ZrJRJ42UMuMNObL904E1-481">
          <mxGeometry relative="1" as="geometry">
            <mxPoint x="877" y="1429.35" as="targetPoint" />
          </mxGeometry>
        </mxCell>
        <mxCell id="ZrJRJ42UMuMNObL904E1-481" value="BPS load invoices" style="rounded=1;whiteSpace=wrap;html=1;verticalAlign=middle;" vertex="1" parent="1">
          <mxGeometry x="727" y="1409.35" width="120" height="40" as="geometry" />
        </mxCell>
        <mxCell id="ZrJRJ42UMuMNObL904E1-482" value="" style="shape=image;html=1;verticalAlign=top;verticalLabelPosition=bottom;labelBackgroundColor=#ffffff;imageAspect=0;aspect=fixed;image=https://cdn2.iconfinder.com/data/icons/new-year-resolutions/64/resolutions-03-128.png" vertex="1" parent="1">
          <mxGeometry x="827" y="1318.35" width="30" height="30" as="geometry" />
        </mxCell>
        <mxCell id="ZrJRJ42UMuMNObL904E1-483" value="" style="shape=image;html=1;verticalAlign=top;verticalLabelPosition=bottom;labelBackgroundColor=#ffffff;imageAspect=0;aspect=fixed;image=https://cdn2.iconfinder.com/data/icons/new-year-resolutions/64/resolutions-03-128.png" vertex="1" parent="1">
          <mxGeometry x="827" y="1392.9099999999999" width="30" height="30" as="geometry" />
        </mxCell>
        <mxCell id="ZrJRJ42UMuMNObL904E1-484" value="Payment Processor" style="rounded=1;whiteSpace=wrap;html=1;verticalAlign=top;" vertex="1" parent="1">
          <mxGeometry x="567" y="1264.35" width="140" height="210.73" as="geometry" />
        </mxCell>
        <mxCell id="ZrJRJ42UMuMNObL904E1-485" value="" style="shape=image;verticalLabelPosition=bottom;labelBackgroundColor=#ffffff;verticalAlign=top;aspect=fixed;imageAspect=0;image=https://www.alliedc.com/wp-content/uploads/2017/07/biztalk-logo.png;" vertex="1" parent="1">
          <mxGeometry x="607" y="1288.3200000000002" width="60" height="31.52" as="geometry" />
        </mxCell>
        <mxCell id="ZrJRJ42UMuMNObL904E1-486" style="edgeStyle=orthogonalEdgeStyle;rounded=0;orthogonalLoop=1;jettySize=auto;html=1;fontSize=6;" edge="1" parent="1" source="ZrJRJ42UMuMNObL904E1-487" target="ZrJRJ42UMuMNObL904E1-479">
          <mxGeometry relative="1" as="geometry" />
        </mxCell>
        <mxCell id="ZrJRJ42UMuMNObL904E1-487" value="CS orchestration" style="rounded=1;whiteSpace=wrap;html=1;verticalAlign=top;" vertex="1" parent="1">
          <mxGeometry x="577" y="1325.08" width="120" height="60" as="geometry" />
        </mxCell>
        <mxCell id="ZrJRJ42UMuMNObL904E1-488" style="edgeStyle=orthogonalEdgeStyle;rounded=0;orthogonalLoop=1;jettySize=auto;html=1;fontSize=6;" edge="1" parent="1" source="ZrJRJ42UMuMNObL904E1-489" target="ZrJRJ42UMuMNObL904E1-481">
          <mxGeometry relative="1" as="geometry" />
        </mxCell>
        <mxCell id="ZrJRJ42UMuMNObL904E1-489" value="BPS orchestration" style="rounded=1;whiteSpace=wrap;html=1;verticalAlign=top;" vertex="1" parent="1">
          <mxGeometry x="577" y="1400.08" width="120" height="60" as="geometry" />
        </mxCell>
        <mxCell id="ZrJRJ42UMuMNObL904E1-490" value="" style="shape=message;html=1;whiteSpace=wrap;html=1;outlineConnect=0;fontSize=12;verticalAlign=middle;aspect=fixed;" vertex="1" parent="1">
          <mxGeometry x="622" y="1354.0300000000002" width="30" height="20" as="geometry" />
        </mxCell>
        <mxCell id="ZrJRJ42UMuMNObL904E1-491" value="" style="shape=message;html=1;whiteSpace=wrap;html=1;outlineConnect=0;fontSize=12;verticalAlign=middle;aspect=fixed;" vertex="1" parent="1">
          <mxGeometry x="622" y="1429.0300000000002" width="30" height="20" as="geometry" />
        </mxCell>
        <mxCell id="ZrJRJ42UMuMNObL904E1-492" value="Payment Processor" style="rounded=1;whiteSpace=wrap;html=1;verticalAlign=top;" vertex="1" parent="1">
          <mxGeometry x="1177" y="1264.35" width="140" height="210.73" as="geometry" />
        </mxCell>
        <mxCell id="ZrJRJ42UMuMNObL904E1-493" value="" style="shape=image;verticalLabelPosition=bottom;labelBackgroundColor=#ffffff;verticalAlign=top;aspect=fixed;imageAspect=0;image=https://www.alliedc.com/wp-content/uploads/2017/07/biztalk-logo.png;" vertex="1" parent="1">
          <mxGeometry x="1217" y="1288.3200000000002" width="60" height="31.52" as="geometry" />
        </mxCell>
        <mxCell id="ZrJRJ42UMuMNObL904E1-494" value="CS orchestration" style="rounded=1;whiteSpace=wrap;html=1;verticalAlign=top;" vertex="1" parent="1">
          <mxGeometry x="1187" y="1325.08" width="120" height="60" as="geometry" />
        </mxCell>
        <mxCell id="ZrJRJ42UMuMNObL904E1-495" value="BPS orchestration" style="rounded=1;whiteSpace=wrap;html=1;verticalAlign=top;" vertex="1" parent="1">
          <mxGeometry x="1187" y="1400.08" width="120" height="60" as="geometry" />
        </mxCell>
        <mxCell id="ZrJRJ42UMuMNObL904E1-496" value="" style="shape=message;html=1;whiteSpace=wrap;html=1;outlineConnect=0;fontSize=12;verticalAlign=middle;aspect=fixed;" vertex="1" parent="1">
          <mxGeometry x="1232" y="1354.0300000000002" width="30" height="20" as="geometry" />
        </mxCell>
        <mxCell id="ZrJRJ42UMuMNObL904E1-497" value="" style="shape=message;html=1;whiteSpace=wrap;html=1;outlineConnect=0;fontSize=12;verticalAlign=middle;aspect=fixed;" vertex="1" parent="1">
          <mxGeometry x="1232" y="1429.0300000000002" width="30" height="20" as="geometry" />
        </mxCell>
        <mxCell id="ZrJRJ42UMuMNObL904E1-498" style="edgeStyle=orthogonalEdgeStyle;rounded=0;orthogonalLoop=1;jettySize=auto;html=1;fontSize=6;" edge="1" parent="1" source="ZrJRJ42UMuMNObL904E1-506" target="ZrJRJ42UMuMNObL904E1-494">
          <mxGeometry relative="1" as="geometry">
            <mxPoint x="1747" y="1354.35" as="sourcePoint" />
          </mxGeometry>
        </mxCell>
        <mxCell id="ZrJRJ42UMuMNObL904E1-499" value="" style="shape=image;verticalLabelPosition=bottom;labelBackgroundColor=#ffffff;verticalAlign=top;aspect=fixed;imageAspect=0;image=https://upload.wikimedia.org/wikipedia/commons/thumb/a/a3/.NET_Logo.svg/456px-.NET_Logo.svg.png;" vertex="1" parent="1">
          <mxGeometry x="922" y="1289.08" width="30" height="30" as="geometry" />
        </mxCell>
        <mxCell id="ZrJRJ42UMuMNObL904E1-500" value="" style="edgeStyle=orthogonalEdgeStyle;rounded=0;orthogonalLoop=1;jettySize=auto;html=1;fontSize=6;entryX=0;entryY=0.5;entryDx=0;entryDy=0;" edge="1" parent="1" source="ZrJRJ42UMuMNObL904E1-501" target="ZrJRJ42UMuMNObL904E1-506">
          <mxGeometry relative="1" as="geometry">
            <mxPoint x="1027" y="1354.0499999999997" as="targetPoint" />
          </mxGeometry>
        </mxCell>
        <mxCell id="ZrJRJ42UMuMNObL904E1-501" value="CS allow add/remove hold" style="rounded=1;whiteSpace=wrap;html=1;verticalAlign=middle;" vertex="1" parent="1">
          <mxGeometry x="877" y="1334.0300000000002" width="120" height="40" as="geometry" />
        </mxCell>
        <mxCell id="ZrJRJ42UMuMNObL904E1-502" value="" style="edgeStyle=orthogonalEdgeStyle;rounded=0;orthogonalLoop=1;jettySize=auto;html=1;fontSize=6;entryX=0;entryY=0.5;entryDx=0;entryDy=0;" edge="1" parent="1" source="ZrJRJ42UMuMNObL904E1-503" target="ZrJRJ42UMuMNObL904E1-508">
          <mxGeometry relative="1" as="geometry">
            <mxPoint x="1027" y="1429.0499999999997" as="targetPoint" />
          </mxGeometry>
        </mxCell>
        <mxCell id="ZrJRJ42UMuMNObL904E1-503" value="BPS allow add/remove hold" style="rounded=1;whiteSpace=wrap;html=1;verticalAlign=middle;" vertex="1" parent="1">
          <mxGeometry x="877" y="1409.0300000000002" width="120" height="40" as="geometry" />
        </mxCell>
        <mxCell id="ZrJRJ42UMuMNObL904E1-504" value="" style="verticalLabelPosition=bottom;html=1;verticalAlign=top;align=center;strokeColor=none;fillColor=#00BEF2;shape=mxgraph.azure.user;dashed=1;fontSize=6;" vertex="1" parent="1">
          <mxGeometry x="977" y="1314.35" width="20" height="20" as="geometry" />
        </mxCell>
        <mxCell id="ZrJRJ42UMuMNObL904E1-505" value="" style="verticalLabelPosition=bottom;html=1;verticalAlign=top;align=center;strokeColor=none;fillColor=#00BEF2;shape=mxgraph.azure.user;dashed=1;fontSize=6;" vertex="1" parent="1">
          <mxGeometry x="977" y="1389.35" width="20" height="20" as="geometry" />
        </mxCell>
        <mxCell id="ZrJRJ42UMuMNObL904E1-506" value="CS build invoice" style="rounded=1;whiteSpace=wrap;html=1;verticalAlign=middle;" vertex="1" parent="1">
          <mxGeometry x="1027" y="1334.35" width="120" height="40" as="geometry" />
        </mxCell>
        <mxCell id="ZrJRJ42UMuMNObL904E1-507" style="edgeStyle=orthogonalEdgeStyle;rounded=0;orthogonalLoop=1;jettySize=auto;html=1;entryX=0;entryY=0.5;entryDx=0;entryDy=0;fontSize=6;" edge="1" parent="1" source="ZrJRJ42UMuMNObL904E1-508" target="ZrJRJ42UMuMNObL904E1-495">
          <mxGeometry relative="1" as="geometry" />
        </mxCell>
        <mxCell id="ZrJRJ42UMuMNObL904E1-508" value="BPS build invoice" style="rounded=1;whiteSpace=wrap;html=1;verticalAlign=middle;" vertex="1" parent="1">
          <mxGeometry x="1027" y="1410.0300000000002" width="120" height="40" as="geometry" />
        </mxCell>
        <mxCell id="ZrJRJ42UMuMNObL904E1-509" value="&lt;font style=&quot;font-size: 11px&quot;&gt;MI&lt;/font&gt;" style="rounded=1;whiteSpace=wrap;html=1;verticalAlign=top;" vertex="1" parent="1">
          <mxGeometry x="717" y="1494.35" width="290" height="210" as="geometry" />
        </mxCell>
        <mxCell id="ZrJRJ42UMuMNObL904E1-510" value="" style="edgeStyle=orthogonalEdgeStyle;rounded=0;orthogonalLoop=1;jettySize=auto;html=1;fontSize=6;" edge="1" parent="1" source="ZrJRJ42UMuMNObL904E1-511" target="ZrJRJ42UMuMNObL904E1-533">
          <mxGeometry relative="1" as="geometry" />
        </mxCell>
        <mxCell id="ZrJRJ42UMuMNObL904E1-511" value="CS load invoices" style="rounded=1;whiteSpace=wrap;html=1;verticalAlign=middle;" vertex="1" parent="1">
          <mxGeometry x="727" y="1564.35" width="120" height="40" as="geometry" />
        </mxCell>
        <mxCell id="ZrJRJ42UMuMNObL904E1-512" value="" style="edgeStyle=orthogonalEdgeStyle;rounded=0;orthogonalLoop=1;jettySize=auto;html=1;" edge="1" parent="1" source="ZrJRJ42UMuMNObL904E1-513">
          <mxGeometry relative="1" as="geometry">
            <mxPoint x="877" y="1659.35" as="targetPoint" />
          </mxGeometry>
        </mxCell>
        <mxCell id="ZrJRJ42UMuMNObL904E1-513" value="BPS load invoices" style="rounded=1;whiteSpace=wrap;html=1;verticalAlign=middle;" vertex="1" parent="1">
          <mxGeometry x="727" y="1639.35" width="120" height="40" as="geometry" />
        </mxCell>
        <mxCell id="ZrJRJ42UMuMNObL904E1-514" value="" style="shape=image;html=1;verticalAlign=top;verticalLabelPosition=bottom;labelBackgroundColor=#ffffff;imageAspect=0;aspect=fixed;image=https://cdn2.iconfinder.com/data/icons/new-year-resolutions/64/resolutions-03-128.png" vertex="1" parent="1">
          <mxGeometry x="827" y="1548.35" width="30" height="30" as="geometry" />
        </mxCell>
        <mxCell id="ZrJRJ42UMuMNObL904E1-515" value="" style="shape=image;html=1;verticalAlign=top;verticalLabelPosition=bottom;labelBackgroundColor=#ffffff;imageAspect=0;aspect=fixed;image=https://cdn2.iconfinder.com/data/icons/new-year-resolutions/64/resolutions-03-128.png" vertex="1" parent="1">
          <mxGeometry x="827" y="1622.9099999999999" width="30" height="30" as="geometry" />
        </mxCell>
        <mxCell id="ZrJRJ42UMuMNObL904E1-516" value="Payment Processor" style="rounded=1;whiteSpace=wrap;html=1;verticalAlign=top;" vertex="1" parent="1">
          <mxGeometry x="567" y="1494.35" width="140" height="210.73" as="geometry" />
        </mxCell>
        <mxCell id="ZrJRJ42UMuMNObL904E1-517" value="" style="shape=image;verticalLabelPosition=bottom;labelBackgroundColor=#ffffff;verticalAlign=top;aspect=fixed;imageAspect=0;image=https://www.alliedc.com/wp-content/uploads/2017/07/biztalk-logo.png;" vertex="1" parent="1">
          <mxGeometry x="607" y="1518.3200000000002" width="60" height="31.52" as="geometry" />
        </mxCell>
        <mxCell id="ZrJRJ42UMuMNObL904E1-518" style="edgeStyle=orthogonalEdgeStyle;rounded=0;orthogonalLoop=1;jettySize=auto;html=1;fontSize=6;" edge="1" parent="1" source="ZrJRJ42UMuMNObL904E1-519" target="ZrJRJ42UMuMNObL904E1-511">
          <mxGeometry relative="1" as="geometry" />
        </mxCell>
        <mxCell id="ZrJRJ42UMuMNObL904E1-519" value="CS orchestration" style="rounded=1;whiteSpace=wrap;html=1;verticalAlign=top;" vertex="1" parent="1">
          <mxGeometry x="577" y="1555.08" width="120" height="60" as="geometry" />
        </mxCell>
        <mxCell id="ZrJRJ42UMuMNObL904E1-520" style="edgeStyle=orthogonalEdgeStyle;rounded=0;orthogonalLoop=1;jettySize=auto;html=1;fontSize=6;" edge="1" parent="1" source="ZrJRJ42UMuMNObL904E1-521" target="ZrJRJ42UMuMNObL904E1-513">
          <mxGeometry relative="1" as="geometry" />
        </mxCell>
        <mxCell id="ZrJRJ42UMuMNObL904E1-521" value="BPS orchestration" style="rounded=1;whiteSpace=wrap;html=1;verticalAlign=top;" vertex="1" parent="1">
          <mxGeometry x="577" y="1630.08" width="120" height="60" as="geometry" />
        </mxCell>
        <mxCell id="ZrJRJ42UMuMNObL904E1-522" value="" style="shape=message;html=1;whiteSpace=wrap;html=1;outlineConnect=0;fontSize=12;verticalAlign=middle;aspect=fixed;" vertex="1" parent="1">
          <mxGeometry x="622" y="1584.0300000000002" width="30" height="20" as="geometry" />
        </mxCell>
        <mxCell id="ZrJRJ42UMuMNObL904E1-523" value="" style="shape=message;html=1;whiteSpace=wrap;html=1;outlineConnect=0;fontSize=12;verticalAlign=middle;aspect=fixed;" vertex="1" parent="1">
          <mxGeometry x="622" y="1659.0300000000002" width="30" height="20" as="geometry" />
        </mxCell>
        <mxCell id="ZrJRJ42UMuMNObL904E1-531" value="" style="shape=image;verticalLabelPosition=bottom;labelBackgroundColor=#ffffff;verticalAlign=top;aspect=fixed;imageAspect=0;image=https://upload.wikimedia.org/wikipedia/commons/thumb/a/a3/.NET_Logo.svg/456px-.NET_Logo.svg.png;" vertex="1" parent="1">
          <mxGeometry x="847" y="1518.3199999999997" width="30" height="30" as="geometry" />
        </mxCell>
        <mxCell id="ZrJRJ42UMuMNObL904E1-533" value="CS build MI report" style="rounded=1;whiteSpace=wrap;html=1;verticalAlign=middle;" vertex="1" parent="1">
          <mxGeometry x="877" y="1564.0300000000002" width="120" height="40" as="geometry" />
        </mxCell>
        <mxCell id="ZrJRJ42UMuMNObL904E1-535" value="BPS build MI report" style="rounded=1;whiteSpace=wrap;html=1;verticalAlign=middle;" vertex="1" parent="1">
          <mxGeometry x="877" y="1639.0300000000002" width="120" height="40" as="geometry" />
        </mxCell>
        <mxCell id="ZrJRJ42UMuMNObL904E1-96" value="BPS BizTalk orchestration&lt;br&gt;(CS is the same but without Cross Border)" style="rounded=1;whiteSpace=wrap;html=1;fontSize=12;verticalAlign=top;dashed=1;" vertex="1" parent="1">
          <mxGeometry x="667" y="-460" width="1190" height="490" as="geometry" />
        </mxCell>
        <mxCell id="ZrJRJ42UMuMNObL904E1-107" value="Yes" style="edgeStyle=orthogonalEdgeStyle;rounded=0;orthogonalLoop=1;jettySize=auto;html=1;fontSize=12;" edge="1" parent="1" source="ZrJRJ42UMuMNObL904E1-97">
          <mxGeometry x="659.65" y="-435.66999999999996" as="geometry">
            <mxPoint x="815.8264705882351" y="-266.78111111111104" as="targetPoint" />
          </mxGeometry>
        </mxCell>
        <mxCell id="ZrJRJ42UMuMNObL904E1-97" value="Is Cross Border?" style="rhombus;whiteSpace=wrap;html=1;fontSize=12;verticalAlign=middle;" vertex="1" parent="1">
          <mxGeometry x="781.1205882352941" y="-409.0033333333332" width="69.41176470588236" height="71.1111111111111" as="geometry" />
        </mxCell>
        <mxCell id="ZrJRJ42UMuMNObL904E1-99" value="Is first payment?" style="rhombus;whiteSpace=wrap;html=1;fontSize=12;verticalAlign=middle;" vertex="1" parent="1">
          <mxGeometry x="1033.6058823529413" y="-409.0033333333332" width="69.41176470588236" height="71.1111111111111" as="geometry" />
        </mxCell>
        <mxCell id="ZrJRJ42UMuMNObL904E1-102" value="Delta" style="ellipse;whiteSpace=wrap;html=1;aspect=fixed;fontSize=12;verticalAlign=middle;" vertex="1" parent="1">
          <mxGeometry x="1163.7529411764708" y="-409.0033333333332" width="69.19753086419752" height="69.19753086419752" as="geometry" />
        </mxCell>
        <mxCell id="ZrJRJ42UMuMNObL904E1-103" value="No" style="edgeStyle=orthogonalEdgeStyle;rounded=0;orthogonalLoop=1;jettySize=auto;html=1;fontSize=12;" edge="1" parent="1" source="ZrJRJ42UMuMNObL904E1-99" target="ZrJRJ42UMuMNObL904E1-102">
          <mxGeometry x="659.65" y="-435.66999999999996" as="geometry" />
        </mxCell>
        <mxCell id="ZrJRJ42UMuMNObL904E1-104" value="Payment Batch Processor" style="ellipse;whiteSpace=wrap;html=1;aspect=fixed;fontSize=12;verticalAlign=middle;" vertex="1" parent="1">
          <mxGeometry x="1033.6058823529413" y="-266.78111111111104" width="69.19753086419752" height="69.19753086419752" as="geometry" />
        </mxCell>
        <mxCell id="ZrJRJ42UMuMNObL904E1-105" value="Yes" style="edgeStyle=orthogonalEdgeStyle;rounded=0;orthogonalLoop=1;jettySize=auto;html=1;fontSize=12;" edge="1" parent="1" source="ZrJRJ42UMuMNObL904E1-99" target="ZrJRJ42UMuMNObL904E1-104">
          <mxGeometry x="659.65" y="-435.66999999999996" as="geometry" />
        </mxCell>
        <mxCell id="ZrJRJ42UMuMNObL904E1-109" style="edgeStyle=orthogonalEdgeStyle;rounded=0;orthogonalLoop=1;jettySize=auto;html=1;entryX=0;entryY=0.5;entryDx=0;entryDy=0;fontSize=12;" edge="1" parent="1" source="ZrJRJ42UMuMNObL904E1-108" target="ZrJRJ42UMuMNObL904E1-97">
          <mxGeometry x="659.65" y="-435.66999999999996" as="geometry" />
        </mxCell>
        <mxCell id="ZrJRJ42UMuMNObL904E1-108" value="Payment Batch Processor / Cross Border Payment Engine / Exceptions" style="ellipse;whiteSpace=wrap;html=1;aspect=fixed;fontSize=9;verticalAlign=middle;fillColor=#dae8fc;strokeColor=#6c8ebf;" vertex="1" parent="1">
          <mxGeometry x="677.0029411764706" y="-409.0033333333332" width="69.19753086419752" height="69.19753086419752" as="geometry" />
        </mxCell>
        <mxCell id="ZrJRJ42UMuMNObL904E1-110" value="Cross Border Payment Engine" style="ellipse;whiteSpace=wrap;html=1;aspect=fixed;fontSize=12;verticalAlign=middle;" vertex="1" parent="1">
          <mxGeometry x="781.1205882352941" y="-266.78111111111104" width="69.19753086419752" height="69.19753086419752" as="geometry" />
        </mxCell>
        <mxCell id="ZrJRJ42UMuMNObL904E1-119" style="edgeStyle=orthogonalEdgeStyle;rounded=0;orthogonalLoop=1;jettySize=auto;html=1;entryX=0;entryY=0.5;entryDx=0;entryDy=0;fontSize=12;" edge="1" parent="1" source="ZrJRJ42UMuMNObL904E1-120">
          <mxGeometry x="1259.65" y="-685.56" as="geometry">
            <mxPoint x="1381.1205882352942" y="-374.4488888888889" as="targetPoint" />
          </mxGeometry>
        </mxCell>
        <mxCell id="ZrJRJ42UMuMNObL904E1-120" value="Delta" style="ellipse;whiteSpace=wrap;html=1;aspect=fixed;fontSize=12;verticalAlign=middle;fillColor=#dae8fc;strokeColor=#6c8ebf;" vertex="1" parent="1">
          <mxGeometry x="1277.0029411764706" y="-409.00444444444446" width="69.19753086419752" height="69.19753086419752" as="geometry" />
        </mxCell>
        <mxCell id="ZrJRJ42UMuMNObL904E1-122" value="Yes" style="edgeStyle=orthogonalEdgeStyle;rounded=0;orthogonalLoop=1;jettySize=auto;html=1;fontSize=12;" edge="1" parent="1" source="ZrJRJ42UMuMNObL904E1-124">
          <mxGeometry x="892" y="-690" as="geometry">
            <mxPoint x="1152.2941176470588" y="-130" as="targetPoint" />
          </mxGeometry>
        </mxCell>
        <mxCell id="ZrJRJ42UMuMNObL904E1-124" value="Requires &lt;br&gt;QC?" style="rhombus;whiteSpace=wrap;html=1;fontSize=12;verticalAlign=middle;fillColor=#fff2cc;strokeColor=#d6b656;" vertex="1" parent="1">
          <mxGeometry x="1013.4705882352941" y="-166.55555555555554" width="69.41176470588236" height="71.1111111111111" as="geometry" />
        </mxCell>
        <mxCell id="ZrJRJ42UMuMNObL904E1-128" value="Quality Check" style="ellipse;whiteSpace=wrap;html=1;aspect=fixed;fontSize=12;verticalAlign=middle;fillColor=#d5e8d4;strokeColor=#82b366;" vertex="1" parent="1">
          <mxGeometry x="1152.2941176470588" y="-165.55555555555554" width="69.19753086419752" height="69.19753086419752" as="geometry" />
        </mxCell>
        <mxCell id="ZrJRJ42UMuMNObL904E1-130" style="edgeStyle=orthogonalEdgeStyle;rounded=0;orthogonalLoop=1;jettySize=auto;html=1;entryX=0;entryY=0.5;entryDx=0;entryDy=0;fontSize=12;" edge="1" parent="1" source="ZrJRJ42UMuMNObL904E1-131" target="ZrJRJ42UMuMNObL904E1-124">
          <mxGeometry x="892" y="-690" as="geometry" />
        </mxCell>
        <mxCell id="ZrJRJ42UMuMNObL904E1-131" value="Settlement Request Editor" style="ellipse;whiteSpace=wrap;html=1;aspect=fixed;fontSize=12;verticalAlign=middle;fillColor=#dae8fc;strokeColor=#6c8ebf;" vertex="1" parent="1">
          <mxGeometry x="909.3529411764706" y="-165.55555555555554" width="69.19753086419752" height="69.19753086419752" as="geometry" />
        </mxCell>
        <mxCell id="ZrJRJ42UMuMNObL904E1-137" value="No" style="edgeStyle=orthogonalEdgeStyle;rounded=0;orthogonalLoop=1;jettySize=auto;html=1;entryX=0;entryY=0.5;entryDx=0;entryDy=0;fontSize=10;" edge="1" parent="1" source="ZrJRJ42UMuMNObL904E1-134" target="ZrJRJ42UMuMNObL904E1-99">
          <mxGeometry x="659.65" y="-435.66999999999996" as="geometry" />
        </mxCell>
        <mxCell id="ZrJRJ42UMuMNObL904E1-134" value="Is on hold" style="rhombus;whiteSpace=wrap;html=1;fontSize=12;verticalAlign=middle;" vertex="1" parent="1">
          <mxGeometry x="902.5911764705883" y="-409.0033333333332" width="69.41176470588236" height="71.1111111111111" as="geometry" />
        </mxCell>
        <mxCell id="ZrJRJ42UMuMNObL904E1-136" value="No" style="edgeStyle=orthogonalEdgeStyle;rounded=0;orthogonalLoop=1;jettySize=auto;html=1;fontSize=10;" edge="1" parent="1" source="ZrJRJ42UMuMNObL904E1-97" target="ZrJRJ42UMuMNObL904E1-134">
          <mxGeometry x="659.65" y="-435.66999999999996" as="geometry" />
        </mxCell>
        <mxCell id="ZrJRJ42UMuMNObL904E1-135" value="Exceptions" style="ellipse;whiteSpace=wrap;html=1;aspect=fixed;fontSize=12;verticalAlign=middle;" vertex="1" parent="1">
          <mxGeometry x="902.5911764705883" y="-266.78111111111104" width="69.19753086419752" height="69.19753086419752" as="geometry" />
        </mxCell>
        <mxCell id="ZrJRJ42UMuMNObL904E1-133" value="Yes" style="edgeStyle=orthogonalEdgeStyle;rounded=0;orthogonalLoop=1;jettySize=auto;html=1;fontSize=12;" edge="1" parent="1" source="ZrJRJ42UMuMNObL904E1-134" target="ZrJRJ42UMuMNObL904E1-135">
          <mxGeometry x="659.65" y="-435.66999999999996" as="geometry" />
        </mxCell>
        <mxCell id="ZrJRJ42UMuMNObL904E1-138" value="Yes" style="edgeStyle=orthogonalEdgeStyle;rounded=0;orthogonalLoop=1;jettySize=auto;html=1;fontSize=12;" edge="1" parent="1" source="ZrJRJ42UMuMNObL904E1-140">
          <mxGeometry x="1259.65" y="-685.56" as="geometry">
            <mxPoint x="1642.2823529411767" y="-374.4488888888889" as="targetPoint" />
          </mxGeometry>
        </mxCell>
        <mxCell id="ZrJRJ42UMuMNObL904E1-140" value="Is top up?" style="rhombus;whiteSpace=wrap;html=1;fontSize=12;verticalAlign=middle;" vertex="1" parent="1">
          <mxGeometry x="1512.1352941176472" y="-410.00444444444446" width="69.41176470588236" height="71.1111111111111" as="geometry" />
        </mxCell>
        <mxCell id="ZrJRJ42UMuMNObL904E1-142" value="Settlement Request Editor" style="ellipse;whiteSpace=wrap;html=1;aspect=fixed;fontSize=12;verticalAlign=middle;" vertex="1" parent="1">
          <mxGeometry x="1512.1352941176472" y="-267.7822222222222" width="69.19753086419752" height="69.19753086419752" as="geometry" />
        </mxCell>
        <mxCell id="ZrJRJ42UMuMNObL904E1-139" value="No" style="edgeStyle=orthogonalEdgeStyle;rounded=0;orthogonalLoop=1;jettySize=auto;html=1;fontSize=12;" edge="1" parent="1" source="ZrJRJ42UMuMNObL904E1-140" target="ZrJRJ42UMuMNObL904E1-142">
          <mxGeometry x="1259.65" y="-685.56" as="geometry" />
        </mxCell>
        <mxCell id="ZrJRJ42UMuMNObL904E1-144" value="No" style="edgeStyle=orthogonalEdgeStyle;rounded=0;orthogonalLoop=1;jettySize=auto;html=1;entryX=0;entryY=0.5;entryDx=0;entryDy=0;fontSize=10;" edge="1" parent="1" source="ZrJRJ42UMuMNObL904E1-145" target="ZrJRJ42UMuMNObL904E1-140">
          <mxGeometry x="1259.65" y="-685.56" as="geometry" />
        </mxCell>
        <mxCell id="ZrJRJ42UMuMNObL904E1-145" value="Is on hold" style="rhombus;whiteSpace=wrap;html=1;fontSize=12;verticalAlign=middle;" vertex="1" parent="1">
          <mxGeometry x="1381.1205882352942" y="-410.00444444444446" width="69.41176470588236" height="71.1111111111111" as="geometry" />
        </mxCell>
        <mxCell id="ZrJRJ42UMuMNObL904E1-146" value="Exceptions" style="ellipse;whiteSpace=wrap;html=1;aspect=fixed;fontSize=12;verticalAlign=middle;" vertex="1" parent="1">
          <mxGeometry x="1381.1205882352942" y="-267.7822222222222" width="69.19753086419752" height="69.19753086419752" as="geometry" />
        </mxCell>
        <mxCell id="ZrJRJ42UMuMNObL904E1-143" value="Yes" style="edgeStyle=orthogonalEdgeStyle;rounded=0;orthogonalLoop=1;jettySize=auto;html=1;fontSize=12;" edge="1" parent="1" source="ZrJRJ42UMuMNObL904E1-145" target="ZrJRJ42UMuMNObL904E1-146">
          <mxGeometry x="1259.65" y="-685.56" as="geometry" />
        </mxCell>
        <mxCell id="ZrJRJ42UMuMNObL904E1-149" value="Yes" style="edgeStyle=orthogonalEdgeStyle;rounded=0;orthogonalLoop=1;jettySize=auto;html=1;entryX=1;entryY=0.5;entryDx=0;entryDy=0;fontSize=10;" edge="1" parent="1" source="ZrJRJ42UMuMNObL904E1-148" target="ZrJRJ42UMuMNObL904E1-142">
          <mxGeometry x="1259.65" y="-685.56" as="geometry">
            <Array as="points">
              <mxPoint x="1676.1205882352942" y="-232.22666666666674" />
            </Array>
          </mxGeometry>
        </mxCell>
        <mxCell id="ZrJRJ42UMuMNObL904E1-148" value="Has had recovery?" style="rhombus;whiteSpace=wrap;html=1;fontSize=12;verticalAlign=middle;fillColor=#fff2cc;strokeColor=#d6b656;" vertex="1" parent="1">
          <mxGeometry x="1641.414705882353" y="-410.00444444444446" width="69.41176470588236" height="71.1111111111111" as="geometry" />
        </mxCell>
        <mxCell id="ZrJRJ42UMuMNObL904E1-150" value="Payment Batch Processor" style="ellipse;whiteSpace=wrap;html=1;aspect=fixed;fontSize=12;verticalAlign=middle;" vertex="1" parent="1">
          <mxGeometry x="1763.7529411764708" y="-410.00444444444446" width="69.19753086419752" height="69.19753086419752" as="geometry" />
        </mxCell>
        <mxCell id="ZrJRJ42UMuMNObL904E1-151" value="No" style="edgeStyle=orthogonalEdgeStyle;rounded=0;orthogonalLoop=1;jettySize=auto;html=1;fontSize=10;" edge="1" parent="1" source="ZrJRJ42UMuMNObL904E1-148" target="ZrJRJ42UMuMNObL904E1-150">
          <mxGeometry x="1259.65" y="-685.56" as="geometry" />
        </mxCell>
        <mxCell id="ZrJRJ42UMuMNObL904E1-152" value="Is Cross Border?" style="rhombus;whiteSpace=wrap;html=1;fontSize=12;verticalAlign=middle;fillColor=#fff2cc;strokeColor=#d6b656;" vertex="1" parent="1">
          <mxGeometry x="781.1205882352941" y="-409.0033333333332" width="69.41176470588236" height="71.1111111111111" as="geometry" />
        </mxCell>
        <mxCell id="ZrJRJ42UMuMNObL904E1-153" value="Is on hold" style="rhombus;whiteSpace=wrap;html=1;fontSize=12;verticalAlign=middle;fillColor=#fff2cc;strokeColor=#d6b656;" vertex="1" parent="1">
          <mxGeometry x="902.5911764705883" y="-409.0033333333332" width="69.41176470588236" height="71.1111111111111" as="geometry" />
        </mxCell>
        <mxCell id="ZrJRJ42UMuMNObL904E1-154" value="Is first payment?" style="rhombus;whiteSpace=wrap;html=1;fontSize=12;verticalAlign=middle;fillColor=#fff2cc;strokeColor=#d6b656;" vertex="1" parent="1">
          <mxGeometry x="1033.6058823529413" y="-409.0033333333332" width="69.41176470588236" height="71.1111111111111" as="geometry" />
        </mxCell>
        <mxCell id="ZrJRJ42UMuMNObL904E1-155" value="Is on hold" style="rhombus;whiteSpace=wrap;html=1;fontSize=12;verticalAlign=middle;fillColor=#fff2cc;strokeColor=#d6b656;" vertex="1" parent="1">
          <mxGeometry x="1381.1205882352942" y="-410.00444444444446" width="69.41176470588236" height="71.1111111111111" as="geometry" />
        </mxCell>
        <mxCell id="ZrJRJ42UMuMNObL904E1-156" value="Is top up?" style="rhombus;whiteSpace=wrap;html=1;fontSize=12;verticalAlign=middle;fillColor=#fff2cc;strokeColor=#d6b656;" vertex="1" parent="1">
          <mxGeometry x="1512.1352941176472" y="-410.00444444444446" width="69.41176470588236" height="71.1111111111111" as="geometry" />
        </mxCell>
        <mxCell id="ZrJRJ42UMuMNObL904E1-157" value="Cross Border Payment Engine" style="ellipse;whiteSpace=wrap;html=1;aspect=fixed;fontSize=12;verticalAlign=middle;" vertex="1" parent="1">
          <mxGeometry x="781.1205882352941" y="-266.78111111111104" width="69.19753086419752" height="69.19753086419752" as="geometry" />
        </mxCell>
        <mxCell id="ZrJRJ42UMuMNObL904E1-158" value="Exceptions" style="ellipse;whiteSpace=wrap;html=1;aspect=fixed;fontSize=12;verticalAlign=middle;" vertex="1" parent="1">
          <mxGeometry x="902.5911764705883" y="-266.78111111111104" width="69.19753086419752" height="69.19753086419752" as="geometry" />
        </mxCell>
        <mxCell id="ZrJRJ42UMuMNObL904E1-159" value="Cross Border Payment Engine" style="ellipse;whiteSpace=wrap;html=1;aspect=fixed;fontSize=12;verticalAlign=middle;fillColor=#d5e8d4;strokeColor=#82b366;" vertex="1" parent="1">
          <mxGeometry x="781.1205882352941" y="-266.78111111111104" width="69.19753086419752" height="69.19753086419752" as="geometry" />
        </mxCell>
        <mxCell id="ZrJRJ42UMuMNObL904E1-160" value="Exceptions" style="ellipse;whiteSpace=wrap;html=1;aspect=fixed;fontSize=12;verticalAlign=middle;fillColor=#d5e8d4;strokeColor=#82b366;" vertex="1" parent="1">
          <mxGeometry x="902.5911764705883" y="-266.78111111111104" width="69.19753086419752" height="69.19753086419752" as="geometry" />
        </mxCell>
        <mxCell id="ZrJRJ42UMuMNObL904E1-161" value="Payment Batch Processor" style="ellipse;whiteSpace=wrap;html=1;aspect=fixed;fontSize=12;verticalAlign=middle;fillColor=#d5e8d4;strokeColor=#82b366;" vertex="1" parent="1">
          <mxGeometry x="1033.6058823529413" y="-266.78111111111104" width="69.19753086419752" height="69.19753086419752" as="geometry" />
        </mxCell>
        <mxCell id="ZrJRJ42UMuMNObL904E1-162" value="Delta" style="ellipse;whiteSpace=wrap;html=1;aspect=fixed;fontSize=12;verticalAlign=middle;fillColor=#d5e8d4;strokeColor=#82b366;" vertex="1" parent="1">
          <mxGeometry x="1163.7529411764708" y="-409.0033333333332" width="69.19753086419752" height="69.19753086419752" as="geometry" />
        </mxCell>
        <mxCell id="ZrJRJ42UMuMNObL904E1-163" value="Payment Batch Processor" style="ellipse;whiteSpace=wrap;html=1;aspect=fixed;fontSize=12;verticalAlign=middle;fillColor=#d5e8d4;strokeColor=#82b366;" vertex="1" parent="1">
          <mxGeometry x="1763.7529411764708" y="-410.00444444444446" width="69.19753086419752" height="69.19753086419752" as="geometry" />
        </mxCell>
        <mxCell id="ZrJRJ42UMuMNObL904E1-164" value="Settlement Request Editor" style="ellipse;whiteSpace=wrap;html=1;aspect=fixed;fontSize=12;verticalAlign=middle;fillColor=#d5e8d4;strokeColor=#82b366;" vertex="1" parent="1">
          <mxGeometry x="1512.1352941176472" y="-267.7822222222222" width="69.19753086419752" height="69.19753086419752" as="geometry" />
        </mxCell>
        <mxCell id="ZrJRJ42UMuMNObL904E1-165" value="Exceptions" style="ellipse;whiteSpace=wrap;html=1;aspect=fixed;fontSize=12;verticalAlign=middle;fillColor=#d5e8d4;strokeColor=#82b366;" vertex="1" parent="1">
          <mxGeometry x="1381.1205882352942" y="-267.7822222222222" width="69.19753086419752" height="69.19753086419752" as="geometry" />
        </mxCell>
        <mxCell id="ZrJRJ42UMuMNObL904E1-166" value="All" style="ellipse;whiteSpace=wrap;html=1;aspect=fixed;fontSize=12;verticalAlign=middle;fillColor=#dae8fc;strokeColor=#6c8ebf;" vertex="1" parent="1">
          <mxGeometry x="910.6829411764706" y="-50.18777777777778" width="69.19753086419752" height="69.19753086419752" as="geometry" />
        </mxCell>
        <mxCell id="ZrJRJ42UMuMNObL904E1-167" value="MI" style="ellipse;whiteSpace=wrap;html=1;aspect=fixed;fontSize=12;verticalAlign=middle;fillColor=#d5e8d4;strokeColor=#82b366;" vertex="1" parent="1">
          <mxGeometry x="1014.8005882352941" y="-50.18777777777778" width="69.19753086419752" height="69.19753086419752" as="geometry" />
        </mxCell>
        <mxCell id="ZrJRJ42UMuMNObL904E1-168" style="edgeStyle=orthogonalEdgeStyle;rounded=0;orthogonalLoop=1;jettySize=auto;html=1;entryX=0;entryY=0.5;entryDx=0;entryDy=0;fontSize=10;" edge="1" parent="1" source="ZrJRJ42UMuMNObL904E1-166" target="ZrJRJ42UMuMNObL904E1-167">
          <mxGeometry x="893.33" y="-672.4100000000001" as="geometry" />
        </mxCell>
        <mxCell id="ZrJRJ42UMuMNObL904E1-543" value="Yes" style="edgeStyle=orthogonalEdgeStyle;rounded=0;orthogonalLoop=1;jettySize=auto;html=1;fontSize=12;" edge="1" parent="1" source="ZrJRJ42UMuMNObL904E1-544">
          <mxGeometry x="1269.65" y="-690" as="geometry">
            <mxPoint x="1529.9441176470586" y="-130" as="targetPoint" />
          </mxGeometry>
        </mxCell>
        <mxCell id="ZrJRJ42UMuMNObL904E1-549" value="No" style="edgeStyle=orthogonalEdgeStyle;rounded=0;orthogonalLoop=1;jettySize=auto;html=1;fontSize=11;" edge="1" parent="1" source="ZrJRJ42UMuMNObL904E1-544" target="ZrJRJ42UMuMNObL904E1-548">
          <mxGeometry relative="1" as="geometry" />
        </mxCell>
        <mxCell id="ZrJRJ42UMuMNObL904E1-544" value="Pass?" style="rhombus;whiteSpace=wrap;html=1;fontSize=12;verticalAlign=middle;fillColor=#fff2cc;strokeColor=#d6b656;" vertex="1" parent="1">
          <mxGeometry x="1391.1205882352942" y="-166.55555555555554" width="69.41176470588236" height="71.1111111111111" as="geometry" />
        </mxCell>
        <mxCell id="ZrJRJ42UMuMNObL904E1-545" value="Payment Batch Processor" style="ellipse;whiteSpace=wrap;html=1;aspect=fixed;fontSize=12;verticalAlign=middle;fillColor=#d5e8d4;strokeColor=#82b366;" vertex="1" parent="1">
          <mxGeometry x="1529.9441176470589" y="-165.55555555555554" width="69.19753086419752" height="69.19753086419752" as="geometry" />
        </mxCell>
        <mxCell id="ZrJRJ42UMuMNObL904E1-546" style="edgeStyle=orthogonalEdgeStyle;rounded=0;orthogonalLoop=1;jettySize=auto;html=1;entryX=0;entryY=0.5;entryDx=0;entryDy=0;fontSize=12;" edge="1" parent="1" source="ZrJRJ42UMuMNObL904E1-547" target="ZrJRJ42UMuMNObL904E1-544">
          <mxGeometry x="1269.65" y="-690" as="geometry" />
        </mxCell>
        <mxCell id="ZrJRJ42UMuMNObL904E1-547" value="Quality Check" style="ellipse;whiteSpace=wrap;html=1;aspect=fixed;fontSize=12;verticalAlign=middle;fillColor=#dae8fc;strokeColor=#6c8ebf;" vertex="1" parent="1">
          <mxGeometry x="1287.0029411764706" y="-165.55555555555554" width="69.19753086419752" height="69.19753086419752" as="geometry" />
        </mxCell>
        <mxCell id="ZrJRJ42UMuMNObL904E1-548" value="Settlement Request Editor" style="ellipse;whiteSpace=wrap;html=1;aspect=fixed;fontSize=12;verticalAlign=middle;fillColor=#d5e8d4;strokeColor=#82b366;" vertex="1" parent="1">
          <mxGeometry x="1391.1252941176472" y="-50.19222222222217" width="69.19753086419752" height="69.19753086419752" as="geometry" />
        </mxCell>
      </root>
    </mxGraphModel>
  </diagram>
</mxfile>
